<svg id="Calque_1" data-name="Calque 1" xmlns="http://www.w3.org/2000/svg" viewBox="0 0 42.1 36"><defs><style>.cls-1{fill:#2a284f;}</style></defs><path class="cls-1" d="M38.75,14.07c-5.8-.17-11.5,1.83-17.29,1.48-2-.13-3.82-.8-5.9-.31a30.67,30.67,0,0,1-4.7.7c1.27-1.71,3.13-3.29,4.31-4.7,1.74-2.07,3.08-4.18,5.22-5.88a2.6,2.6,0,0,0,1.14-1.95c0-.55.24-1.67-.06-2.17S20.11-.38,19.25.13C14,2.3,9.63,6.9,5.84,11a41.28,41.28,0,0,0-4.75,6.83h0A6.7,6.7,0,0,0-.09,21c-.22,2.09,4.48,3.39,5.82,4.41,3.39,2.59,5.56,6.69,9.79,8.11a44.82,44.82,0,0,0,8.07,2.26c1,.14,1.59.67,1-.76a15.37,15.37,0,0,0-5.95-7.58c-2-1.43-4.07-2.86-6.2-4.13l-.12-.08a3.79,3.79,0,0,0,.69-.16c3.11-1,6.2-.66,9.33-.57,4.95.15,9.79.39,14.73-.7,1.53-.33,3-.68,4.17-2.71C43.2,15.62,40.91,14.13,38.75,14.07Z" transform="translate(0.1 0)"/></svg>