<svg id="Calque_1" data-name="Calque 1" xmlns="http://www.w3.org/2000/svg" viewBox="0 0 42 36"><defs><style>.cls-1{fill:#2a284f;}</style></defs><path class="cls-1" d="M36.07,11C32.29,6.9,28,2.3,22.69.13c-.85-.51-1.92.63-2.21,1.11s-.06,1.62-.06,2.17a2.6,2.6,0,0,0,1.14,2c2.13,1.7,3.47,3.81,5.2,5.88,2.38,2.85,7.53,6.35,5,10.34a7.84,7.84,0,0,1-2.27,1.74c-2.12,1.27-4.18,2.7-6.19,4.13A15.34,15.34,0,0,0,17.33,35c-.55,1.43.05.9,1,.76a44.85,44.85,0,0,0,8.05-2.26c4.22-1.42,6.38-5.52,9.77-8.11,1.33-1,6-2.32,5.8-4.41a6.8,6.8,0,0,0-1.16-3.13h0A41.28,41.28,0,0,0,36.07,11Z" transform="translate(0 0)"/><path class="cls-1" d="M26.37,15.24A46.66,46.66,0,0,0,38.66,16c.54,0,1.64,2.34,1.05,3.19S38.13,20,37.49,21c-.26.4-.76.37-1.09.53a16.56,16.56,0,0,1-2.54.71c-1.8.56-3.09,1.46-5,.85-3.1-1-6.19-.66-9.31-.57-4.93.15-9.76.39-14.69-.7-1.53-.33-3-.68-4.16-2.71-1.92-3.48.37-5,2.52-5C9,13.9,14.71,15.9,20.49,15.55,22.51,15.42,24.3,14.75,26.37,15.24Z" transform="translate(0 0)"/></svg>