<?xml version="1.0" standalone="no"?>
<!DOCTYPE svg PUBLIC "-//W3C//DTD SVG 1.1//EN" "http://www.w3.org/Graphics/SVG/1.1/DTD/svg11.dtd" >
<svg xmlns="http://www.w3.org/2000/svg" xmlns:xlink="http://www.w3.org/1999/xlink" version="1.1">
<metadata>
Created by FontForge 20170731 at Wed Nov 25 19:20:38 2020
 By Aleksey,,,
</metadata>
<defs>
<font id="Encre-Regular" horiz-adv-x="250" >
  <font-face 
    font-family="Encre"
    font-weight="400"
    font-stretch="normal"
    units-per-em="1000"
    panose-1="2 0 5 3 0 0 0 0 0 0"
    ascent="800"
    descent="-200"
    x-height="494"
    cap-height="698"
    bbox="22 -150 825 920"
    underline-thickness="50"
    underline-position="-200"
    unicode-range="U+000D-2019"
  />
<missing-glyph horiz-adv-x="364" 
d="M298 666v-666h-265v666h265zM66 633v-600h199v600h-199z" />
    <glyph glyph-name=".notdef" horiz-adv-x="364" 
d="M298 666v-666h-265v666h265zM66 633v-600h199v600h-199z" />
    <glyph glyph-name="uni0000" 
 />
    <glyph glyph-name="uni0000" 
 />
    <glyph glyph-name="nonmarkingreturn" horiz-adv-x="333" 
 />
    <glyph glyph-name="uni000D" unicode="&#xd;" 
 />
    <glyph glyph-name="space" unicode=" " 
 />
    <glyph glyph-name="exclam" unicode="!" horiz-adv-x="597" 
d="M439 249q-21 0 -22 24q-8 50 -8 155v26q0 2 0.5 33.5t0.5 53.5q0 61 5 84q6 23 19 36q12 10 24 10q9 0 17 -5q4 -2 10.5 -15t6.5 -19t10 -35q5 -15 5 -21t5 -16q11 -24 11 -36q0 -20 12 -42q7 -13 7 -24q0 -5 -2 -7q-2 -3 -4 -10q-1 -4 -7 -15.5t-6 -16.5q0 -2 -7 -37
q-1 -5 -16 -32t-15 -35q0 -3 1 -4t-1 -16q-6 -29 -34 -35q-4 -1 -12 -1zM497 87q-8 -8 -8 -12t-22 -27t-30 -27q-15 -7 -25 9q-12 18 -12 47q0 17 3 49q5 63 24 88q3 5 5 5q5 0 33 -14q5 -3 21 -5q22 -3 40 -21q12 -11 5 -22q-4 -5 -11.5 -23t-7.5 -22q0 -12 -15 -25z
M125 691q-10 0 -10 8q0 2 1 4q2 7 13 1q6 -5 6 -7q0 -6 -10 -6zM62 726q0 7 5 8q3 0 3.5 -4.5t-2.5 -6.5q-4 -3 -6 3zM182 630q-2 2 5 8q5 3 6 -2q1 -2 -4 -4.5t-7 -1.5zM57 621q0 3 4 3q5 0 5 -4q0 -2 -2 -2.5t-4 0.5t-3 3z" />
    <glyph glyph-name="quotedbl" unicode="&#x22;" horiz-adv-x="396" 
d="M333 635q5 -8 5 -56q0 -14 -1 -16q-2 -4 1 -15q0 -1 1 -3q1 -4 1.5 -5.5t0.5 -3t-1 -2.5t-4 -2q-5 -3 -6 -10t4 -11q3 -4 0 -11q-1 -2 -6 -19t-7 -19t-2 -10q0 -24 -21 -38q-8 -6 -26 -6q-34 0 -49 12q-4 4 -13 8t-13 10q-4 7 -4 27q0 17 3 70q0 6 1.5 11t1.5 8v3
q0 1 -0.5 2t-1 3t-0.5 4q-2 16 -2 26q0 37 7 51q5 7 5 14q0 6 4 8q11 6 15 0q2 -2 14 -2q26 0 46 -10q8 -4 16 -4t18.5 -4.5t12.5 -9.5zM131 541q0 -2 -3 -2q-9 0 0 -12q6 -8 3 -20q-3 -11 -5 -43q-2 -26 -5.5 -36.5t-13.5 -17.5q-10 -6 -25 -6q-17 0 -20 5q-6 10 -7 88
q-2 66 -2 79v9q0 55 18 69q15 10 25 0l8 -21q3 -8 9.5 -33.5t8.5 -30.5v-14q-1 -11 5 -11q4 0 4 -3z" />
    <glyph glyph-name="quotesingle" unicode="'" horiz-adv-x="274" 
d="M65 575q2 43 13 64q0 1 1.5 5t2.5 6q4 9 21.5 15.5t36.5 6.5q14 0 29 -9q14 -9 17 -9q12 0 24 -38q2 -7 5 -7q2 0 3.5 -2t-1.5 -2t-2 -19q0 -17 -2.5 -36.5t-3.5 -35.5q-7 -70 -11 -77q-9 -9 -18 -17q-27 -24 -66 -24h-6q-19 0 -25 4q-2 2 -13 6t-12 6q-5 7 -5 33
q2 55 5 58q2 2 2 23q0 16 2 24.5t3 24.5z" />
    <glyph glyph-name="parenleft" unicode="(" horiz-adv-x="375" 
d="M270 640q2 -9 3 -13q2 -10 2 -24q0 -23 -5 -28q-3 -3 -3 -9q0 -27 -29 -78q-3 -5 -3 -34q0 -21 1.5 -31.5t4 -20.5t3.5 -22q2 -14 14 -39q12 -26 12 -27q0 -15 11 -39l5 -13q0 -3 7 -12q27 -38 27 -61q0 -19 -10 -53q-4 -12 -4 -14t-8 -18.5t-8 -19.5q0 -7 -10 -20.5
t-11 -15.5q-3 -9 -11 -25q-14 -29 -28 -34h-2q-18 0 -30 10q-17 15 -43 23q-11 3 -20 9.5t-10 11.5q-1 6 -8 17.5t-16 24.5t-12 18q-21 34 -27 55q-6 19 -6 61q0 18 -1 39.5t-1 29.5q0 19 4 44q5 26 10 45.5t8.5 28.5t11.5 28.5t12 31.5q0 2 6.5 17.5t7.5 23.5q0 1 25 63
q5 16 23 41q9 13 9 16q0 4 5 7q1 1 16.5 22.5t18.5 23.5q2 2 13 2q15 0 23 -4q6 -3 10 -6.5t6.5 -9.5t3.5 -9.5t3 -12.5z" />
    <glyph glyph-name="parenright" unicode=")" horiz-adv-x="363" 
d="M116 472q-3 3 -3 9q0 2 -30 30q-14 14 -19 27.5t-8 48.5q-1 11 -1 27q0 23 10 37q12 17 37 17q16 0 29 -9q66 -48 75 -81q3 -11 10 -18q20 -21 28 -33t17.5 -35t16.5 -38q23 -46 26 -88q1 -12 3 -25.5t2 -22.5q0 -10 -1 -17q-1 -5 -9.5 -43t-10.5 -60q-5 -70 -9 -73
q-3 -3 -5 -28q-3 -38 -10.5 -51.5t-29.5 -20.5q-10 -3 -19 -15q-7 -11 -21 -17q-11 -5 -57 -28q-8 -4 -16 -6q-4 -1 -13.5 -9.5t-14.5 -15.5q-5 -6 -10 -6q-17 0 -21 78q0 4 -0.5 13.5t-0.5 14.5q0 72 5 74q2 0 2 6q0 14 13 48.5t23 46.5q21 25 21 59q0 10 3.5 26t7.5 27
l3 11q0 1 1.5 4.5t3.5 8.5t3 9l5 18l-5 20q-16 60 -31 80z" />
    <glyph glyph-name="comma" unicode="," horiz-adv-x="335" 
d="M271 342q3 -7 7 -33q4 -20 4 -37q0 -3 -0.5 -8.5t-0.5 -9.5q-2 -27 -3 -28q-2 -2 -4 -14q-4 -49 -15 -72q-2 -6 -2 -13t-26 -76q-3 -10 -6 -10q-2 0 -6 -8q-12 -16 -26 -30q-17 -17 -27.5 -22.5t-27.5 -7.5h-5q-21 0 -32 28q-3 11 -3 25q0 46 16 80q5 11 9 27
q4 20 17.5 45.5t26.5 38.5q8 8 16.5 23.5t10.5 19.5l7 13q4 9 4 10q11 29 37 56q11 12 18 11t11 -8zM67 236q-8 -1 -11 6t2 12t10.5 1t4.5 -11q0 -8 -6 -8z" />
    <glyph glyph-name="hyphen" unicode="-" horiz-adv-x="519" 
d="M176 249q-7 -1 -10 -1q-15 0 -27 4q-10 2 -30 13q-24 13 -33 29q-22 38 -22 57q0 43 68 77q32 16 61 16q8 0 24 -4q36 -9 56 -20q3 -2 24 -4q65 -7 72 -8q12 -1 23.5 -4t23.5 -3q16 0 32 -12t22 -25t3 -21q-4 -13 -24 -29q-7 -6 -42 -15q-13 -4 -22 -13q-21 -21 -60 -22
q-66 -3 -89 -12q-9 -3 -38 -3h-12zM436 291q-1 1 -2 1q-3 1 -3.5 6.5t1.5 7.5q6 6 8 -6q3 -9 -4 -9z" />
    <glyph glyph-name="period" unicode="." 
d="M148 75l-13 -14l-11 1q-10 1 -26 13q-13 10 -16.5 15.5t-6.5 20.5q-1 8 -7 22t-6 27q0 16 -5 28t-5 21q0 20 14 36.5t33 16.5q5 0 8 -1q11 -3 31 -17.5t26 -24.5q2 -4 4.5 -12t5 -14.5t6.5 -10.5q16 -20 16 -45q0 -13 -5 -21.5t-21 -20.5q-15 -12 -22 -20z" />
    <glyph glyph-name="slash" unicode="/" horiz-adv-x="432" 
d="M286 643q30 38 49 52q2 1 6.5 5.5t9 7t8.5 2.5q6 0 11 -4q7 -6 5 -24q-3 -34 -4 -82q0 -11 -0.5 -19t-1 -12.5t-1.5 -9.5t-1.5 -6.5t-3 -7.5t-3.5 -8q-4 -11 -7 -15q-4 -4 -4 -9q0 -3 -2.5 -6t-3.5 -6q-1 -4 -5.5 -15t-8 -20.5t-3.5 -11.5q0 -4 -6.5 -18t-10.5 -20
q-9 -13 -19 -38t-11 -36q-2 -32 -20 -86q-6 -18 -13 -32t-7 -18q0 -2 -21 -24t-21 -23q0 -2 -6 -11.5t-7 -11.5q-3 -6 -8 -11q-1 -1 -5 -6.5t-7 -8.5q-18 -21 -39 -23q-3 -1 -11.5 -3.5t-16.5 -4t-15 -1.5q-11 0 -16 4q-10 7 -10 29q0 33 20 65q5 7 21 49q4 12 16 50
q11 36 37 105q12 30 31 85q5 15 18 42.5t15 28.5q7 7 22 39q9 16 50 68z" />
    <glyph glyph-name="zero" unicode="0" horiz-adv-x="482" 
d="M408 155q-3 -16 -4 -18q-2 -4 -2 -13q0 -5 -6 -18.5t-6 -16.5q0 -4 -7 -14.5t-10 -10.5q-4 0 -12 -12l-10 4q-11 6 -16 12q-5 7 -8 7q-2 0 -6 6q-3 6 -21 5q-3 0 -7 -0.5t-6 -0.5q-11 0 -26 4t-22 4q-1 0 -13 -2q-9 -3 -13 -3q-2 0 -22 5q-31 9 -46 25q-10 12 -27 18
q-17 5 -19.5 9.5t-2.5 27.5q-1 41 -5 60.5t-18 66.5q-10 35 -12 52q0 2 -1.5 8.5t-1.5 10.5q-3 18 -3 44q0 13 2 41q2 27 9 35t7 28q0 24 -1 26q-2 4 0 8q1 1 1 4q0 12 -13 31l-7 10l32 32q32 32 32 34t10 6q5 2 20 12q29 21 53 22q22 2 23 2q9 0 26 -10q5 -3 25 -18t30 -20
q19 -9 45 -41.5t45 -71.5t23 -54t5 -44q0 -29 3 -41q2 -6 2 -20q0 -5 -1 -11t-1 -9q0 -4 2 -19t2 -20q0 -1 -1 -3v-1q-3 -5 -3 -12t3 -20q3 -14 3 -23q0 -11 -4.5 -28.5t-5.5 -28.5q-1 -31 -7 -38q-3 -3 -6 -18zM192 463q0 -4 5 -9q6 -6 7 -28q6 -66 6 -79q0 -32 -3 -33
q-4 -2 -2 -11t8 -15t20 -5q36 4 44 10q1 1 5 27q1 13 6 41t5 45q0 14 6 32q6 14 6 22q1 8 -0.5 11t-11.5 13q-15 17 -15 26q0 7 -5.5 10t-11.5 0q-18 -11 -34 -11q-10 0 -15 -4.5t-9.5 -15.5t-6.5 -14q-5 -9 -4 -12z" />
    <glyph glyph-name="one" unicode="1" horiz-adv-x="551" 
d="M279 40q-4 5 -5 44q-2 98 -6 107q-6 12 -6 61q0 34 4 39q3 5 3 17q0 25 8 41q8 14 8 30q0 10 4 21q6 14 4 16h-2q-6 0 -59 -13q-24 -6 -44 -6q-16 0 -31 3q-26 4 -42 19q-13 13 -13 18q0 6 -9 11q-12 7 -7 12q2 2 -1.5 13t-5.5 11q-1 0 -12 11q-11 10 -11 20t3 10
q2 0 14.5 12t12.5 14t4 8q4 5 7 28q2 22 11 34q6 9 20 23t17 14t19.5 10.5t26.5 18.5q13 11 26 16q20 7 21 8q18 9 32 9h1q3 1 7 3q6 3 23 6.5t21 5.5q29 11 78 11q16 0 25 -9q8 -8 18 -14q29 -14 35 -88q5 -54 15 -81q3 -9 3 -19q0 -24 -18 -48q-11 -17 -11 -34q0 -2 2 -44
q1 -8 1 -18q0 -11 -7 -40q-7 -25 -10 -46q-6 -38 -19 -76q-10 -30 -19 -82q-5 -26 -21 -58q-5 -10 -13 -22q-4 -4 -7.5 -13.5t-2.5 -13.5q1 -3 -3.5 -11.5t-6.5 -8.5q-7 0 -23 16l-17 -4q-15 -5 -27 -7q-5 -1 -7.5 -1t-3 1t-0.5 4q0 5 -4 11z" />
    <glyph glyph-name="two" unicode="2" horiz-adv-x="779" 
d="M481 237q-4 0 -8 -7t-7 -8q-4 -2 -4 -5t-5 -6q-4 -3 -4 -9v-6l18 1q8 0 58 8.5t69 8.5q8 0 11 -1q4 -1 45 -3q46 -2 56 -11q13 -11 13 -29q0 -5 -6.5 -20.5t-8.5 -15.5q-3 0 -7 -9q-3 -8 -15 -20q-11 -11 -11 -14q0 -2 -6 -10.5t-8 -10.5q-5 -4 -15 -22t-10 -29
q0 -12 -5 -16.5t-21 -5.5q-18 -2 -21 -5q-8 -10 -36 -18q-25 -7 -62 -7q-10 0 -12 2q-1 2 -9 2q-15 0 -26 -5q-46 -17 -130 -30q-18 -3 -35 -3q-22 0 -62 4q-100 6 -114 20q-4 4 -4 38q0 36 1 37q6 8 6 32q0 13 10 23l-12 21q-1 5 -2.5 9.5t-1.5 5.5q0 16 21 33q9 9 9 11
q0 3 4 6.5t4 7.5q0 10 17 24q2 2 7 20t9.5 38.5t5.5 23.5q3 10 5 24q4 36 45 101q11 18 24 35q12 15 12 21q0 3 -6 5t-21 -5q-14 -7 -20 -7q-10 0 -10 -9q0 -7 -6.5 -14.5t-11.5 -2.5q-4 4 -6 3t-1 -6q2 -11 -4 -11q-4 -1 -6 5q-1 4 -4 3.5t0 -4.5q5 -7 -7 -8q-4 -1 -9 -1
q-24 -1 -16 11q3 5 -0.5 8t-11.5 2q-26 -3 -28 -10q-1 -2 -5.5 -4t-8.5 -2.5t-5 1.5q0 3 -4 3t-9 8t-7 16q-1 12 4 22q6 12 6 15t8 12.5t8 11.5q0 3 7 9.5t15 10.5q10 5 19 26q1 6 7 6q5 0 8 5q1 2 17 11q8 5 33.5 25t35.5 26q11 7 36 17.5t32 12.5q3 0 10 2t15 5t10 4
q12 3 17 5q8 3 18 3q29 0 63 -16q17 -8 41 -13q29 -6 57.5 -22t36.5 -35q5 -10 5 -14l10 -16q5 -7 25 -48q2 -4 2 -15q0 -20 -4 -30q-14 -33 -16 -35q-3 -3 -3 -7q0 -3 -3 -8q-1 -1 -6 -14q-4 -9 -11 -20l-8 -11l2 -23q1 -17 -0.5 -20.5t-7.5 -2.5q-3 0 -5 -4.5t-4 -4.5
t-5.5 -1.5t-6.5 -3t-4 -0.5q-3 0 -4 -4q-1 -2 -12 -14.5t-11 -17.5q0 -3 4 -4q6 -2 0 -17q-1 -7 -6 -13.5t-10 -6.5z" />
    <glyph glyph-name="three" unicode="3" horiz-adv-x="672" 
d="M54 263q0 7 1 9q2 8 8 14t12 6q8 0 27 -21q20 -20 23 -20q4 0 6 5q3 8 8 8q6 0 21 -7q25 -11 34 -19q32 -24 75 -24q10 0 20.5 -1t13.5 -1q11 0 27 6q17 6 17 21q0 3 -2 7q-4 7 -4 25q0 25 6 33q5 5 -1 19t-70 14q-15 0 -19 -2q-11 -5 -11 7q0 21 7 21q1 0 3 4
q3 12 49 30q21 8 30 15t19 8q13 4 14 6v2q1 1 1 2q0 6 -7 26.5t-7 27.5q-2 29 -15 42q-6 5 -29 -2q-13 -4 -16.5 -6.5t-5.5 -10.5q-6 -19 -26 -22q-11 -1 -30.5 -7t-33.5 -8h-3q-8 0 -36 12q-10 4 -28 4q-10 0 -14 -2t-5 -2q-9 0 -9 16q0 5 2 9q3 9 3 11q0 7 5.5 23t9.5 23
q16 25 60 58q15 11 16 11q2 0 14 10q9 7 19 15q5 4 16 9.5t14 5.5h1q2 0 9 3q19 8 45 9q11 0 25 4.5t22 5.5q3 0 5.5 0.5t4.5 1t3 1.5h2q1 1 3 1q6 0 38 -6q37 -7 47 -19q1 -2 8 -5.5t9 -3.5t8 -6q2 -2 20 -15t20 -18q3 -7 6 -7q2 0 11 -14t9 -26q0 -20 23 -44
q17 -17 17 -26q0 -3 -4 -15q-4 -8 -4 -12q0 -20 -50 -70q-10 -10 -10 -14q0 -3 11 -8q7 -2 22 2q12 3 15.5 1.5t4.5 -11.5q1 -11 18 -42q7 -14 7 -22q0 -6 -3 -15q-3 -8 0 -26q2 -13 -1 -28q-4 -17 4 -17q3 0 6.5 -11t1.5 -14q-1 -1 -1 -9q0 -6 -8 -28.5t-9 -26.5
q-1 -11 -8 -19q-4 -4 -17 -20t-18 -21q-7 -7 -14 -23q-11 -22 -26 -30q-10 -5 -20 -17q-18 -21 -48 -22q-14 0 -31.5 -3.5t-29.5 -3.5l-30 -3q-13 -3 -16 -1l-22 5q-39 5 -52 12q-1 1 -35 18t-40 21q-48 34 -59 51q-7 11 -14 17q-9 9 -9 10q0 2 -4 9t-4 9q0 3 -5 8
q-5 4 -17.5 30t-14.5 37q-1 6 -6 21q-5 17 -5 35zM579 196q4 -16 7 -4q2 6 4 6q4 0 7 4.5t3 9.5q0 4 -4 5.5t-7.5 -0.5t-3.5 -6q0 -2 -3.5 -6t-2.5 -9zM607 222l2 2q-3 2 -6 2z" />
    <glyph glyph-name="four" unicode="4" horiz-adv-x="700" 
d="M482 442q3 -3 0.5 -4.5t-0.5 -3.5q3 -2 5 -18q1 -14 4 -17.5t16 -3.5q12 0 18 -2q6 -3 11 0q10 6 64 6h7q17 -5 22 -24q8 -21 7 -22q-2 -2 -1.5 -8.5t-0.5 -8.5q-2 -4 0.5 -15.5t4.5 -12.5t2 -3q0 -4 -10.5 -15t-10.5 -13q0 -3 -3 -2t-3 -2q-1 -5 2 -7q2 -1 2 -8t-3 -9
q-4 -3 0 -9q3 -4 3 -15q0 -20 19 -27q11 -4 5 -15q-4 -8 -12 -8q-12 0 -27 -5.5t-19 -12.5q-31 -42 -99 -45q-28 -2 -32 -5t-8 -28q-1 -8 -7.5 -23t-7.5 -29q-2 -22 -8.5 -33.5t-21.5 -20.5q-18 -10 -23 -5q-3 2 -3 9q0 2 0.5 8t0.5 9q0 40 -11 63q-8 17 -9 33q-1 24 -13 29
q-12 6 -106 6q-16 0 -28 -3q-3 -1 -7.5 -2t-7 -2t-3.5 -1q-9 0 -18.5 -1.5t-23.5 -4t-25 -3.5q-24 -4 -40 -4q-20 0 -20 12q0 4 1 7q0 1 0.5 3t0.5 3q0 18 -9 31q-2 2 -2 12q0 9 2 23.5t5 30t4 19.5q2 16 11 45q4 15 3 24q-2 9 2 13q10 10 21 29q1 2 3.5 5.5t5.5 8.5t5 8
q21 32 52 89q11 22 24.5 38t54.5 57q52 52 70 64q26 19 38 31q28 29 64 53q5 3 18 5q13 1 15 9t8 12q5 4 8 2.5t14 -9.5q9 -7 11 -7q5 0 10 -9t3 -19q-2 -8 2 -16t4 -33q0 -58 -11 -80q-6 -11 -6 -30v-35q0 -48 -6 -48h-3q-2 -1 -3 -1q-2 0 -3 -1.5t-0.5 -3.5t2.5 -4z
M350 415q5 -2 5 -8q0 -8 3 -8q2 -1 8 -1q11 0 26.5 3t15.5 5q0 6 1 11q-1 8 -3 8q-2 -1 -2.5 -0.5t0.5 2.5q2 4 2 8q0 3 1 3q6 0 1 6l-2 2q-5 2 -9.5 -1.5t-8.5 -2.5q-5 1 -7.5 -3.5t-6.5 -4.5q-3 0 -8 -4t-8 -2q-7 3 -12 -5q-4 -5 4 -8zM375 425q4 3 6 0q1 -3 -1 -6t-4 -1
q-5 3 -1 7zM329 406q3 -3 6 2q1 1 1 2q0 3 -4 3q-3 0 -4 -2.5t1 -4.5zM478 425q-3 0 0 -3q2 -2 3 -2q4 1 -3 5z" />
    <glyph glyph-name="five" unicode="5" horiz-adv-x="602" 
d="M545 187q-2 -4 0 -9q2 -6 -1 -14q-3 -7 -3 -20q0 -6 -5.5 -20t-5.5 -19q0 -6 -6.5 -8t-1.5 -11q3 -7 -3 -18q-6 -12 -12 -16q-7 -7 -8 -11q-1 -6 -17 -19q-35 -28 -84 -36q-20 -3 -34 -3q-13 0 -35 3t-27 3q-101 5 -137 41l-6 3q-2 1 -5 3t-5 3q-16 8 -28.5 19.5
t-12.5 16.5q0 10 -27 37q-23 23 -23 32q0 5 -2.5 10.5t-2.5 14.5q0 18 13 30t30 12h5q12 -2 12 -4t4 -2q3 0 7 -2q15 -9 51 -13q17 -1 20 2q4 3 25 9.5t26 10.5q10 7 14 7q5 0 9 4q1 0 13.5 7.5t17.5 11.5q2 1 12.5 4.5t17.5 7t7 7.5t-6 10q-7 9 -6 15t-3.5 13t-8.5 7
q-6 0 -13 4q-8 4 -22 4q-6 0 -16 1.5t-15 1.5q-4 0 -12 -2q-11 -3 -22 -3q-18 0 -38 7q-21 7 -38 7q-10 0 -16 -1q-13 -2 -25 2q-16 4 -21 4q-8 0 -10 6q-3 6 -3 21q0 26 7 35q2 2 4 19q2 18 5 30q19 84 20 118q1 44 10 64q5 11 17 16q14 7 19 15q4 7 10 9.5t9 -2.5
q4 -5 28 -1q68 10 96 10q43 0 45 2l2 1h3q20 0 28 -6q6 -4 11 -16l6 -12h14q36 0 44 -4q6 -3 11 -3q4 0 7.5 -2.5t8.5 -2.5q9 0 11 -1q4 -1 4 -6t-6 -15t-6 -11q0 -19 -17 -30q-25 -14 -34 -14h-1q-2 2 -4 0q-16 -13 -83 -18q-27 -2 -42 -5q-22 -4 -28 -2t-15.5 -0.5
t-12.5 -2.5q-12 0 -15 -13q-3 -18 -3 -28q0 -8 1 -14q3 -18 7 -19q4 -2 28 -4q57 -4 61 -13q2 -2 12 -8t11 -7q4 -4 6 -4q3 0 8 -3.5t7 -4.5q22 -7 55 -36q17 -15 20 -15t7 -7q3 -5 16.5 -16.5t22.5 -15.5q6 -3 12 -9.5t6 -8.5q0 -1 10 -11q14 -11 14 -34q0 -2 -0.5 -7
t-0.5 -8q-1 -9 0 -12t5 -2q3 1 3.5 -0.5t0.5 -5.5q0 -8 13 -17q4 -3 5 -6.5t0 -6.5zM393 65q0 -2 4 -3q2 0 5 -3.5t6 -6.5t4 -2q3 1 7 -3q5 -5 12 1q4 3 0 5q-2 2 -2 4t9 2t16 -2q3 -1 8 6t2 10q-1 1 -4 -3q-4 -8 -7 3q-1 7 -4 8l-2 -4v-2q0 -7 -2 -9q-2 -1 -2 2v4q1 6 -3 9
q-4 4 -3 6q1 3 -2 3q-11 -1 -14 -9l-1 -2q0 -2 -2 -4.5t-3 -4t0 -3.5q8 -8 -2 -8q-5 0 -5 3q0 5 -8 5q-8 1 -7 -2zM451 98q3 -4 3 -7q0 -2 9.5 -8.5t10.5 -5.5l-2 7q-3 6 -5.5 12t-2.5 7q0 9 -4 10t-9 -7q-4 -5 0 -8zM443 41q4 -4 5 1q1 2 5 7l2 3q-1 0 -8 -4q-6 -4 -4 -7z
M326 30q5 0 1 4q-2 2 -4 0q-3 -4 3 -4zM466 54q2 1 2 3t-2 2q-3 0 -3 -4t3 -1z" />
    <glyph glyph-name="six" unicode="6" horiz-adv-x="626" 
d="M512 132q-6 -5 -68 -8q-8 -1 -11 -1.5t-5 -3.5t-5 -10q-4 -11 -8.5 -15t-22.5 -13l-19 -9l-20 2q-22 3 -59 24q-12 7 -20 15q-6 8 -20 10q-13 1 -33 10.5t-24 15.5t-12 10q-2 1 -23 15q-16 10 -28 31q-17 26 -26 39q-21 28 -21 37q0 3 -13 20q-10 13 -18 80l-2 21l9 17
q16 32 32 51q26 31 33 44q5 9 18.5 24t17.5 15q2 0 14 10t18 12q5 2 9.5 4t10.5 5.5t11 6.5q14 7 21 14q7 6 49 27q2 1 20 13t30 14q5 0 15 6q6 3 28 9.5t29 7.5q3 0 9 3t9 1q2 -1 2 -4t8.5 -11t14.5 -12q15 -8 29.5 -23.5t14.5 -31.5q0 -3 -2 -11q-4 -10 -4 -16
q0 -17 -25.5 -38.5t-42.5 -21.5h-3q-8 0 -19 -4q-15 -4 -19 -10q-5 -7 -16 -20l-13 -13l8 -7q8 -7 27 -5q20 1 27 -2q8 -4 22 -4q30 0 51 -20q17 -15 22 -17q12 -4 23.5 -21t14.5 -31q1 -8 6 -22q4 -12 8 -49q1 -8 1 -20q0 -16 -6 -22q-4 -3 -4 -10q0 -8 -7 -18
q-5 -7 -8 -21.5t-7 -20.5q-2 -3 -6 -14.5t-7.5 -20.5t-6.5 -9t-8 -4zM474 338v6q0 8 -5 11t-19 3q-4 0 -13 0.5t-10 0.5q-11 0 -20 -3q-10 -5 -16 -5q-12 0 -4 -17q18 -38 46 -43h3q9 0 27 23q10 12 11 24z" />
    <glyph glyph-name="seven" unicode="7" horiz-adv-x="606" 
d="M545 564q0 -9 -4 -17l-2 -6q0 -2 10 -28q4 -11 4 -28q0 -18 -2 -31q0 -5 -2 -15.5t-2 -13.5q0 -8 -3 -23t-3 -25q0 -17 -3 -22q-4 -6 -4 -8q0 -4 -7 -16q-9 -14 -10 -25q-4 -27 -30 -43q-3 -2 -6 -18.5t-4 -18.5q-4 -8 -6 -26q-1 -18 -8 -25q-21 -20 -81 -21
q-51 -2 -83 -11q-11 -4 -21 -4q-7 0 -14 -5q-33 -18 -56 -21q-6 -1 -15 -1q-7 0 -8.5 3.5t-1.5 15.5q0 17 5 26q5 8 5 12q0 3 8 11t8 15q0 5 5 20t5 20q0 13 -12 13q-2 0 -14 -2q-6 -1 -26 -1q-42 0 -46 4q-1 1 -1 16q0 30 33 60q16 14 21 16q7 2 8 5q3 3 12 3
q8 0 26.5 -3.5t22.5 -3.5q9 0 11 1t5 8q4 10 5 10q7 0 22 38q6 15 6 35q0 10 -3 13q-5 3 -26 -1q-2 -1 -11 -1.5t-13 -0.5q-3 0 -38 -5t-52 -5q-9 0 -21 2q-22 4 -28 5q-38 4 -44 25q-2 8 -2 15q0 20 9 37q7 13 24.5 31t29.5 24q17 9 19 10q32 19 56 20q13 0 33.5 5t31.5 5
h67q8 0 22 -1t19 -1q13 0 19 2q14 3 28 3q10 0 58 -6q4 0 36 -8q23 -6 32 -17q8 -11 7 -21z" />
    <glyph glyph-name="eight" unicode="8" horiz-adv-x="591" 
d="M430 402q9 -2 16 -7q10 -7 27 -33.5t19 -29.5q7 -9 20.5 -36.5t18.5 -42.5q6 -17 6 -47q0 -21 -4.5 -37.5t-5.5 -28.5q-1 -17 -9 -30t-17 -19.5t-48 -25.5q-9 -5 -42 -11q-30 -5 -87 -50q-3 -3 -11 -4.5t-19 -2.5t-16 -2q-26 -4 -28 4q-1 5 -22 4t-24 2q-6 8 -22 17
q-18 11 -34 31q-23 27 -27.5 35t-4.5 21v35q0 14 0.5 19t2 12.5t2.5 22.5q1 11 2.5 18.5t4.5 15t4 13.5q1 4 6.5 18.5t5.5 22.5v11h-29q-30 0 -33 2q-21 17 -22 44q0 11 -4 23q-2 5 -2 16q0 42 29 69q21 19 21 38q0 6 16 32q6 9 11 11q4 1 19 20q8 9 19 19.5t18 21.5
q10 14 18 22q38 35 60 49q10 6 12 6q7 0 29 -14q12 -8 29 -14l16 -5l11 6q16 8 27 8q23 0 35 -38q8 -24 8 -107q0 -39 -7 -55q-7 -17 -16 -21q-16 -6 -10 -16q3 -5 31 -12zM214 200q15 -23 15 -32q0 -3 8 -10.5t13 -7.5q12 0 25 13q5 5 8 5q2 0 9 5q6 5 6 9q0 6 -9 25
q-7 14 -7 20q0 8 -10 24t-19 20q-10 4 -26 4q-6 0 -7 -1q-4 -3 -4 -22q0 -21 -3 -26q-7 -14 1 -26zM321 552q-6 -2 -17 -7t-15 -6q-15 -5 -17 -26q-1 -13 5 -27q7 -18 26 -27q10 -4 14 -4q9 0 9 14q0 10 4 23.5t5 22.5q2 21 3 24q2 6 -2 11q-3 4 -6 4h-2q-1 -1 -3 -1.5
t-4 -0.5zM169 -75q1 4 5 5q3 0 4.5 -3.5t-0.5 -5.5q-4 -4 -9 4z" />
    <glyph glyph-name="nine" unicode="9" horiz-adv-x="515" 
d="M436 293q0 -23 5 -26q20 -10 21 -28q0 -11 -9 -24q-13 -22 -13 -33q0 -4 2 -10q3 -9 -6 -27q-15 -30 -22 -41q-16 -24 -41 -31q-6 -2 -15 -8q-12 -11 -37 -11q-55 0 -63 4q-9 5 -25 -3q-20 -10 -23 -4q-2 4 -14 8.5t-23 5.5q-35 3 -72 31q-10 6 -13 6q-5 0 -5 8
q0 10 8 28.5t12 21.5q4 2 4 5q0 9 38 37q20 16 22 18q10 13 32 13q7 0 12 -3q10 -4 39 -5q11 -1 24 -1q12 0 16 3q6 4 18 18t12 17t6 13q10 17 9 22q-7 13 -20 -2q-4 -5 -19 -20q-11 -11 -20 -10q-1 0 -18 1.5t-31.5 3.5t-16.5 4l-17 6q-31 11 -44 22q-4 3 -12 3t-11 4
q-4 7 -21 15q-3 2 -7 3.5t-6.5 3t-5 2.5t-3.5 2q-4 2 -8.5 10.5t-4.5 12.5t-7.5 16t-7.5 13l-1 2v3q0 18 36 77q9 18 29 50q3 3 27 29q69 73 85 83q24 13 44 30q33 28 47 31q2 1 8 1q10 0 33.5 -6t26.5 -7q20 -4 25 -7q6 -3 16 -14.5t12 -18.5q1 -2 3.5 -9.5t4.5 -10.5
q6 -15 11 -49q3 -17 0 -20t-3 -30q0 -30 4 -60q2 -11 2 -31q0 -23 -6 -32q-5 -7 -8 -17q-4 -12 -6 -13q-3 -1 -7 -40q-2 -30 -2 -35zM155 445q0 -17 6 -17q4 0 19 5q22 8 30 12q8 5 15 5q6 0 34 -13t42 -13q16 0 21 4q15 11 15 29q0 37 -61 60q-16 7 -30 7h-7q-11 0 -30 -16
q-9 -7 -15 -9q-14 -4 -26.5 -20.5t-12.5 -33.5z" />
    <glyph glyph-name="colon" unicode=":" horiz-adv-x="293" 
d="M199 582q0 -9 7 -28q12 -35 12 -39q0 -5 6 -23.5t10 -23.5t4 -11q0 -7 -13 -24t-24 -19q-6 -2 -18 -2q-10 0 -16 2q-7 3 -15 -4q-8 -8 -21 -8q-16 0 -36 16q-6 5 -21 11q-10 3 -10 7t-4 8q-4 3 -4 14q0 14 6 21q5 7 5 8t5 15l8 16q1 4 4.5 10.5t5.5 11.5q13 27 25 39
q31 31 48 36q10 2 12 2q11 0 19 -17q5 -10 5 -18zM196 216q0 -10 6 -40q3 -18 3 -34q0 -28 -12 -40q-25 -23 -37 -23q-5 0 -22 12q-11 8 -15.5 9.5t-12.5 -0.5q-20 -3 -29 3q-6 4 -11 4q-6 0 -6 3q0 1 -4.5 10.5t-2.5 13.5t2 14q0 9 3 15q9 16 12 34q1 8 3.5 12.5t6 10
t6.5 12.5q13 30 34 55q7 7 14 7t19 6q14 8 21 1q8 -8 12 -40q1 -10 5.5 -22t4.5 -23z" />
    <glyph glyph-name="semicolon" unicode=";" horiz-adv-x="559" 
d="M204 62q-3 -3 -5 -4.5t-7 -4.5q-14 -9 -29 -30l-8 -12l-20 -1q-37 0 -43 3q-4 2 -13.5 18t-11.5 18q-9 9 -9 18q0 4 4 12q4 5 4 12q0 3 11 18q22 31 27 48q4 17 1 27q-1 2 -1 7q0 7 13 28q4 6 9 8q3 1 13 14.5t12 19.5q1 2 17.5 17t24.5 21q21 14 33 14q6 0 10 -4
q7 -7 7 -28q0 -6 -2 -8q-7 -7 -9 -46q0 -10 -4 -35t-4 -27q0 -10 -4.5 -33.5t-5.5 -27.5q-1 -6 -2 -14.5t-1.5 -11t-1.5 -7t-2 -5.5t-3 -4zM216 564q4 0 17 4.5t19 4.5q8 0 10 -5q4 -8 4 -41q0 -60 -7 -69q-2 -2 -4.5 -17t-3.5 -17q-4 -6 -4 -11q0 -16 -23 -24q-7 -3 -13 -3
q-12 0 -23 14q-7 9 -11 9q-3 0 -13 2q-10 3 -23.5 16.5t-13.5 20.5q0 6 -6 13q-9 10 -12 25l-3 17l28 27q18 18 35.5 31t27.5 13q6 0 9 -5t10 -5zM496 -38q1 1 3 -1q3 -3 1 -7q-2 -6 -4 1q-2 6 0 7z" />
    <glyph glyph-name="equal" unicode="=" horiz-adv-x="653" 
d="M540 196q-14 -2 -22 -5q-6 -2 -13 -2.5t-10 -3.5q-1 -3 -9 -3q-21 0 -40 -1q-26 -1 -63 -1q-33 0 -39 2q-12 4 -32 4q-22 0 -66 6q-3 0 -7 1t-6.5 1.5t-3.5 0.5t-4 0.5t-8.5 1t-9.5 0.5q-66 5 -113 32q-14 8 -23 11q-11 5 -14 8t-3 11v7q1 20 14 34t42 28q36 17 42 17
q5 0 11 3t12 4q5 1 13 1q14 0 39 -6q27 -5 28 -5q8 0 10 -2t22 -2q21 0 49 -6q21 -5 34 -5q2 0 30 2q24 2 29 2q19 0 33 -8q16 -5 42 -19q14 -7 16 -7l20 -10q20 -10 26 -20q1 -2 4 -6t5 -7t3 -5q6 -7 6 -21q0 -11 -5 -16q-6 -7 -16 -10.5t-23 -5.5zM522 388q-5 0 -12 0.5
t-13 0.5q-20 0 -67.5 4t-69.5 4q-37 0 -37 3q0 1 -16 3q-14 1 -27 -5q-17 -9 -47 -9q-17 0 -51.5 4t-49.5 4q-14 0 -34 6q-36 12 -36 22q0 4 11.5 23t15.5 23q6 6 14 10.5t21 9t18.5 6t23.5 6t20 5.5q25 7 42 7l12 -1q13 0 34.5 -0.5t41.5 -0.5q63 -1 94.5 -5t59.5 -5
q62 -3 82 -20q2 -2 21.5 -12.5t21.5 -12.5q4 -4 4 -17q0 -12 -5 -21q-8 -11 -28.5 -22t-33.5 -11q-4 0 -6 1h-4z" />
    <glyph glyph-name="question" unicode="?" horiz-adv-x="482" 
d="M346 317q-28 -16 -35 -17q-28 -5 -65 -31q-3 -2 -16 -7.5t-18 -11.5l-9 -10q-7 4 -21 10l-1 23q-1 23 -5 29q-4 5 -4 17q0 8 3 17q4 11 35 52q3 4 12 14.5t15 19.5t8 17q5 15 11 22q10 14 10 20q0 5 -5 13q-11 17 -13 18q-5 5 -13.5 7.5t-12.5 -0.5q-7 -6 -44 -6
q-26 0 -58 3q-41 5 -49 8q-15 8 -15 29q0 11 6 25q1 2 2 4.5t2 4.5l1 2q0 3 15 18q21 21 37 21q7 0 14 -3q8 -3 11 -3t20 5q21 6 28 5q10 -2 25 4q16 6 26 6q11 0 20 -6q8 -5 22.5 -12.5t31.5 -22.5q7 -7 19 -16.5t18 -15.5q10 -11 18 -15q33 -22 41 -42q4 -12 4 -17
q0 -8 5 -16q5 -10 6 -41q0 -33 -1 -36q-4 -14 -30 -33q-12 -9 -12 -11q0 -10 -12.5 -23t-26.5 -18zM121 139q0 25 6 40q3 7 6 11t5 5.5t9 5.5q14 6 15 6q18 0 39 -17q22 -17 46 -29q19 -9 19 -12l17 -14q3 -3 16.5 -14.5t18.5 -17.5q12 -19 12 -35q0 -6 -8.5 -18t-15.5 -17
q-29 -18 -64 -18q-10 0 -14 1q-15 2 -27 -8q-4 -4 -8 -4q-8 0 -17 10.5t-12 18.5q-14 39 -25 56q-13 19 -15 24.5t-3 25.5z" />
    <glyph glyph-name="A" unicode="A" horiz-adv-x="748" 
d="M457 538q10 -17 28.5 -62.5t35.5 -68.5q8 -10 24.5 -34.5t17.5 -25.5q9 -13 9 -15l8 -16q10 -18 11 -29q5 -27 21 -48q14 -18 14 -42q0 -11 3 -25l5 -23q0 -6 2 -8q5 -10 5 -34q0 -2 -0.5 -5t-0.5 -4q-3 -16 -16.5 -25.5t-31.5 -9.5q-8 0 -19 3q-12 4 -17 2q-2 -1 -4 -1
q-7 0 -25 21q-19 23 -22 51q-3 21 -5 26q-5 12 -5 16q0 9 -4 12t-18 6q-15 4 -35 4q-17 0 -29 -3q-8 -2 -16 -2q-11 0 -34 3.5t-28 3.5q-17 1 -29 4q-7 2 -9.5 -1t-4.5 -19q-2 -10 -6 -20.5t-6 -18.5q-9 -31 -42 -43q-17 -6 -26 -14q-17 -12 -25 -14.5t-30 -2.5q-24 0 -32 4
q-6 4 -11 4q-4 0 -12 3.5t-12 3.5q-5 0 -9.5 2.5t-9.5 6.5t-8 5q-4 4 -4 11q0 3 1 11t1 13q1 11 7 33.5t6 25.5q2 12 5 17q4 8 4 12q0 7 9 32q7 24 14.5 43t11.5 31q3 9 9.5 20.5t9.5 17.5q3 7 11 25t15 33t8 19q2 6 10.5 24.5t10.5 19.5t22 29.5t24 35.5q4 6 15 22
q11 14 23.5 37.5t15.5 33.5q22 82 52 82q5 0 7 -1q3 -2 17.5 -19.5t20.5 -27.5q5 -9 7 -9t12 -14q12 -16 21 -23q22 -18 25 -64q3 -30 7 -37zM343 377q1 -1 12 1q28 7 49 7h4q6 -1 7 1q0 3 -8 16q-8 12 -12 19q-12 21 -20 27q-3 2 -8 -0.5t-5 -6.5t-2 -6q-1 -1 -9 -21
t-10 -27q0 -9 2 -10zM420 266q2 -1 4.5 -1.5t3.5 -2.5q10 -12 10 3q0 9 3 13q10 19 10 23q0 14 -13 1q-5 -6 -12 -5q-6 1 -6 0.5t3 -8.5t-2 -11q-4 -2 -4.5 -3t0 -4t0.5 -5h3zM684 558q2 5 5 3q1 -2 1 -4q0 -4 -4 -4t-2 5z" />
    <glyph glyph-name="B" unicode="B" horiz-adv-x="580" 
d="M494 620q0 -9 -3 -18q-4 -12 -1 -18q8 -16 8 -37q0 -2 -0.5 -6t-0.5 -6q0 -13 12 -30q17 -25 17 -45q0 -16 -10 -27q-3 -3 -10.5 -13t-14.5 -13t-7 -5q0 -1 -10 -5q-9 -3 -11 -5t-3 -8v-5l-1 -3q0 -2 -8 -2q-5 0 -5 0.5t2 3.5q7 7 0 7q-5 0 -11 -5q-5 -5 -5 -9
q0 -11 38 -42q28 -23 35 -31t11 -24q3 -11 3 -39q0 -12 -1 -13q-2 0 -2 -7q0 -16 -16 -46q-7 -14 -7 -25q0 -8 -2 -11t-14 -14q-17 -15 -20 -15q-2 0 -12 -6.5t-12 -6.5l-17 -15q-15 -15 -46.5 -30.5t-42.5 -22.5q-12 -8 -15 -8q-2 0 -15.5 -6.5t-14.5 -6.5q-2 0 -8 -2
q-27 -13 -46 -15q-7 0 -21 -4.5t-20 -4.5q-9 0 -16 6l-7 5l-17 -5q-19 -7 -39 -7q-16 0 -24 5q-10 6 -11 12v6q0 22 7 43q3 9 3 15q0 9 -7 19q-5 8 -13 34t-9 42v7q0 11 4.5 35.5t5.5 37.5q1 35 12 76q4 13 1 29q-2 16 -2 41q0 21 -2.5 29t-16.5 32q-4 5 -4 18q0 31 13 57
q2 4 9 22.5t10 22.5t5 13q2 7 9 23.5t9 21.5q1 3 15 31q3 7 14 22.5t14 19.5q7 13 14 13q16 0 25 23q5 16 40 61q6 7 11 7t20 -6q17 -5 25 -5q2 0 7 0.5t8 0.5h12q28 0 36 -17q5 -9 12 -11q19 -4 25 -7t13 -11q27 -33 59 -58q9 -6 14.5 -14.5t8.5 -11.5q14 -12 14 -33z
M253 256q10 -12 10 -38q0 -3 -0.5 -8.5t-0.5 -9.5l-1 -4q-2 0 2 -6q3 -5 3 -9t-5 -21q-5 -14 -1 -18t12 -1q3 1 6 1.5t4 -0.5q6 -4 28 9q49 30 58 41q7 9 7 24q0 5 -2 5q-4 0 -4 -2q0 -3 -2 -1t-1 5q1 2 0.5 2.5t-2.5 -1.5q-6 -5 -8 7q-1 4 -1 11v7q0 21 -14 27q-11 6 -11 7
t-7 3q-19 4 -25 0q-11 -6 -32 -10q-10 -2 -13 -3q-3 -2 -3 -7.5t3 -9.5zM221 398q5 -5 22 -5h22q46 0 54 2q15 3 39 3q10 0 10 -1q0 -11 9 -11q7 0 12 8q6 8 10 8t4 14v15q-6 4 -17.5 11.5t-17.5 11.5l-25 -1q-25 0 -39 7q-10 5 -20 5h-13q-10 0 -17 3q-19 6 -26 1
q-7 -6 -10 -48q-1 -19 3 -23zM408 265q5 0 5 2l-1 2q-2 -1 -5 -2q-4 -2 1 -2zM193 182q2 0 2 2q0 3 -2 3t-2 -3q0 -2 2 -2z" />
    <glyph glyph-name="C" unicode="C" horiz-adv-x="616" 
d="M433 563q3 -3 35 -19q13 -7 20 -14t16 -13q13 -8 16 -13t8 -26q3 -14 0 -22q-2 -5 -10.5 -16t-17 -19t-9.5 -7q-5 -1 -10 -4q-13 -6 -33 -7q-7 -1 -16 -1q-11 0 -26 4q-3 1 -6.5 2t-6 1.5t-4.5 1t-3 1.5h-2q-2 2 -13 6q-23 9 -31 30q-3 8 -11 14q-1 1 -6 5.5t-9.5 8.5
t-10.5 7.5t-9 3.5t-4 -1q-2 -2 -18 -7q-17 -6 -25 -14q-9 -9 -19 -15q-8 -5 -23 -20.5t-19 -22.5q-3 -4 -10 -24l-8 -20l1 -35q1 -38 8 -50q8 -16 9 -20q4 -16 25 -21q5 -1 14 -1q5 0 13.5 1t14.5 1q19 0 49 10q18 3 40 16.5t33 17.5q7 2 18.5 6t12.5 4q8 3 14 3q1 0 23 -2
q41 -7 57 -23q18 -18 18 -21l34 -35q0 -5 4 -14q5 -11 5 -24v-12q-1 -21 -4.5 -29t-17.5 -17q-13 -9 -27 -10q-32 -3 -46 -10q-12 -4 -18 -4h-4q-33 0 -51 -9l-40 -10q-12 -3 -42 -3q-33 0 -62 -8q-25 -7 -35 -7q-6 0 -6 2q0 3 -13 3q-27 0 -34 10q-4 7 -27 22q-11 8 -12 28
q-1 18 -14 25q-5 3 -10 8.5t-10.5 14t-8.5 11.5q-15 19 -17.5 26t-3.5 31q0 15 -2.5 35t-2.5 29q0 18 5 35q2 14 2 27v15q-1 18 -1 44q0 31 6 58q5 23 10 30q7 12 30 37q4 4 14 10t12 6q3 0 13 8q31 26 40 26q4 0 12 5q3 2 12.5 7t13.5 7q16 8 22 8q8 0 27 -6q17 -5 38 -7
q47 -7 53 -16q3 -4 16.5 -10.5t32 -13.5t22.5 -9z" />
    <glyph glyph-name="D" unicode="D" horiz-adv-x="586" 
d="M509 164q-12 -22 -23 -27q-50 -30 -53 -31q-8 -2 -43 -25q-11 -7 -54 -7q-41 0 -59 2q-15 3 -24 -1q-4 -1 -37 -3q-5 0 -12 -0.5t-9 -0.5q-12 0 -23 4q-15 6 -16 8q-4 6 -20 -2q-11 -6 -16 -1t-5 14q0 8 -9 28q-10 22 -14.5 39t-8 43t-7.5 47q-6 31 -6 55q0 17 -5 44
t-5 42q0 11 -2.5 25t-2.5 21q0 5 2 17q11 62 12 87q0 20 2 22q7 9 7 31v9q0 9 8 32q9 27 14.5 34t19.5 10q13 3 51 3q23 0 23 -2q0 -8 22 -1q12 3 25 3q15 0 30 -5q9 -3 14 -3q3 0 10 1.5t14 1.5q12 0 21 -7q6 -5 25.5 -15.5t26.5 -16.5q12 -9 31 -9t35 -8q11 -5 20.5 -14
t9.5 -13q0 -2 20 -26q8 -8 14 -29t6 -38q0 -4 2 -16q1 -3 1 -12q0 -23 -9 -90q-2 -10 4 -12.5t7 -5.5q11 -13 11 -46q0 -3 -0.5 -20t-0.5 -28q0 -36 -4 -45q-4 -7 -6 -21q-2 -21 -14 -42zM419 333l-9 15q-14 22 -25.5 29.5t-28.5 7.5q-23 0 -48 16q-18 11 -21 11q-4 0 -4 3
q0 1 -10 3q-10 1 -13 -4q-4 -6 -4 -8q0 -3 -2 -3q-3 -1 -8.5 -18t-7.5 -27q-7 -48 -7 -52q0 -3 2 -5t22 -6q18 -3 28 0q9 3 23 1q15 -3 26 -3q5 0 15 2q10 3 24 -6q16 -10 27 -13q8 -3 11 -3q8 0 9 33z" />
    <glyph glyph-name="E" unicode="E" horiz-adv-x="551" 
d="M382 614q3 0 7 -5t5 -10q0 -5 3 -14q2 -8 2 -10q0 -8 -14 -21q-16 -13 -40 -13q-7 0 -20.5 -3t-20.5 -4q-15 -1 -30.5 -7t-17.5 -11q0 -1 -0.5 -4.5t-1 -9.5t-0.5 -10q-1 -14 -3.5 -27t-3.5 -20q-1 -14 5 -17q4 -3 19 -5q26 -4 35 -6q22 -6 33 -16q12 -10 12 -14
q0 -5 -2 -9t-4.5 -7t-8 -6.5t-8.5 -5t-10 -4.5t-9 -4q-19 -9 -31 -13q-23 -8 -23 -16q0 -2 2 -10q2 -7 2 -18q0 -5 -1.5 -16t-2.5 -20q-2 -23 -4 -30q-2 -6 -2 -7q0 -4 10 -4q9 0 16 1q26 2 35 2q34 0 40 2q7 2 13.5 2t6.5 -3q0 -10 26 -12q2 0 32 -3q31 -4 40.5 -9
t18.5 -19q6 -11 6 -28q0 -15 2 -29q0 -1 0.5 -3t0.5 -3q0 -18 -14.5 -30.5t-31.5 -14.5q-4 0 -32 -10q-16 -6 -40 -12t-36 -10q-12 -3 -18 -3q-1 1 -20 -3q-43 -7 -110 -12q-34 -1 -52 -5q-3 -1 -7 -1q-6 0 -23 17q-20 20 -20 34q0 1 0.5 5t0.5 7t0.5 7.5t0.5 6.5q0 8 -8 35
q-4 15 -11 30q-9 20 -9 25t-3 14q-10 26 -10 99q0 84 7 98q1 2 4 23.5t4 23.5q2 5 6 19.5t7 23.5q4 12 4 23q0 4 2.5 7.5t2.5 8.5q0 6 2.5 10.5t2.5 11.5q0 12 4 16q5 5 5 7t6 16.5t7 15.5q2 2 19 36q2 2 15 2q9 0 26 -1t18 -1q9 0 25 0.5t23 0.5q25 0 41 -2q67 -8 75 -11
t14 -3t6 -2q0 -3 3 -3z" />
    <glyph glyph-name="F" unicode="F" horiz-adv-x="518" 
d="M382 306q-7 -1 -16.5 -4.5t-12.5 -4.5q-6 -1 -15 -6q-3 -3 -29 -8t-29 -7q-4 -4 -12 -4q-9 0 -19 -4t-12 -7q-4 -7 -4 -27q0 -9 1 -11q4 -12 4 -36q0 -20 -3 -38q-2 -22 -2 -33v-10q0 -3 0.5 -7.5t0.5 -6.5q0 -9 -4 -17q-5 -10 -5 -13q0 -4 -3.5 -8t-7.5 -4
q-1 0 -2.5 0.5t-4 1.5t-4.5 1q-6 2 -21 -3q-21 -7 -21 -2q0 2 -24 2h-23l-16 17q-39 41 -45 94q-1 8 -1 54q0 150 5 192q2 22 8.5 55.5t8.5 35.5t5.5 19t3.5 22q0 7 15 42q2 3 4 9.5t4.5 9.5t8.5 6q9 5 25 3q13 -2 20 2q24 16 45 16h4q9 0 89 15q6 1 24 1q72 0 107 -7
q32 -6 32 -22q0 -5 -4 -9q-5 -5 -5 -8q0 -9 -28 -21q-13 -6 -13 -8t-8.5 -6t-10.5 -4q-12 0 -44 -15q-10 -4 -41 -4h-35q-6 0 -20.5 -4.5t-17.5 -6.5q-1 -1 0.5 -6.5t3.5 -11.5t2 -7q0 -5 2 -10q2 -4 4 -23q0 -3 5 -28.5t5 -36.5v-5q-2 -16 1 -22q2 -7 17 -8q8 -1 22 -1
q41 0 55 -7q33 -11 37 -15q10 -8 11 -8q3 -1 2.5 -4.5t-2.5 -9.5t-2 -7q0 -10 -15 -12z" />
    <glyph glyph-name="G" unicode="G" horiz-adv-x="616" 
d="M438 462q-8 0 -11 1q-4 1 -5.5 2.5t0 3t4.5 2.5q5 1 1 6t-19 5q-14 0 -24 -4q-7 -3 -11 -3q-2 0 -11 2t-19 2h-8q-41 0 -58 -16q-7 -9 -11.5 -5.5t-12.5 0.5q-7 -3 -11 -13q-2 -6 -8 -10t-9 -10q-10 -22 -10 -62q0 -12 2 -16q3 -6 3 -18l1 -15l12 -11q7 -6 22 -15
q26 -15 39 -19t23 -4q9 0 15 1q20 2 50 2q29 0 47 6l15 4v10q0 15 -9 15q-5 0 -19 -7q-6 -3 -14 -3q-5 0 -17 2t-20 2q-41 0 -53 15q-15 19 -15 34q0 6 4 20t6 17q5 6 21 8q3 1 20 8q16 8 73 12q3 0 9 0.5t8 0.5q36 0 63 -23q3 -3 17 -8q13 -4 35 -19q11 -8 11 -31
q0 -9 -2.5 -26.5t-2.5 -23.5q-2 -21 -6 -28q-9 -14 -9 -61q0 -29 5 -38q2 -4 2 -7q0 -26 -27 -53q-5 -6 -16 -18t-14 -12l-10 -6q-17 -11 -53 -21.5t-67 -11.5h-8q-12 0 -49 5q-45 6 -67 22q-3 2 -33 18q-21 11 -34 21q-12 11 -15.5 15t-5.5 6.5t-6.5 9.5t-11.5 17
q-46 70 -44 77q0 3 -7 19q-18 44 -20 83q0 12 -2.5 33t-2.5 35q0 21 -2 55q-2 36 -2 52q0 47 9 111q4 26 8 34t17 15q3 2 22 13.5t31 14.5q27 8 49 19q20 9 21 9q6 0 31 9q25 8 29 8q1 0 3 -2q0 -1 18 -1q48 0 104 2q18 0 28 -7q5 -4 11.5 -10t13.5 -14t10 -11
q19 -16 35 -41q8 -13 13 -18q3 -2 3 -7q0 -3 3 -6q1 -1 7 -11q12 -25 20 -35q4 -5 21 -39q2 -2 2 -14q0 -17 -4 -25q-7 -12 -16.5 -16.5t-30.5 -4.5h-32q-20 0 -22 -1q-7 -3 -20 -3z" />
    <glyph glyph-name="H" unicode="H" horiz-adv-x="573" 
d="M347 121q-9 23 -11 42t-4 63q-2 42 -2 43v1l1 2q0 6 -9 6q-5 0 -14.5 -2.5t-11.5 -2.5q-14 -3 -38 -5q-59 -4 -66 -8t-7 -15q0 -8 -3.5 -24t-3.5 -25q0 -15 -2 -17q-4 -3 -10 -48q-3 -29 -3 -35q0 -7 1 -10q1 -6 -3 -10t-6 -12q0 -1 -3 -14l-5 -23q-2 -12 -3.5 -17.5
t-3.5 -9.5t-3 -5t-5 -4q-10 -6 -11 -6q-2 0 -12 12t-15 21q-6 10 -12 29t-6 25v8q0 66 -6 86q-3 10 -3 14q0 6 -2 12q-11 35 -12 120v34q0 22 1 34.5t2.5 30t2.5 39.5q1 29 8 80q2 12 5.5 33.5t3.5 26.5q1 13 8 29q5 10 5 15q0 10 9 16t22 6h17q19 0 33 -24q9 -15 10 -48
q0 -19 4 -33q5 -15 5 -40q0 -7 -2 -41q-1 -11 -1 -26q0 -14 3 -32q4 -23 2 -26l-1 -1v-2q0 -5 10 -5q8 0 24 4t17 4q8 0 23 5l-2 18q-3 22 -3 49q0 37 9 59q1 4 4.5 40.5t5.5 41.5q3 7 3 20q0 6 2.5 11t1.5 10t2.5 7.5t3.5 5.5q0 8 15 23q5 5 16 5q10 0 10 3q0 1 6 1t12 0.5
t7 0.5q8 5 16 -3q7 -7 25 -12q11 -4 18 -6.5t11.5 -7t6.5 -7t7 -10.5t9 -13q10 -16 22 -21q18 -8 18 -34q0 -5 -2 -39q-4 -43 -8 -48q-2 -4 -2 -24q0 -26 3 -41q2 -7 5 -15.5t4.5 -15t2.5 -19.5q1 -27 15 -46q6 -10 9 -21q2 -10 2 -13q0 -6 -7 -55q-1 -11 -5 -28.5t-5 -23.5
q-2 -12 -3 -12t-3 -17q-7 -78 -69 -82q-8 -1 -18 -3t-14 -2q-10 0 -22 12q-18 18 -26 42z" />
    <glyph glyph-name="I" unicode="I" horiz-adv-x="505" 
d="M379 180q0 -3 3 -6q1 -1 3 -10q6 -45 6 -65q0 -15 -4 -25q-3 -5 -3 -12q0 -6 -3 -6q-2 0 -4 -19q-2 -16 -9 -40t-14 -34q-5 -8 -19 -18q-13 -9 -26 -7q-15 2 -27 15q-11 11 -16 11q-2 0 -17 -5q-7 -3 -18 -3q-7 0 -20 1.5t-20 1.5h-19l-11 12q-11 12 -18 42q-1 4 -1 19
q0 31 5.5 74.5t12.5 55.5q2 4 2 8t8 16q11 15 13 22t2 28q0 17 2 24.5t2 10.5q0 2 -0.5 4.5t-1 7t-0.5 8.5q-5 43 -13 62q-5 13 -5 16q1 6 -3.5 10.5t-11.5 4.5t-9 2t-27 2q-27 0 -33 4q-16 10 -23 32q-6 22 -6 43q0 7 1 8q2 4 6.5 26.5t7.5 29.5q3 5 5 15q4 19 26 41
q27 27 40 27q5 0 28 2.5t29 2.5q12 0 24 6q24 12 49 12q16 0 26 12q15 17 36 17q5 0 23 -4q11 -3 15.5 -5.5t9.5 -9t7 -8.5q6 -6 11.5 -25.5t5.5 -29.5q0 -6 -2 -6q-1 0 -1 -10q0 -17 -9 -55t-13 -38q-2 0 -2 -4q0 -5 -14.5 -28t-24.5 -32q-5 -5 -8 -9.5t-5 -10.5l-3 -9
q-1 -3 -2.5 -13t-2.5 -14q-4 -20 -2 -28q2 -7 2 -31t-2 -30q-1 -3 -1 -9q0 -7 3.5 -19.5t3.5 -14.5q2 -16 8 -21.5t22 -5.5q9 0 17.5 -4.5t8.5 -11.5zM386 687q8 -1 10 -8q2 -8 0 -12q-3 -5 -12 -7q0 3 -3 3t-7 4t-4 8q0 12 16 12zM272 692q3 6 8 6q4 0 9 -5q4 -4 4 -9
q0 -13 -13 -13q-6 0 -10 4q-2 2 -2 5q0 6 4 12zM441 131q5 -1 6.5 -5t-2.5 -8q-4 -3 -7.5 -1t-3.5 8q0 7 7 6z" />
    <glyph glyph-name="J" unicode="J" horiz-adv-x="535" 
d="M472 403q0 -18 -2 -39.5t-2 -31.5q0 -6 2 -30q1 -7 1 -20q0 -21 -6 -67q-2 -12 -2 -24q0 -7 2 -10q12 -26 14 -121q0 -5 2.5 -15.5t2.5 -16.5q0 -1 -0.5 -3t-0.5 -3q-2 -10 -2 -19q-1 -21 -24 -65q-11 -21 -25 -30q-29 -19 -32 -19q-2 0 -19 -7q-18 -6 -21 -6t-11.5 -3.5
t-11.5 -3.5q-7 0 -13 -2q-14 -4 -63 -4h-52l-34 9q-11 2 -17.5 4t-12.5 4t-9 2.5t-7 3t-5.5 3.5t-6.5 5t-8 6q-13 9 -20 18q-24 30 -25 36q0 3 -4 27q-5 35 -5 45q0 11 3 28.5t4 28.5q1 10 3.5 23t2.5 24q0 12 2 14q1 1 5 27t6 30q3 1 3 7t4.5 18t8.5 16q6 6 27 6
q13 0 19 -3t13 -3q10 0 21 -21q6 -12 19 -20q19 -12 36 -27q10 -10 14 -10q5 0 14 -7q24 -16 40 -16q11 0 11 31q0 11 -2 17q-1 1 -3 31q-2 27 -6 40q-2 6 -2 13q0 3 -11 31q-12 27 -13 50q-2 22 0 24t2 10q0 19 3 65t5 55q12 50 16 60q3 6 3 11q0 3 7 15.5t15.5 27
t11.5 20.5q9 16 22 16q9 0 9 -2q0 -1 7 -3.5t15 -5t9 -3.5q11 -6 25 -24q2 -3 6 -11.5t6 -15t1 -6.5q2 -7 5 -15q22 -60 20 -96q0 -14 4 -27q6 -17 6 -46z" />
    <glyph glyph-name="K" unicode="K" horiz-adv-x="587" 
d="M515 725q7 0 11 -4q5 -5 5 -13q0 -2 -0.5 -8t-0.5 -10q-2 -30 -2 -41q0 -9 -2.5 -16t-2.5 -12q0 -3 -1.5 -11t-1.5 -11q0 -5 3 -10q4 -6 1 -11q-2 -7 -4 -30q-3 -50 -17 -64q-32 -30 -39 -30q-2 0 -3 -3q-5 -10 -51 -36q-1 0 -6 -3t-7 -4.5t-4 -4.5t-2 -7t1 -6
q4 -10 4 -13t4 -7t9 -16q7 -16 36 -44q19 -18 19 -46q0 -17 -4 -34q-2 -10 -4 -18t-3.5 -11t-2.5 -9.5t-2 -18.5q-5 -60 -10 -69q-2 -4 -5.5 -17t-8 -18.5t-14.5 -7.5q-2 -1 -8 -1q-38 0 -74 43q-35 40 -81 82q-11 11 -27.5 22.5t-20.5 11.5q-1 0 -1 -11q0 -26 3 -35
q6 -17 9 -75l2 -33q-12 -10 -29 -28q-16 -17 -21 -16q0 2 -3 -1q-10 -8 -27 -8q-1 0 -3.5 0.5t-3.5 0.5q-14 4 -29 27t-17 45l-19 109q0 1 -3.5 41.5t-3.5 51.5q0 3 1.5 12t1.5 19q2 67 6 78q3 5 15 71q5 33 7 36q3 6 3 12q0 24 16 80.5t26 67.5q3 3 9 3q12 0 22 -8
q7 -5 16 -21t10 -26q2 -10 8 -25.5t9 -27.5q8 -23 12 -23q11 0 31 16q23 20 54 43q10 8 54 33q30 18 39 27q22 21 52 36l22 10l17 11q21 14 31 14z" />
    <glyph glyph-name="L" unicode="L" horiz-adv-x="655" 
d="M541 335q2 1 8 1q13 0 28.5 -5.5t19.5 -12.5q4 -5 4 -19q0 -25 -9 -31q-25 -16 -25 -61q0 -23 1 -23q1 -1 1 -7q0 -16 -4 -28q-3 -8 -5 -29q-2 -16 -9 -22q-26 -19 -70 -19q-21 0 -39.5 -2t-34.5 -2q-21 0 -37 -7q-37 -16 -82 -16q-27 0 -51 7q-6 2 -15.5 5t-11.5 3
q-4 1 -8 3t-9 2q-7 0 -10 3q-8 8 -38 13q-28 5 -38 16q-5 5 -7 5q-4 0 -12 10t-11 18q-3 11 -10 16q-13 9 -13 25q0 9 6 15q8 8 9 10q1 1 1 7q0 32 -9 50q-8 18 -8 39q0 8 2 22q2 10 4.5 16t3.5 12t2 24q1 20 5 43q2 12 2 15q0 4 -1.5 18t-1.5 27q-1 36 -5 43q-4 12 -4 18
q0 9 6 14q3 3 10 12t9 12q3 3 3 5t21.5 13t33.5 15q9 4 19 4q2 0 6.5 -0.5t7.5 -0.5l14 -1q4 -1 5.5 -2t6 -3.5t8.5 -4.5q25 -13 50 -49q13 -19 15.5 -26.5t4.5 -31.5q2 -31 3 -35q4 -25 4 -37q0 -4 -1 -18t-1 -31q0 -34 -6 -48q-7 -15 -8 -39q-1 -15 -2.5 -22.5t-5.5 -18
t-6 -17.5q-3 -12 -3 -17q0 -4 3 -4q4 0 10 5q7 6 20 12.5t20 11.5q21 15 23 16q41 22 49 36q4 8 4 11q0 5 6.5 8t16.5 5t14 4q7 3 32.5 6t32.5 5q12 4 20 4q14 0 36 5z" />
    <glyph glyph-name="M" unicode="M" horiz-adv-x="721" 
d="M568 619l4 -8t2.5 -7t2.5 -14q1 -13 6 -25.5t7 -18.5q5 -15 17 -34t12 -23q0 -3 6 -13q4 -6 7 -17t6 -17q4 -8 4 -24v-16q-1 -22 -1 -50q0 -27 4 -47q4 -28 4 -29q0 -5 -1 -8q-2 -12 1 -26t9 -58.5t8 -55.5q1 -6 1 -17q0 -9 -4 -31q-1 -5 -9 -26l-5 -15q-6 -1 -13 -1
q-6 0 -18 13q-5 6 -9 10q-23 24 -25 33q-2 7 -7 14t-7 10q-4 7 -10 31t-6 31q0 6 -7 25q-18 51 -18 75q0 9 -2.5 22t-4.5 14q-4 3 -7 -6q-2 -5 -2 -12q-3 -37 -11 -52q-5 -8 -5 -12t-7 -14q-12 -21 -12 -30v-2l2 -4v-3q0 -17 -7 -26q-3 -3 -3 -6q0 -2 -9.5 -13t-10.5 -10h-1
q-5 0 -13.5 -6.5t-10.5 -12.5q-10 -23 -39 -30q-18 -5 -27 -2q-18 5 -32 32q-40 74 -38 81q0 6 -8 30q-23 68 -25 79q-2 17 -11 36.5t-15 19.5q-5 0 -5 -17q0 -9 -4.5 -24t-7.5 -15q-1 0 -5 -12q-3 -12 -3 -31v-20q0 -6 0.5 -15.5t0.5 -12.5v-11l-1 -2q-2 -2 -4 -12
q-2 -22 -18 -40q-6 -8 -6 -13q0 -8 -19 -20.5t-37 -17.5q-5 -1 -6 0.5t-4 8.5q-5 10 -5 13q0 2 -6 12q-4 6 -7 16.5t-5 19t-4 22.5t-3 18q-2 17 -10 43q-8 27 -8 57q0 7 -2 14q-7 23 -7 80q0 14 1 17q3 16 4 33q4 46 15 67q6 11 13 34t14.5 50.5t11.5 39.5q4 17 7 20t25 3
q14 0 14 -2t3 -2t8 -5q21 -20 46 -40t50 -45q9 -9 22.5 -31.5t15.5 -30.5q1 -5 6 -18t7 -15t2 -4q0 -22 21 -37q10 -8 13.5 -7t7.5 12l9 27q6 18 6 26q0 7 3 14.5t4 17.5q3 22 15 49q12 29 26 44q4 5 17 22t19 23q12 9 33 16h2q2 1 3 1q14 0 29 -9q16 -9 21.5 -14.5
t12.5 -19.5q3 -6 7 -11z" />
    <glyph glyph-name="N" unicode="N" horiz-adv-x="635" 
d="M397 175q-10 13 -39 40q-3 2 -40 49q-1 2 -8.5 12.5t-11.5 16.5q-14 20 -18 20t-7 -15q-2 -16 -2 -25q0 -6 -3.5 -15t-3.5 -13q0 -6 -5 -13q-10 -18 -10 -31t1 -23v-9q0 -12 -10 -47q-3 -9 -7 -16t-10 -13.5t-10 -10.5t-12.5 -11t-12.5 -10q-24 -21 -48 -23q-10 -1 -13 5
q-4 10 -22 3q-7 -3 -10 -1.5t-3 9.5q0 9 -5 19q-7 15 -12 92q-2 14 -5 22.5t-5 18.5q0 2 -5.5 22.5t-5.5 30.5q0 6 1 9q3 18 3 44q0 34 5 49q11 31 12 68q1 18 4 37.5t3 46.5q1 35 6 49q12 30 16 48q15 60 35 89q3 5 8 5t12 -5.5t9 -10.5q2 -7 6 -7q1 0 17 -7q13 -6 23 -24
q5 -8 17 -25q13 -24 30 -45q4 -4 4 -7t15 -24q48 -71 56 -85q1 -3 19 -23t20 -24q1 -3 5 -3q4 1 4 18q0 4 -10 104q-2 17 -3 19q-3 6 -3 13q0 11 -3 35t-3 40v29q14 14 14 17q0 1 3 1q2 0 14 8q14 9 41 9q21 -4 42 -10t26 -7q32 -7 40 -20q6 -10 6 -12t2 -6q4 -9 10 -34.5
t6 -36.5q0 -7 5 -24.5t8 -22.5q5 -7 5 -49q0 -18 -2 -22t-1 -29v-11q0 -12 -3 -21t-3 -26v-9q0 -41 -11 -65q-8 -18 -8 -40q0 -16 5 -39q5 -21 5 -48v-100l-7 -14q-4 -8 -19 -30q-9 -14 -39 -17l-18 -2l-15 16q-17 19 -17 20q-2 5 -12 19q-18 25 -22 43q-2 14 -5 20
q-5 10 -5 17q-1 15 -10 28z" />
    <glyph glyph-name="O" unicode="O" horiz-adv-x="704" 
d="M568 190q-24 -24 -30 -37t-26 -33q-19 -19 -40 -26q-23 -7 -28 -7q-10 0 -12 -2t-53 -2h-20q-39 0 -58 4.5t-42 18.5q-18 10 -60 22q-5 1 -12 4t-8 3q-21 8 -45 51q-13 24 -25 37q-11 12 -18.5 23t-10.5 17.5t-9 20t-10 21.5l-6 11v68q0 59 3 77q3 14 13 30t17 17
q1 0 3 0.5t5.5 1.5t5.5 1q9 1 25.5 12t20.5 13q7 4 17 11.5t18 11.5q10 4 21 14.5t13 16.5q3 8 16 23t32 24q17 7 24 7t19 5q19 8 53 8q13 0 15 -3q3 -5 22.5 -13t23.5 -11q17 -12 23 -14q14 -6 22 -14q11 -11 14 -13q11 -5 23 -15t12 -14q0 -2 6 -14.5t6 -15.5q0 -7 13 -20
q10 -10 22.5 -29.5t13.5 -27.5q0 -3 3 -12q6 -17 6 -38v-8q-1 -17 7 -28q11 -16 11 -38q0 -11 -3 -22q-1 -3 -1 -9q0 -7 3.5 -20.5t3.5 -16.5v-6q0 -10 -7 -24q-9 -18 -32 -41zM251 415q0 -6 3 -15q11 -22 11 -43q0 -6 -1 -8q-4 -8 -4 -17q0 -40 30 -43t59 -18q11 -6 20 -6
q8 0 32 8q17 6 19 4q6 2 6 16q0 7 -12 49q-5 15 -17 39q-14 28 -14 31q0 1 -5 13q-5 11 -7 23t-5.5 20.5t-13.5 17.5q-27 24 -62 31q-11 2 -27 -9v-22q0 -23 -5 -32q-5 -8 -5 -16q0 -5 -1 -12.5t-1 -10.5zM641 293q4 4 7 -5q1 -6 -2 -8t-6 3q-4 5 1 10z" />
    <glyph glyph-name="P" unicode="P" horiz-adv-x="565" 
d="M388 326q-11 0 -33 -15t-32 -18q-21 -7 -40 -7q-22 0 -25 3q-6 3 -12 3q-9 0 -9 -6q0 -4 3 -16.5t3 -15.5q0 -2 1.5 -8t1.5 -9q3 -13 3 -22q0 -12 -7 -26q-8 -17 -8 -34t2 -39q2 -18 -5 -27q-11 -13 -35 -16h-9q-9 0 -15.5 2t-10 4t-10 6.5t-11.5 7.5q-39 23 -45 88
q-1 7 -1 16t3 18t6 14.5t5 13.5q2 6 2 25q0 30 -5 47q-2 12 -2 19q0 10 3 37v5q0 8 -10 27q-2 5 -5 10.5t-5 8.5l-2 4q-6 9 -6 36q-3 80 -10 87q-4 4 -8 35.5t-4 53.5q0 21 7 35q16 33 40 33q3 0 13 -2q6 -3 19 7q22 15 40 15q16 0 32 -8q18 -9 20 -11q27 -19 30 -19
q2 0 5 -3q4 -4 20 -6q18 -3 27 -8.5t35 -28.5q4 -3 27 -20t32 -28q6 -6 18 -10q17 -5 28 -20q5 -6 24 -22.5t25 -28.5q13 -33 11 -47q0 -2 1 -15.5t1 -20.5q0 -8 -1 -10q-5 -23 -34 -50q-22 -20 -58 -31q-14 -4 -17 -8q-5 -5 -13 -5zM325 431q0 3 -3.5 16.5t-3.5 15.5
q0 6 -4 21q-6 18 -14 27t-24 13q-15 4 -18 7q-12 12 -33 12q-11 0 -15 -5q-2 -4 -2 -5q0 -3 12 -28q9 -18 9 -33v-10q0 -25 1 -27q5 -5 20 -11q16 -7 34 -7q17 0 27 7q11 7 12 6l1 -1q1 1 1 2z" />
    <glyph glyph-name="Q" unicode="Q" horiz-adv-x="632" 
d="M491 20q-9 -1 -26 5q-27 10 -53 37q-15 15 -18 15q-1 0 -11 8t-11 8q-2 0 -11 -7q-8 -6 -21 -10q-12 -3 -35 -3q-10 0 -10 1q0 2 -24.5 14t-34.5 14q-13 3 -42 32q-24 24 -46 55q-2 3 -5 6.5t-5 6t-2 3.5q-3 6 -7 10t-17 29t-13 29q0 5 -11 31q-18 41 -20 68
q0 11 -5 41.5t-6 38.5q-1 6 -1 17q0 57 40 62q17 1 25 8.5t26 34.5q6 10 15 19t14 26q17 61 49 61q5 0 8 -1t7 -1q6 0 23 9q34 16 42 16q10 0 19 -5q10 -6 16 -9q7 -3 14 -8.5t16 -10.5q35 -20 35 -26l8 -10q11 -14 38 -61q12 -18 17 -28q4 -7 7 -9q4 -2 12.5 -16.5
t9.5 -22.5q3 -16 21 -48q3 -6 9.5 -15t9.5 -14.5t5.5 -16t2.5 -24.5t4 -37.5t7 -29.5t-6 -26q-12 -28 -12 -43q0 -27 -7 -27q-1 0 -5 -6q-7 -11 -24 -25q-5 -3 -5 -6q0 -4 10 -9.5t12 -7.5q11 -11 17 -16q11 -9 11 -11q5 -6 11 -13q18 -19 18 -33q0 -9 -3 -22
q-2 -8 -8.5 -17.5t-12.5 -10.5q-8 -3 -15 -7q-14 -9 -46 -12zM198 459q7 -25 15 -33q2 -2 8 -13t10 -21.5t3 -10.5q0 -4 3 -13q5 -19 11 -63q4 -23 6 -25q1 -1 4 -1q5 0 19 2.5t17 2.5q15 0 19 -5q8 -13 17 4q6 10 31 48q16 25 20 47q2 10 3 10q2 0 2 7q0 10 -4 37.5
t-4 30.5q0 11 -20 21q-8 4 -15 4t-22 -4q-14 -3 -28 -3q-6 0 -19.5 0.5t-20.5 0.5q-14 0 -21 -1l-28 -3q-2 -1 -4.5 -9t-1.5 -10z" />
    <glyph glyph-name="R" unicode="R" horiz-adv-x="587" 
d="M367 143q-6 8 -14.5 18t-10.5 13t-9 12t-9 12q-5 5 -10 13t-7.5 13.5t-1.5 5.5q5 0 -11 14l-6 4q-5 3 -23 21l-14 15h-21q-27 0 -36 -3v-19q0 -4 -0.5 -20t-0.5 -24q0 -30 2 -36q13 -48 13 -57q0 -5 2 -9t2 -8q0 -3 5.5 -10.5t4.5 -11.5q-6 -24 -17 -33.5t-38 -9.5
q-26 0 -37 -10q-4 -4 -9 -4q-3 0 -5.5 2t-4.5 6l-3 7q-2 3 -3.5 8.5t-2.5 7.5q-10 26 -15 49q-5 19 -15 28q-11 11 -18 42q-1 4 -1 21q0 68 7 77q8 11 8 37v9q0 95 5 103q1 1 1 9q0 19 -6 34q-5 11 -5 35q0 19 4 26q14 22 23 52q3 9 13.5 22.5t18.5 18.5q6 5 17 5
q16 0 24 -11q3 -5 15 -3q33 3 78 3q25 0 57 -5.5t42 -11.5q26 -17 35 -37q14 -26 23 -74l5 -25l-5 -9q-6 -10 -7 -10q-2 0 -1 -12l2 -13l-12 -10q-19 -18 -28 -52l-2 -10q-1 -5 -2 -7.5t-1 -3.5q0 -4 7.5 -11.5t14.5 -9.5q11 -4 26 -15t17 -11q1 0 15 -6q27 -12 47 -48
q6 -12 11 -17q5 -3 7 -14q1 -3 14 -34q11 -23 11 -41q0 -16 -4 -24t-19 -22q-21 -21 -35 -21q-2 0 -6 2q-19 12 -37 12q-13 0 -16 3q-2 2 -16 12q-22 16 -26 39q-1 4 -6 12zM160 492q2 -6 10 -6q7 0 19 4q13 4 42 4q21 0 28 -2q16 -5 24 -5q5 0 6 2q3 4 -4 12l-7 8h-27
q-15 0 -20 0.5t-10 3t-12 4.5q-14 5 -26 -1q-2 -1 -8 -3.5t-8 -3.5q-11 -4 -7 -17z" />
    <glyph glyph-name="S" unicode="S" horiz-adv-x="568" 
d="M477 338q10 -12 29 -54q8 -19 8 -41q0 -20 -10 -51q-10 -30 -15 -32q-6 -3 -14 -11t-11 -14q-2 -3 -4 -17q-3 -18 -32 -33q-10 -5 -16 -10q-6 -7 -11 -8q-12 -6 -42 -6q-1 0 -9 0.5t-21 0.5h-27q-52 0 -55 3t-12 3q-26 0 -66 14q-5 2 -46 21q-24 10 -33 17.5t-17 24.5
q-16 32 -19 61v7q0 39 25 51q4 2 11 2q23 0 30 -7q2 -4 6 -4q2 0 26 -11.5t27 -11.5q30 6 39 6l2 -1q2 -5 26 4q14 5 54 5q37 0 37 -2t7.5 -3t9.5 1l-2 6q-1 7 -3 14l-2 7q0 3 -4 10q-10 18 -47 34q-18 7 -27 16q-11 9 -19 12q-32 13 -43 24t-18 27q-3 10 -7.5 16.5
t-7.5 12.5l-12 24q-8 17 -8 60q0 8 5.5 26.5t9.5 23.5q3 6 3 27q1 51 16 80q10 18 32 23q14 3 30 14q19 13 31 13q10 0 19 -4q22 -8 32 -8q5 0 6 1q12 6 18 6q5 0 17 -5q15 -8 22 -16q10 -12 17 -17q10 -7 14 -14q9 -13 49 -56q16 -18 16 -34v-11q-1 -16 -6 -21.5t-26 -12.5
q-19 -6 -85 -7q-33 0 -44 -6l-11 -5l-1 -15q0 -1 -0.5 -4t-0.5 -4q0 -6 2 -15.5t2 -16.5q0 -10 8 -16q5 -3 20 -11.5t21 -13.5q4 -4 15 -11t16 -12q3 -3 15 -8q11 -4 32.5 -17t28.5 -20z" />
    <glyph glyph-name="T" unicode="T" horiz-adv-x="567" 
d="M428 337q0 -4 2 -20t3 -30.5t1 -20.5q-1 -1 -1 -43q0 -41 -5 -52q-10 -17 -20.5 -23t-33.5 -8q-40 -3 -45 -13q-3 -8 -8 -6q-2 1 -2 3q0 8 -20 8q-6 0 -13 7q-35 35 -44 37q-3 1 -9.5 10t-9.5 17q-3 7 -3 63q0 39 1 60q0 8 0.5 18.5t0.5 13.5q0 18 -3 27q-14 49 -14 70
q0 6 2 18q3 13 3 18q0 6 -11 6h-8q-17 0 -57 6q-35 5 -50 15q-28 19 -28 54q0 27 14.5 48.5t36.5 21.5q9 0 16 -3q10 -5 21 -5q8 0 11 2q13 6 41 7t37 3q64 -12 85 -13q96 -8 99 -8q11 0 16 1l19 3q13 -15 19 -17q9 -2 20 -10q12 -8 16 -20q4 -11 4 -22q0 -12 -7 -22
q-11 -16 -52 -24q-38 -8 -48 -13q0 -6 2 -12q1 -4 1 -12q0 -11 -2 -20l-4 -21l7 -15q7 -14 7 -18q0 -2 2 -12q10 -43 11 -54z" />
    <glyph glyph-name="U" unicode="U" horiz-adv-x="606" 
d="M522 419q9 -21 10 -48q2 -29 3 -30q3 -6 3 -10t7 -20q7 -15 7 -29q0 -5 -2 -19q-9 -37 -15 -37q-3 0 -8 -11q-7 -11 -8 -29q-1 -15 -8.5 -31t-13.5 -19q-6 -2 -20 -23q-15 -22 -21 -23q-25 -5 -34 -18q-10 -13 -33 -24q-7 -4 -31 -4l-99 8q-3 1 -15 3q-10 1 -34.5 11
t-32.5 16q-30 24 -66 77q-31 48 -33 63q0 6 -8 28q-11 33 -13.5 51.5t-2.5 71.5q0 63 2 81q8 72 11 79q1 2 4 21q2 26 15 59q8 12 14 17q11 10 18 10q6 0 16 -6q35 -20 58 -47q3 -4 10 -4q4 0 6.5 -5t4.5 -5q4 0 4 -4t2 -9t4.5 -11t3.5 -8q0 -1 3 -17q4 -25 5 -37
q3 -27 7 -32q5 -5 5 -18q0 -17 3 -27t3 -68q0 -54 4 -77q3 -20 5.5 -23t21.5 -3h8q9 0 12.5 3t13.5 17q3 4 16 12t16 13q7 12 13 19q5 5 7.5 9.5t4.5 10.5t5 11q4 7 4 19q0 2 -0.5 9t-0.5 13q0 5 -0.5 11.5t-0.5 9.5q0 11 5 39q3 14 6 35.5t6 35.5q2 7 2 17v8q0 10 4 18
q6 14 6 16q0 3 9 12q10 9 13 20q3 7 4 10t3 5t4 2.5t6 0.5q9 0 12 -10q4 -16 12 -16q14 0 21 -46q1 -8 3.5 -12.5t3.5 -10.5q9 -44 10 -54q1 -26 10 -47z" />
    <glyph glyph-name="V" unicode="V" horiz-adv-x="628" 
d="M501 243l-9 -12q-7 -7 -9 -17q-4 -19 -25 -27q-16 -6 -19 -9.5t-7 -23.5q-4 -26 -4 -28q0 -12 -12 -26q-5 -9 -26.5 -16.5t-39.5 -7.5h-7q-6 1 -26 10q-28 13 -31 40q-1 12 -5 19t-24 27q-41 44 -42 55q0 1 -4 11t-4 12q0 3 -13.5 27t-21.5 36q-14 19 -14 23q0 5 -8 23
q-25 55 -27 77q0 2 -10 20q-20 35 -41 74q-6 10 -6 23q0 12 -4 19q-7 10 -7 41q0 15 3 19q8 15 9 26q1 8 7 9q2 0 10 -2t9 1q6 4 21 -5q8 -5 12 -5q2 0 23 -9.5t22 -9.5q2 -1 12 -8q27 -21 36 -33q3 -5 11 -13t9 -10q18 -20 18 -25q0 -1 31 -34.5t31 -34.5q0 -3 4.5 -11.5
t4.5 -11.5q0 -1 5 -9t5 -9q0 -2 5 -19q5 -16 5 -35q0 -12 2.5 -23.5t2.5 -22.5q0 -12 7 -35q5 -21 12 -22q10 0 16 14t6 27q0 7 4 13q6 10 22 84q3 17 8 24q1 2 8 27q3 13 10 30.5t9 25.5q5 19 6 20q14 32 17 43q4 13 25 26t38 13q4 0 17 -12t14 -18q1 -3 1 -9q0 -9 -4 -29
t-4 -30v-13q0 -27 -11 -44q-6 -11 -6 -38q0 -60 -12 -81q-5 -7 -5 -10q0 -2 -7 -12q-8 -12 -9 -29q-5 -41 -14 -60z" />
    <glyph glyph-name="W" unicode="W" horiz-adv-x="772" 
d="M468 475q0 -5 3 -6q3 -2 18.5 -22.5t21.5 -30.5q22 -36 22 -43q0 -4 2 -5q3 -1 10 -20.5t10 -19.5l1 1q1 1 3 24q2 24 7 42q10 42 10 98q0 4 -0.5 10t-0.5 8q-1 9 -1 19t6 21q5 10 8 22q2 7 5 13t6 16q14 39 38 61q15 14 24 13q8 -1 26 -26q16 -21 29 -78q4 -16 4 -59
q0 -27 -2 -28q-2 -2 -2 -17q0 -37 -4.5 -71.5t-4.5 -69.5q0 -20 -0.5 -30t-1 -13.5t-2.5 -10.5l-5 -14q-2 -6 -2 -16q0 -12 1 -21q1 -6 1 -19q0 -56 -39 -62l-9 -1l-1 -13q-1 -10 -9 -21q-7 -9 -10 -9q-2 0 -14 -6q-8 -4 -16 -4q-12 0 -31 13q-14 10 -38 32.5t-25 26.5
q-2 8 -8.5 16.5t-10.5 8.5q-2 0 -12.5 17t-18.5 34q-15 30 -22 37q-5 5 -11 21q-19 53 -39 53h-2q-4 -1 -6 -20q-3 -33 -3 -41q0 -20 -4 -36q-3 -14 -3 -19q0 -8 4 -25q3 -15 3 -30v-10l-1 -20l18 -18l-4 -12q-3 -11 -7 -17t-19 -12.5t-25 -6.5q-11 0 -25.5 5.5t-19.5 11.5
q-6 6 -13 10q-14 7 -29.5 21.5t-15.5 20.5q0 4 -8 20q-10 19 -17 40q-10 29 -14 35q-1 2 -2 4.5t-1 4.5v1q1 0 -0.5 2.5t-5.5 9.5q-6 8 -10 28q-2 11 -16 38q-12 24 -12 26q0 1 -4 35q-3 25 -5.5 32t-12.5 22q-9 13 -9 16q0 4 -5 11q-29 43 -29 61q0 2 -5.5 15t-5.5 16
q0 2 -2.5 5t-2.5 6q0 5 -5 15q-4 9 -4 19q0 2 0.5 7t0.5 10q1 34 9 42q4 4 4 5q0 2 14 11q13 10 24 10q9 0 22 -7l16 -8q2 -1 5 -3t5.5 -5t6.5 -7q4 -6 21 -21t21 -23q9 -15 24 -39q3 -5 7.5 -16t11.5 -18q9 -9 11 -18q12 -42 17 -50q4 -5 4 -12q0 -4 3 -8q1 -1 12 -21
t13 -22h1q5 0 14 33l6 26q0 10 -1 18q0 4 -0.5 10t-0.5 9q0 42 27 65q4 4 17 4q22 0 31 -9q1 -1 10 -7q6 -3 17.5 -17t16.5 -26q15 -32 15 -36q0 -1 3.5 -5.5t3.5 -6.5z" />
    <glyph glyph-name="X" unicode="X" horiz-adv-x="565" 
d="M467 84q-6 6 -15 12q-21 15 -82 85q-9 10 -17 21q-3 6 -13.5 13.5t-14.5 7.5q-2 0 -31 -27q-28 -27 -36 -30q-10 -3 -28.5 -20t-25.5 -29q-3 -6 -5.5 -8t-4 1t-1.5 9q0 7 -4 13.5t-10 6.5q-2 0 -12 -12q-5 -8 -14.5 -18.5t-13.5 -15.5q-3 -6 -6 -7t-16 -2q-20 0 -23 1
q-11 3 -12 50v9q0 20 3 31.5t11 27.5t12 27q11 30 17 36q8 8 13 22q4 10 8 17t9 17q13 30 34 49q11 11 11 15q0 3 -10 14t-10 12q0 2 -29 31q-27 27 -44 52q-7 9 -7 16q0 12 -13 25q-14 13 -25 51q-5 23 -5 49q0 16 1 22q3 21 29 24q40 4 50 4q14 0 18 -2q12 -3 13 -3
q7 0 8 -4q2 -5 16 -16q4 -3 8 -6.5t9 -8t7 -5.5q5 -4 11 -8.5t11 -8t9 -9.5q2 -2 6.5 -7t13 -13t13.5 -13q24 -23 27 -23q1 0 2 1t19 35q36 71 60 83q16 10 22 10q9 0 21 -8q22 -14 24 -41q3 -16 5 -23q10 -33 10 -59q0 -20 -3 -26q-4 -8 -4 -10t-4 -10q-3 -7 -7 -21
q-2 -6 -15.5 -43.5t-15.5 -48.5q-3 -14 1 -22q15 -27 27 -70q15 -51 20 -62q5 -12 9 -24.5t7 -21.5q6 -15 5 -27q0 -2 -0.5 -4.5t-0.5 -3.5q0 -13 12 -29q8 -13 8 -18t-11 -18q-2 -2 -6 -7.5t-7.5 -8.5t-7.5 -3q-5 0 -10 5z" />
    <glyph glyph-name="Y" unicode="Y" horiz-adv-x="572" 
d="M432 353q-3 -3 -5 -22q-5 -26 -24 -87q-13 -45 -15 -55q-5 -31 -16 -46q-3 -5 -3 -9q0 -1 -4.5 -11.5t-4.5 -12.5t-10 -14q-12 -14 -13 -21q-4 -13 -23.5 -27.5t-31.5 -14.5q-4 0 -7.5 4t-3.5 8q0 9 -16 40t-18 40q-4 16 -4 48q0 24 2 32q4 21 9.5 38.5t6.5 21.5
q14 70 14 76q0 8 -12 18.5t-21 12.5q-11 4 -27 13q-7 4 -36 31.5t-29 29.5q0 1 -7 10.5t-7 11.5q0 4 -7 18q-6 12 -13 29t-12 28q-9 18 -9 20t-4 6q-4 5 -6 37q-2 23 -4 26q-11 20 -14 40q0 6 2 13t3 12q6 38 9 47t12 15q8 5 11 5q6 0 26 -10q5 -3 22.5 -9t23.5 -12t18 -13
q42 -26 60 -48l15 -15q35 -35 51 -47q6 -5 10 -9.5t8.5 -11t8.5 -11.5q10 -12 10 -14t6 -10t7 -7q2 0 4.5 5t4.5 10.5t3 6.5q4 3 9 20q6 16 19 44t16 32q3 3 3 6q0 4 13 21.5t21 24.5q12 10 17 11h3q21 0 35 -17q7 -7 7 -22q0 -19 -10 -41q-4 -9 -6 -23q-15 -102 -33 -106
q-6 -2 -21 -23q-14 -21 -14 -26t5 -18q7 -20 7 -35q0 -5 -2 -25q-5 -34 -9 -39z" />
    <glyph glyph-name="Z" unicode="Z" horiz-adv-x="780" 
d="M498 43q-61 -9 -66 -9q-31 0 -43 -3t-49 -3t-37 3q0 2 -5 2q-1 0 -3.5 1t-7 2t-7.5 2q-35 11 -54 11q-4 0 -13 5t-11 7q-1 1 -11 7q-29 19 -31 33q-1 5 1 11t4 6q1 0 3 18q1 16 13.5 48.5t15.5 35.5l2 3q2 3 5 9l5 10q39 74 50 82q1 1 11 16.5t10 17.5q7 14 16 30
q17 31 31 45q12 13 30 42t20 39q1 5 -1 6t-16 3q-20 4 -28 4q-43 2 -64 14q-11 7 -20 7q-6 0 -12 -3q-9 -4 -15 -3q-8 1 -22 -12q-11 -10 -14 -12t-14 -2q-15 0 -35 7q-21 7 -25 7q-3 0 -11.5 6t-10.5 7q-5 2 -16 12.5t-13 15.5q-1 2 -3 22q0 4 -0.5 8.5t-0.5 6.5q0 8 4 17
q17 42 32 42q2 0 12 9.5t11 9.5q4 0 27 20q6 3 20.5 6t18.5 4q14 4 41 4q40 0 67 -10q22 -9 88 -12q31 -2 35 -3q8 -3 22 0q36 6 44 6q9 0 21 -4q14 -4 41 -18q24 -9 42 -27q5 -5 8 -13t1 -9q-1 0 -3 -8q-2 -7 -9 -16q-9 -10 -13 -30q-7 -30 -14.5 -46t-30.5 -48
q-35 -49 -35 -52q0 -2 -5.5 -12.5t-13.5 -24.5t-11 -20q-11 -24 -33 -49q-11 -13 -16 -23q-7 -13 -8 -14q-4 -3 -3.5 -9.5t4.5 -8.5q3 -2 14 -2q14 0 26 4q10 4 34 6q34 3 66 26q23 16 61 16q14 0 28 -8q7 -4 17 -8q16 -7 56 -42l2 -2q22 -19 22 -37q0 -4 -4.5 -23.5
t-4.5 -24.5q0 -7 -4 -14t-7 -7q-4 0 -12 -7.5t-12 -16.5q-1 -2 -14.5 -26t-17.5 -36q-9 -25 -9 -28q0 -1 -7 -1q-18 0 -58 5q-19 1 -32 8l-11 6l-11 -6q-13 -7 -24 -8zM177 -69q5 3 8 -2q2 -4 -1.5 -6t-6.5 1q-5 5 0 7z" />
    <glyph glyph-name="a" unicode="a" horiz-adv-x="564" 
d="M333 617q5 -3 9 -5.5t5.5 -3.5t4.5 -5l9 -14q2 -4 12 -12q1 0 17.5 -16.5t24.5 -19.5q8 -4 15 -18l8 -16q0 -10 23 -56q2 -5 6.5 -25t4.5 -27q0 -9 9.5 -39.5t10.5 -44.5q1 -18 -4 -24q-6 -7 -6 -17q0 -7 3 -16q15 -42 15 -63q0 -6 -2 -8q-1 -1 -7 -15q-1 -2 -1.5 -4
t-1 -3t-1 -2.5t-0.5 -2.5q0 -3 14 -16q13 -11 8 -25q-2 -7 -15.5 -19t-23.5 -17q-3 -1 -6.5 -3t-5.5 -3l-12 -4q-4 -2 -15 -2q-23 0 -57 -14q-31 -12 -57 -13q-9 0 -41 -3t-47 -3t-21 3q-5 3 -26 1h-10q-10 0 -23 2.5t-20 3.5q-14 1 -33 13q-18 10 -21.5 13.5t-3.5 13.5v15
q0 19 -4 23q-3 4 -3 17q0 33 10 41q2 2 8 14q16 30 23 38q3 5 7 11.5t6 10t6 8t9 9.5t13 11q19 14 35 14q25 0 37 18q7 10 23.5 18.5t27.5 8.5h4q5 -2 15 2q4 2 11 2q2 0 6 -0.5t5 -0.5q6 0 6 6q0 5 -3 14q-3 8 -3 18q0 2 0.5 7.5t0.5 9.5v13q0 28 -20 61q-7 11 -16 11
q-18 0 -32.5 -23t-19.5 -48q-3 -16 -17 -31l-14 -14h-20q-14 0 -32.5 6.5t-20.5 7.5q-10 2 -23 9q-16 8 -18 8q-3 0 -8 9t-7 16q-9 32 -9 61q0 10 3 13t6 10q8 16 33 29q17 10 20 10q2 0 10.5 7.5t10.5 7.5q1 0 7 8t8 8t10 8q21 22 52 33q19 7 27 7q6 0 18 6q15 7 28 -2
q6 -4 13 -4q17 0 33 -13zM298 203q-9 -4 -12 -4q-11 0 -22.5 -8t-11.5 -19q0 -8 6 -8q2 0 5 1t5 1t11 3q5 3 19 3h13q5 17 5 27q-1 8 -6 8q-4 0 -12 -4z" />
    <glyph glyph-name="b" unicode="b" horiz-adv-x="555" 
d="M378 106q-17 0 -27 2.5t-24 2.5q-4 0 -17.5 1t-18.5 2q-14 2 -17 1t-1 -11t2 -29v-20l-14 -16q-14 -16 -24 -17q-4 -1 -13 -1q-18 0 -45 8q-52 13 -63 20q-16 8 -19 8q-5 0 -5 2t-6 2q-10 0 -18.5 8t-8.5 18q0 9 -3 21q-6 32 -6 49q0 15 4 26q3 12 3 29q0 14 4 28t4 23
q0 4 -2 18l-1 5v11q0 4 0.5 13t0.5 14q0 6 0.5 14.5t0.5 12.5q0 10 -2 28t-2 25v7q8 51 8 110q0 17 -8 40q-7 21 -7 47q0 35 12 67t31 36h3q12 0 27 -9q10 -5 22.5 -17.5t12.5 -16.5q0 -3 9 -12q27 -27 34 -43q4 -9 15 -21q13 -15 13 -17q0 -3 11 -19q20 -31 20 -48v-10
q-1 -20 -5 -24q-3 -2 -3 -5t-11 -21q-12 -18 -12 -21q0 -1 1 -1q3 0 12 6q10 6 14 6q5 0 7 2q6 9 37 10l23 1l18 -9q22 -12 36 -27q20 -20 29 -25t23 -18.5t21 -17.5q6 -4 11 -8.5t11 -8.5q10 -6 13 -13q3 -6 3.5 -13.5t-1.5 -8.5q-3 -2 -6 -9.5t-2 -10.5q10 -18 16 -51
q3 -15 3 -41q0 -27 -3 -33q-2 -5 -8 -11.5t-8 -6.5q-4 0 -10 -6q-14 -12 -29 -12q-4 0 -7 -3q-12 -12 -52 -12h-6zM346 305q-14 5 -29 21q-7 7 -15 7q-6 0 -18.5 -6t-18.5 -7l-12 -2l1 -28q1 -37 11 -58l6 -14l16 -2q26 -3 41 -14q6 -4 18 -2q13 2 21 -3t16 -2q8 4 11 30v6
q0 8 -5 17t-6 15q-6 19 -13.5 27t-23.5 15z" />
    <glyph glyph-name="c" unicode="c" horiz-adv-x="567" 
d="M440 213q10 0 10 -4q0 -3 -14 -14q-7 -6 -4 -12q1 -2 1 -8q0 -13 -7.5 -31t-13.5 -22q-5 -5 -6 -11q-2 -7 -16.5 -27t-21.5 -24q-5 -2 -12.5 -2.5t-9.5 1.5q-6 4 -33 10q-57 12 -66 23h-3q-2 1 -5.5 1.5t-6.5 0.5q-11 2 -26 8t-20 11t-19 10q-10 4 -24 15t-24 15
q-11 4 -17 10.5t-11.5 15t-11.5 14.5q-10 11 -12 22q0 1 -8 20q-5 13 -5 90q0 33 25 63q21 26 21 36q0 2 2 2q3 0 5 13q5 24 31 34q10 4 27 21q16 16 22 20q13 9 31 9q4 0 4 -1q3 -3 10 -3q6 0 26 20l18 19l11 -2q4 -1 19 -5t23 -4h7q20 0 42 -27q3 -4 14.5 -14.5
t15.5 -14.5q15 -15 24 -31q8 -14 5 -23q-10 -34 -39 -34q-17 0 -44 11q-25 10 -31 10q-7 0 -22 -22.5t-15 -32.5q0 -6 -5.5 -19t-6.5 -15l-4 -7q-1 0 -11 -16q-7 -13 -7 -18q0 -3 2 -9.5t3 -12.5q2 -17 18 -19q5 -1 12.5 -4t13.5 -3q5 0 8 1q10 2 11 1q5 0 14 4q11 5 25 1
q17 -5 37 -34q6 -8 9 -9.5t10 0.5q16 3 25 3zM504 517q1 5 5 1q2 -2 0.5 -5.5t-3.5 -3.5q-5 0 -2 8z" />
    <glyph glyph-name="d" unicode="d" horiz-adv-x="608" 
d="M490 388q0 -3 8 -21q9 -19 10 -32q2 -15 9 -27t7 -19q1 -5 10 -39t11 -55q1 -13 5 -31t4 -33v-9q0 -17 -19 -32q-12 -10 -23 -10q-28 0 -47 -20q-14 -15 -23 -15q-7 0 -12.5 4.5t-5.5 9.5v7q-1 6 -1 10q-2 26 -9 26q-4 0 -8 -9q-9 -19 -22 -26q-6 -3 -28 -3q-45 0 -67 8
q-16 5 -20 6q-7 1 -14.5 5.5t-19.5 5.5q-42 3 -65 11q-16 5 -38 27q-23 23 -32 29q-13 8 -20 16q-18 22 -18 47q0 11 -3 20q-5 15 -5 68q0 56 1 57q3 3 9.5 19t8.5 18q3 5 6 20q1 14 12.5 30.5t22.5 19.5q10 4 19 10q14 9 17 10q27 7 44 22q18 18 36 18h4q8 -1 22 -6t16 -7
t16 -10t18 -8h1q1 1 -3 30q-6 37 -6 53q0 7 1 10q2 10 2 16q0 15 11 37q3 7 16 22t20 15q5 0 24 -12.5t26 -21.5q8 -11 23.5 -37t21.5 -35q8 -11 13 -51q2 -20 4 -22t2 -10q0 -3 10 -37q2 -8 6.5 -25t6.5 -22q5 -15 5 -22zM265 319q8 -16 8 -31q0 -4 -2 -26q-1 -5 -1 -13
q0 -13 8 -17t30 -4q24 0 34 5q16 7 16 14q0 3 -2 11q-4 14 -4 21q-4 44 -8 54q-12 31 -12 49q0 7 -3.5 10t-13.5 5q-24 3 -34 3q-12 0 -12 -7q0 -4 1 -7q2 -8 0 -10q-7 -5 -12 -33q-1 -9 7 -24z" />
    <glyph glyph-name="e" unicode="e" horiz-adv-x="502" 
d="M416 368q-9 -18 -29 -22q-7 -1 -11 -11q-7 -15 -26.5 -25.5t-41.5 -10.5q-7 0 -25 -5t-26 -5q-45 0 -51 6q-2 2 -10 2q-6 1 -7.5 -1t-1.5 -7q0 -13 8.5 -30t14.5 -17t42.5 -12.5t45.5 -14.5q6 -1 9 1t10 12q17 23 39 23q13 0 31 -8q12 -6 18 -8q30 -12 39 -34
q4 -16 4 -25q0 -5 -2 -13q-5 -12 -20.5 -26t-25.5 -14q-6 0 -11 -5q-17 -12 -68 -12q-11 0 -25 2q-7 1 -16 -1q-2 -1 -9 -1q-9 0 -25.5 2.5t-35.5 6t-26 4.5q-37 4 -66 19q-20 11 -38 38t-20 52q-6 40 -6 64q0 20 5 48q0 4 0.5 8t1 6t0.5 4q0 16 6 41q0 1 13 20.5t13 21.5
q0 1 6 14.5t6 14.5q0 2 12.5 18.5t14.5 16.5q3 0 9 10q15 24 32 27q12 2 20 5q6 2 22 2q23 0 35 -5q12 -4 18 -1q10 5 34 5h14q14 0 23 -3q14 -5 31 -23.5t20 -31.5q3 -9 12 -21q16 -20 17 -65q0 -30 -3 -36zM268 412q3 -1 20 -8q11 -4 22 -4q10 1 10 9q0 11 -16 29l-10 10
q-2 0 -23 -17q-18 -15 -3 -19z" />
    <glyph glyph-name="f" unicode="f" horiz-adv-x="460" 
d="M400 644q4 1 4 0l-3 -8q-2 -6 1 -20q1 -4 1 -12q0 -16 -7 -27q-4 -5 -17.5 -11t-23.5 -7h-3q-17 0 -47 20l-13 8l-14 -7q-13 -6 -15 -11l-7 -14q-7 -13 -8 -20q-1 -6 -5.5 -12.5t-4.5 -8.5q0 -5 17 -13q14 -6 25 -9q13 -3 21 -15t8 -26q0 -11 -6 -22q-9 -17 -38 -19
q-11 0 -33 -10l1 -14q0 -11 6 -27q5 -18 5 -47q4 -61 13 -82l8 -14q14 -23 30 -38q12 -11 12 -28v-6q-4 -55 -85 -57q-24 0 -24 1q0 5 -28 5q-14 0 -32 35q-11 24 -11 41q0 12 3 27q3 17 3 35q0 11 2.5 25t2.5 25q0 16 3 19q2 2 4 38q2 34 6 51q4 15 2 17q-5 7 -30 7
q-8 0 -8 3q0 2 -7 2q-9 0 -25 9t-16 14l1 1q1 0 -1 4.5t-5 10.5q-6 13 -6 19q0 5 3 16q8 25 27 35q10 5 17 5q6 0 22 -7q13 -6 26 -6l11 1l-1 11q-1 15 -1 42q0 38 3 50q3 13 26 36q20 20 34 27q4 2 18.5 12.5t26.5 10.5q8 0 15 -3q53 -19 60 -22q22 -10 24 -10q9 0 24 -23
q4 -7 9 -7z" />
    <glyph glyph-name="g" unicode="g" horiz-adv-x="484" 
d="M350 505q5 0 11 -6t6 -10t8 -22.5t8 -23.5q0 -14 4 -23q5 -12 5 -19t4.5 -32.5t4.5 -33.5q1 -56 5 -76q3 -16 3 -26q0 -9 -3 -33v-6q0 -31 12 -55q7 -14 7 -15q0 -4 3 -12q3 -9 3 -21q0 -8 -1.5 -25.5t-1.5 -26.5q0 -26 -4 -32q-3 -4 -3 -10q0 -3 -9.5 -12.5t-9.5 -10.5
q-6 -17 -27 -29q-2 -1 -11.5 -6t-12.5 -7q-10 -5 -28.5 -9.5t-28.5 -8.5q-15 -5 -25 -5h-7q-3 0 -9.5 0.5t-16.5 1t-17 0.5q-32 1 -60 11q-32 10 -65 32q-4 2 -11 13.5t-9 19.5q-2 16 -2 23q0 41 31 49h4q19 0 50 -14l18 -8l13 7q13 7 31 7q10 0 26.5 6t24.5 6q11 0 27 7
t16 11q0 2 -4 2l-14 -2q-15 -3 -36 -3h-21q-85 2 -102 8q-34 14 -53 35q-22 22 -22 55q0 30 1 39q1 4 1 12q0 11 -4.5 35.5t-4.5 36.5v3q0 4 -0.5 9.5t-0.5 10.5q0 39 17 75q2 5 8 11q17 17 39 58q13 27 28 39q3 3 21 13q16 10 29 10q11 0 18 -6q8 -6 9 -6q2 0 7 -4.5
t6 -4.5q8 0 68 -37q11 -7 12 -8q1 -3 5 -3q3 0 7.5 10t4.5 17q0 6 6 12.5t12 6.5zM325 336q0 30 -7 30q-4 0 -6 -1q-14 -2 -30 0q-21 2 -33 11q-24 16 -41 16q-12 0 -24 -11.5t-16 -27.5q-12 -43 -12 -58q0 -10 4 -17q4 -8 4 -13t3 -17.5t3 -20.5q0 -14 6 -24q6 -8 13.5 -10
t31.5 -2q19 0 29 6q8 5 26.5 27t23.5 33q4 8 5 8q3 0 14 30q6 15 6 41z" />
    <glyph glyph-name="h" unicode="h" horiz-adv-x="552" 
d="M491 245q0 -5 4 -47q3 -27 3 -33q0 -7 -4 -11q-2 -2 -6 -10q-2 -3 -3 -5q-4 -9 -18 -19q-13 -10 -28 -10q-14 0 -19 4q-6 4 -7 4q-7 0 -15 33q-5 15 -7 40q-4 32 -12 54q-2 4 -4 51q-1 46 -5 58q-4 9 -4 19q0 13 -21 14q-7 0 -20.5 2.5t-18.5 2.5q-3 0 -22 -17l-18 -17
l2 -10q5 -33 5 -53q0 -32 -9 -80q-4 -20 -4 -40q0 -23 -5 -34q-5 -12 -7.5 -15.5t-14.5 -9.5q-14 -7 -30 -7t-62 8q-5 2 -6 4t-6 4q-10 5 -21 46q-4 17 -9 22q-9 13 -14 39q-4 22 -1 26q2 3 2 18q0 23 -4 40q-8 35 -11 81q0 15 -3 32t-4 27q0 3 -2.5 18.5t-4.5 31.5t-2 26
q0 8 1 10q3 12 3 15q0 7 7 25q8 20 33 44q20 19 24.5 22t12.5 3q24 0 57 -33q1 -1 12.5 -10.5t21 -18.5t10.5 -12q7 -19 13 -26q4 -4 4 -6q0 -1 0.5 -3t0.5 -4q1 -3 3 -29q2 -22 6 -31q3 -8 18 -8q13 0 31 4q29 7 41 7q4 0 12 -2q16 -4 38 -25t34 -44q18 -36 22 -47.5
t8 -40.5q4 -32 21 -65q2 -4 2 -12z" />
    <glyph glyph-name="i" unicode="i" horiz-adv-x="381" 
d="M138 474q2 0 15 -6l9 -4q10 -3 15 -5q36 -17 47 -21q17 -6 45 -36q17 -20 26.5 -39.5t13 -34t9.5 -52.5q0 -1 4 -17q4 -15 5 -61q0 -6 0.5 -14.5t0.5 -10.5q0 -11 -5 -23q-6 -10 -23 -18l-19 -8h-97q-5 0 -23 0.5t-28 0.5q-32 0 -38 2q-5 2 -11.5 10.5t-7.5 13.5
q0 1 -1 3.5t-3.5 7t-3.5 7.5q-11 24 -13 81v20q0 15 6 37q4 14 7.5 31.5t6.5 29.5q9 34 9 40q0 4 6 26q9 31 32 37q13 3 16 3zM165 651q25 -13 52 -52q8 -10 10 -10q4 0 12.5 -7.5t10.5 -12.5q1 -1 1 -6q0 -21 -9 -34q-4 -8 -21.5 -13.5t-33.5 -5.5q-13 0 -18 4q-1 1 -10 3
q-29 5 -37 13q-10 10 -10 42q0 22 6 40q9 26 21 41q7 8 26 -2z" />
    <glyph glyph-name="j" unicode="j" horiz-adv-x="476" 
d="M409 47q11 -15 11 -31q0 -25 -36 -45q-5 -2 -10 -10q-6 -13 -18 -16q-9 -3 -31 -14q-27 -13 -52 -19q-43 -10 -93 -10q-15 0 -19 1t-14 1q-4 0 -14.5 -0.5t-15.5 -0.5q-10 0 -14 1q-9 1 -12 3t-10 12q-16 23 -19 29t-3 16q0 5 -1 13t-1 11q0 23 16 39l10 10l31 1
q43 1 78 10q27 6 33 18t7 59q2 44 5 55q5 18 6 56q0 9 0.5 18.5t0.5 12.5q0 11 -4 22q-6 20 -7 42l-2 29l-9 14q-9 13 -9 22q0 8 3 21q5 27 19 44q8 9 16 9q9 0 13 6q2 3 11 12q8 8 20 7q13 0 20 -6q6 -5 22 -13t21 -8t10 -5q13 -13 31 -13q13 0 16 -25q1 -14 -3 -25
q-3 -9 0 -19q7 -21 7 -69v-14q0 -33 3 -48q3 -17 3 -41q0 -49 -8 -62q-14 -23 -14 -72q0 -21 6 -28zM404 538q-7 -16 -27.5 -22t-76.5 -8q-8 0 -19 -0.5t-13 -0.5q-16 0 -19 3t-18 5q-14 2 -33 10.5t-26 16.5q-20 21 -20 51q0 42 36 63q12 7 35 7q26 0 36 -10
q6 -6 24.5 -11.5t23.5 -8.5q14 -7 17 -7t3 -2q0 -6 27 -13q12 -4 31.5 -27t19.5 -39q0 -5 -1 -7z" />
    <glyph glyph-name="k" unicode="k" horiz-adv-x="550" 
d="M353 334q7 -5 23 -20t20 -21q7 -12 17 -30q10 -21 20 -28q19 -14 20 -36q0 -8 3.5 -20.5t3.5 -17.5q0 -7 -6 -15q-7 -8 -13 -20t-11 -20q-10 -15 -17 -14q-16 3 -47 34q-16 16 -50 33q-8 5 -18.5 15.5t-13.5 17.5q-13 33 -28 53q-6 9 -11 9t-8 -9.5t-5.5 -23t-4.5 -17.5
t-2 -24v-21l10 -10q5 -4 13 -9t11 -10t7 -19q5 -17 5 -21q0 -7 -11 -15q-46 -29 -70 -31q-3 -1 -10 -1q-8 0 -25.5 2.5t-25.5 2.5q-19 0 -25 3q-4 3 -11 3q-2 0 -4.5 3t-4.5 5.5t-1 2.5q3 0 -3 6q-12 12 -23 41q-3 9 -3 19q0 26 14 42q5 5 8 10.5t6.5 14.5t6.5 14
q9 17 20 74q2 12 6.5 25t7 24t2.5 28q0 22 -4 54q0 3 -4 57q-1 18 -1 79q0 69 2 73q1 3 7 29.5t8 30.5q4 7 8 7q3 0 6 -2t6 -5t5 -4q8 -4 9 -13t14 -22q14 -14 20 -8q3 3 5 3q3 0 3 -26q0 -87 15 -104q11 -12 11 -45q0 -23 2 -25q1 0 1 -0.5t1 -0.5q5 0 15 10t16 22
q3 6 7 10t8 10q7 11 11 13q18 10 37 42l11 20l8 12q11 15 50 34q9 5 26 19q11 11 21 11q7 0 19 -6t12 -10v-9q0 -4 3 -9.5t3 -10.5q0 -9 3 -14q6 -11 6 -30q0 -11 -3 -22q-3 -14 -16 -27q-16 -16 -22 -20q-17 -13 -31 -43q-3 -7 -15 -24t-15 -24q-15 -30 -33 -38
q-13 -7 -12 -14q0 -7 5 -9z" />
    <glyph glyph-name="l" unicode="l" horiz-adv-x="391" 
d="M221 379q-6 -33 -12 -37q-5 -4 -10 -22t-5 -35q0 -28 24 -63q11 -16 11 -19q0 -9 20 -41q10 -15 10 -22q0 -3 14 -17q22 -21 22 -42q0 -30 -36 -42q-17 -5 -30 -5q-3 0 -13 0.5t-17 0.5q-44 2 -46 3q-24 24 -38 28q-8 3 -13 8t-18 26q-20 32 -24 49q-7 25 -7 60
q0 33 7 61q1 6 3.5 83t3.5 84q3 18 5 28.5t3 14t2 8t2.5 15.5t3.5 33q4 47 11 63q17 38 53 38q8 -1 23 -7.5t15 -8.5q0 -3 4 -4q9 -5 25 -36q5 -10 5 -53q0 -39 -3 -45q-3 -3 0 -12q6 -33 6 -78q0 -3 -0.5 -8t-0.5 -6zM327 279q6 1 6 -4q0 -4 -3 -5t-6 1q-5 5 3 8z" />
    <glyph glyph-name="m" unicode="m" horiz-adv-x="793" 
d="M516 498h7q10 0 22 -9q8 -5 20 -12t23 -14t23 -18q22 -18 24 -21q7 -9 9 -10q4 -1 19 -15t15 -16q0 -1 13 -20q27 -37 37.5 -60t11.5 -50q0 -13 -1 -28t-1 -23q0 -13 1 -22q2 -26 2 -33q0 -33 -20 -46q-14 -9 -23 -11t-33 -2q-31 0 -36 -3q-15 -7 -26 4q-7 7 -7 9l-6 16
q-13 27 -23 69q-3 16 -6 47.5t-7.5 56t-14.5 39.5l-8 12l-17 -1q-33 -2 -36 -12q0 -6 1 -8q6 -10 11.5 -34.5t5.5 -37.5v-3l-1 -3q-2 -8 -2 -19q0 -8 -1 -14.5t-2.5 -14.5t-2.5 -13q-4 -43 -29 -52q-27 -9 -52 -9h-2q-8 0 -22.5 -3.5t-17.5 -6.5q-10 -10 -19 5
q-33 52 -44 60q-4 3 -6 10t-4 17t-3 14q-2 9 0 17q2 6 2 40t-5 44q-6 13 -14 17t-29 6q-4 0 -9.5 0.5t-7.5 0.5q-13 0 -15.5 -6t-2.5 -28q0 -21 -2 -29.5t-7 -16t-8 -17.5q-2 -7 -5 -12.5t-4 -7.5t-1 -5t9 -32q7 -22 10 -38q2 -12 2 -16q0 -27 -22 -47q-24 -22 -38 -22
q-5 0 -7 -3t-13 -7t-14 -1q-11 9 -11 41q0 39 -15 115q-16 92 -22 115q-5 20 -5 49q0 23 2 36q0 5 2 20.5t3 22.5q3 39 16 53q6 7 17.5 14t20.5 7q15 0 39 -21q11 -10 17 -10q2 0 12 4q6 3 9 3q46 7 61 14q6 4 17 6q3 1 7 1q5 0 30 -12q24 -11 30 -17q2 -3 14.5 -13
t14.5 -10q1 0 12 -8t12 -10t3 -2q12 0 21 19q3 6 13.5 17.5t13.5 11.5h5q5 0 13 0.5t15 0.5q9 0 24.5 0.5t17.5 0.5z" />
    <glyph glyph-name="n" unicode="n" horiz-adv-x="592" 
d="M536 243q3 -10 3 -27v-17q-1 -21 -9 -55q-4 -29 -16 -43q-12 -16 -19 -11q-3 3 -11 0q-6 -3 -31 -5l-23 -2q-9 12 -26.5 29t-24.5 20l-7 4q0 1 -6.5 5t-6.5 5q0 2 -2 12t-2 43q0 70 5 105q3 20 3 37q0 47 -14 49q-7 0 -16 -3q-1 -1 -29 -6q-35 -7 -54 -24q-10 -9 -10 -15
q0 -5 8 -29t8 -66q0 -20 -1 -30q-7 -71 -15 -79q-2 -2 -8 -25q-9 -32 -19 -38q-3 -2 -9.5 -3t-11.5 -0.5t-5 1.5q0 2 -4.5 1.5t-8.5 -1t-6 0.5q-26 13 -49 13h-3q-14 -1 -23 3q-21 12 -27 27q-6 16 -6 46q0 3 1 10.5t2 15.5q8 74 13 79q3 2 3 8q0 11 -10 42t-10 32
t-2.5 10.5t-4 19t-1.5 15.5q0 9 3 10q2 2 4 12q5 27 18 46q17 26 28 29q5 1 9.5 3.5t10.5 2.5q9 0 53 -43q7 -7 9 -7q1 0 34 25q24 19 43 26q13 5 25 12t15 7q21 7 34 7q12 0 21 -5q15 -8 38.5 -27t25.5 -25q6 -13 43 -53q26 -28 39 -55q17 -40 17 -65q0 -9 15 -54z" />
    <glyph glyph-name="o" unicode="o" horiz-adv-x="533" 
d="M348 117q-26 -13 -57 -13q-4 0 -4 1t-2 1q-4 -3 -80 -3q-60 0 -71 6q-42 21 -57 50q-13 25 -22 63q-1 3 -1 45q0 29 4.5 47.5t5.5 33.5q1 12 4 23t3 33q0 62 26 88q9 9 17 9q3 0 12.5 -2t17.5 -2q20 0 27 19q5 18 18 22q3 1 14 1q22 0 43 -6q18 -5 18 -8q0 -1 16 -9
q21 -10 36 -19.5t31 -17.5q26 -13 29 -16q7 -6 40 -26.5t42 -29.5q17 -19 21 -47v-7q0 -31 -10 -53q-2 -4 -2 -10t-1 -9q-1 -2 -1 -10q0 -17 -11 -47q-6 -12 -11 -17t-23 -29q-33 -44 -72 -61zM349 303q0 4 -7 16q-6 10 -10 25q-4 20 -37 40q-3 2 -28.5 20.5t-34.5 21.5
l-11 5q-3 0 -7 -18q-3 -11 -15 -27q-14 -18 -14 -19q-2 -5 -4 -5q-1 0 -5 -16q-3 -12 -3 -20q0 -3 2 -23q4 -30 5 -34q6 -33 14 -40q4 -2 11 -2q22 0 43 8q47 17 74 44q10 10 18 15q9 5 9 9z" />
    <glyph glyph-name="p" unicode="p" horiz-adv-x="551" 
d="M407 413q9 -7 9 -11q0 -3 16 -12q25 -15 27 -31q1 -11 12 -22q7 -6 11.5 -14.5t6 -14t3.5 -18.5t3 -19q2 -10 2 -27q0 -18 -7 -34q-7 -15 -13 -47q-1 -5 -12.5 -16.5t-18.5 -14.5q-6 -3 -18 -15q-17 -18 -45 -18h-11q-12 1 -20.5 3t-23.5 4q-30 3 -43 6q-22 6 -25 4
q-4 -1 -4 -17q0 -19 5 -29q10 -21 10 -47q0 -17 -4 -32q-3 -13 -3 -18q0 -1 2 -17q3 -16 3 -23q0 -4 -2 -14q-2 -6 -5 -10.5t-9 -9t-8.5 -6.5t-11 -6.5t-9.5 -5.5q-14 -8 -18 -8t-14.5 -6.5t-13.5 -6.5t-19 -6q-9 -4 -16 -4q-8 0 -17 12q-4 7 -22 23q-16 14 -21.5 21
t-10.5 21q-6 15 -9 42q-2 30 -4 34q-4 16 -4 38l-1 32l19 52v36q0 11 -0.5 33t-0.5 28v9q0 25 11 59q7 21 7 36v51q0 27 9.5 47t29.5 20h3q12 -2 17 -5q4 -3 19 -8t18 -5l4 5q3 5 8 13t8 12q11 16 26 24q10 4 13 4q8 0 40 -17q9 -5 29 -9q35 -7 61 -29q12 -10 18 -10
q5 0 14 -6zM391 289q-4 8 -4 15t-7 9.5t-19 2.5t-17 1q-15 4 -25 4t-26 -10q-2 -2 -16 -7t-17 -8q-4 -3 -4 -15q0 -11 3 -24q5 -20 5 -21q1 -5 14 -11q14 -7 29 -7q12 0 21 4q13 5 29 5q14 0 18.5 3.5t12.5 21.5q7 15 7 23q0 6 -4 14z" />
    <glyph glyph-name="q" unicode="q" horiz-adv-x="601" 
d="M484 165q4 -24 6 -38q3 -27 12 -45t10 -19q1 0 3.5 -7t6 -16.5t5.5 -13.5q12 -22 12 -25q0 -2 3 -11q2 -5 2 -38q0 -50 -4 -57q-1 -4 -11 -12q-8 -7 -27 -8q-13 -1 -30 -5.5t-35 -5.5q-41 -3 -45 -3q-1 0 -4.5 -0.5t-5.5 -0.5q-31 0 -38 9q-6 8 -11 30t-4 40q0 28 -7 47
q-3 9 -3 11q-5 15 -5 23q0 10 6 32q3 10 3 16q0 13 -18 13q-12 0 -20 -1q-9 -1 -32 -1q-24 0 -98 3q-22 1 -38 14q-13 10 -31.5 31t-23.5 31q-8 14 -8 35q0 7 2 21q1 5 8 63.5t13 79.5q4 15 13 37.5t13 26.5q3 2 11 13q42 60 50 65q2 1 14 3q4 1 12 1q16 0 46 -6
q26 -5 43 -16q4 -4 14 -4q4 0 14.5 -3.5t15.5 -3.5t8 4t9 4q13 0 52 -21q7 -2 15.5 -8t20.5 -9q9 -2 15.5 -5t11 -7.5t7 -7.5t6.5 -10.5t7 -11.5q14 -22 14 -43q0 -11 -5 -28q-9 -27 -9 -84q0 -18 2 -36t7 -42zM258 233q16 -30 33 -33h3q14 0 23 19.5t10 42.5q0 3 0.5 9
t0.5 9q0 28 -8 62q-6 24 -14 30q-9 6 -21 -2q-13 -9 -13 -35t-13 -55q-5 -10 -5 -26q0 -14 4 -21zM447 -69q5 -3 7 -1q3 3 -2 7.5t-9 5.5q-6 1 -6 -3q0 -3 1 -3.5t2 -0.5h1q0 -2 6 -5zM182 353q0 -3 2 -3q3 0 3 3q0 2 -3 2q-2 0 -2 -2zM438 -44q1 0 1 1t-1 1t-1 -1t1 -1z
" />
    <glyph glyph-name="r" unicode="r" horiz-adv-x="478" 
d="M195 521q3 4 9 7.5t16 3.5t42 -5q16 -3 24 -5t11 -3.5t9.5 -6.5t14.5 -10q18 -11 32 -14q56 -10 56 -25q0 -12 10 -24q9 -13 1 -26q-3 -4 -11 -8.5t-10 -2.5q-1 1 -7 -1q-4 -3 -63 -3q-56 0 -69 -4q-8 -3 -9.5 -4.5t-1.5 -8.5q1 -11 1 -33q0 -37 -4 -56q-3 -18 -3 -28
q0 -13 4 -40q3 -18 0 -28q0 -2 -1 -5q-2 -8 -2 -10q-1 -7 -3.5 -8.5t-7.5 -2.5t-8 -4q-4 -4 -18 -11q-16 -8 -33 -20q-20 -16 -40 -16q-7 0 -21 8t-18 14q-2 3 -11 9q-5 2 -13 18q-14 28 -14 74q0 32 1 55q0 6 0.5 16.5t0.5 15.5q0 16 -2 40q-4 41 -4 61q0 11 8 51
q3 14 11 31t12 17q5 0 29.5 -10.5t28.5 -14.5q2 -2 15.5 -8t16.5 -6q6 0 12 15q6 12 9 16z" />
    <glyph glyph-name="s" unicode="s" horiz-adv-x="501" 
d="M372 250q6 -4 10 -9q21 -34 21 -52q0 -4 -1 -5q-2 -2 -11 -24q-20 -45 -33 -52q-4 -2 -7 -2t-5 -1q-2 -2 -15 -7.5t-15 -6.5q-15 -13 -72 -13q-77 1 -116 11q-12 3 -28 3q-15 0 -23 8q-23 18 -23 45q0 14 7 31q13 30 37 30q12 0 36 -8q12 -4 18 -4q7 0 27 -6q14 -5 20 -5
q2 0 16 2q15 3 37 3q17 0 17 3q0 4 -14.5 10t-33 12.5t-23.5 8.5q-6 3 -33 11q-21 6 -29 11.5t-16 19.5q-8 13 -16 21q-5 6 -8.5 11.5t-4 9t1.5 4.5q1 0 1 6q0 18 -7 44q-2 6 -2 25q0 53 11 64q3 3 3 6q0 2 11 13t13 11t16 9q47 30 72 30q12 0 41.5 -6t33.5 -10q1 -1 13 -5
q8 -1 32 -13.5t29 -14.5l27 -12q22 -11 41 -32.5t19 -35.5q0 -3 -1 -5q-6 -19 -52 -19h-11q-17 1 -27 -6t-21 -25q-14 -26 -14 -38q0 -16 22 -29q5 -3 14 -8t15 -9z" />
    <glyph glyph-name="t" unicode="t" horiz-adv-x="525" 
d="M390 190q7 0 15 -4q2 -2 19 -4q10 -1 14 -5t14 -22q18 -32 18 -39q0 -2 -2 -8q-3 -6 -6 -15q-7 -22 -39 -22q-21 0 -58.5 9.5t-45.5 16.5q-1 1 -37 17q-27 14 -46 39q-3 4 -8 10.5t-6 7.5q-13 14 -17.5 25t-6.5 34q-2 22 -6 31q-18 45 -19 112q0 4 -4.5 4.5t-33.5 0.5
q-42 0 -57 4q-16 4 -19 6.5t-3 7.5t9.5 23.5t14.5 24.5q8 8 46 15q52 9 59 16q4 4 8 19t5 18q5 13 5 20q0 12 10 33.5t18 27.5t11 9q15 15 21 15q3 0 11.5 -3.5t8.5 -4.5l8 -6q4 -3 39 -38q33 -35 33 -47q0 -24 22 -46q19 -20 33 -30q28 -22 28 -43q0 -12 -15 -24
q-8 -6 -25 -5q-19 2 -29 5q-10 2 -12 2q-11 0 -15 -23q-2 -16 -2 -27q0 -27 8 -62q7 -26 7 -29t1.5 -8t3 -10.5t2.5 -8.5q4 -19 20 -19z" />
    <glyph glyph-name="u" unicode="u" horiz-adv-x="615" 
d="M546 262q2 -6 2 -27q1 -64 10 -81q5 -10 5 -14q0 -2 -4 -16q-5 -15 -11 -19.5t-32 -11.5q-3 -1 -14 -1q-17 0 -21 2q-2 2 -28 -2q-18 -2 -21 -2q-7 0 -10.5 1.5t-5 4t-5.5 6.5t-9 8l-13 8l-21 -5q-26 -6 -39 -6q-11 0 -29 -3q-18 -4 -70 -4q-87 0 -96 9q-2 2 -11 4
q-11 2 -18.5 16.5t-9.5 30.5q0 2 -1.5 13.5t-2.5 17.5q-2 12 -2 40q0 12 -0.5 16.5t-4.5 10.5t-6 11q-2 4 -4.5 8.5t-4 7.5t-3 7t-2.5 9q-10 53 -10 61q0 20 9 42q2 5 4.5 11.5t4 11t2.5 5.5q2 5 15 14t18 10q22 2 25 7q0 4 11.5 1t14.5 -2h2q4 0 14 -5.5t13 -5.5
q16 -3 36 -16q10 -7 25.5 -19.5t16.5 -14.5q0 -2 13 -9q34 -19 40 -70q1 -7 5 -17.5t4 -16.5v-16q0 -12 -3 -20q-4 -12 -4 -13q0 -4 4 -4q5 0 19 8q34 21 39 44q5 17 5 36q0 15 -6 42.5t-6 45.5q0 2 0.5 6t0.5 7q2 32 36 75q4 6 12 6q10 0 19 -9q3 -3 8 -3q3 0 5 -2l16 -10
q16 -9 21.5 -15t9.5 -18q5 -15 5 -26q0 -5 -2 -7q-1 0 -1 -4q0 -8 4 -27q3 -16 17 -32q17 -20 21.5 -29.5t4.5 -26.5q0 -19 -4 -23t-2 -11z" />
    <glyph glyph-name="v" unicode="v" horiz-adv-x="486" 
d="M201 372q2 -5 5 -24t6 -26q4 -9 16.5 -26.5t14.5 -17.5q6 0 18 24t21 47.5t9 24.5q0 5 2 5t4 10q7 42 33 85q8 16 24 19q2 0 4 0.5t3 0.5q9 0 21 -7.5t16 -9.5q8 -3 15.5 -10t7.5 -10l6 -8q6 -7 5 -29q-1 -16 -4.5 -31t-6.5 -15q-2 0 -2 -4q0 -7 -8 -21q-27 -55 -31 -87
q-9 -82 -19 -103q-26 -44 -43 -49q-7 -2 -19 -8q-10 -6 -50 -11q-7 -1 -18 -1q-33 0 -48 18q-13 14 -23 31t-20 39.5t-18 35.5q-3 6 -11.5 20.5t-16.5 28.5q-25 52 -28 73q0 1 -3 11.5t-5.5 21t-2.5 15.5q0 4 2 4t2 11q0 19 30 64q2 5 7 5q4 0 12.5 -3.5t8.5 -5.5q0 -1 9 -7
l9 -6q0 -4 38 -32q21 -15 25 -32q0 -1 3 -10z" />
    <glyph glyph-name="w" unicode="w" horiz-adv-x="726" 
d="M661 327q2 -4 2 -7t-1.5 -6.5t-3.5 -9t-4 -10.5q-5 -17 -14.5 -38t-13.5 -24q-20 -15 -40 -78q-8 -28 -16 -33q-6 -3 -15 -3q-23 0 -34 -11q-3 -3 -17 -2q-12 1 -24 5t-19 7.5t-19.5 11t-18.5 10.5q-21 12 -29 17q-38 24 -57 72q-10 21 -11 21q-2 0 -6.5 -7.5t-4.5 -11.5
q0 -2 -8 -16q-6 -11 -12 -30q-6 -20 -8 -22q-4 -4 -4 -12q0 -21 -28 -30q-19 -11 -38 -12q-5 -1 -11 -1q-8 0 -27 10q-27 14 -67 60q-5 6 -15 24.5t-9 20.5q0 4 -6.5 22t-6.5 22q-6 28 -6 69v10q0 54 -10 70q-4 7 -4 21q0 7 2 21q9 36 35 36q7 0 11 -1q17 -4 20 -7t6 -3
q5 0 15 -7.5t21.5 -17.5t16.5 -13q25 -15 36 -41t11 -42q0 -13 8.5 -42t12.5 -29q3 0 6 13q5 17 12 30q8 14 8 21q0 5 3 5q2 0 4 20q3 26 13 48q3 5 6.5 19t6.5 19q5 7 6 11q5 10 28 10h7q20 -3 44.5 -25t41.5 -51q7 -14 16 -23q7 -9 26.5 -36t31.5 -40l15 -17v-15
q0 -15 3 -16h1q5 0 14 41q10 42 21 55q6 6 37 67q7 11 15 31q21 48 39 48q8 0 11.5 -3.5t5.5 -14.5q3 -15 3 -28q0 -15 -4 -41t-5 -34q-2 -26 -5 -37q-4 -14 0 -20z" />
    <glyph glyph-name="x" unicode="x" horiz-adv-x="525" 
d="M371 303q-12 -6 -12 -22q0 -7 7 -16t7 -11q0 -1 8 -12.5t8 -12.5q0 -5 25 -32q19 -19 38 -34q17 -14 17 -22q0 -1 -4.5 -9t-3.5 -11q3 -9 3 -15q0 -8 -5.5 -22.5t-5.5 -24.5q0 -6 -4.5 -12.5t-8.5 -6.5q-5 0 -12 -4l-9 -5l-11 6q-8 4 -12 8q-2 2 -34 18q-24 12 -53 33
q-17 12 -26 21q-13 13 -16 13q-2 0 -17 -13q-53 -45 -120 -45h-7q-14 1 -25 12q-10 10 -28 26l-16 14l5 13q2 8 9 18.5t9 15.5q2 10 23.5 37t25.5 35q8 15 9 15q2 0 19 28q-7 13 -33 44q-25 31 -25 32q0 3 -9 12q-23 23 -23 51q0 33 14 61q5 13 15 13q9 0 21 -4
q36 -10 73 -33q22 -13 36 -27q17 -17 20 -18h1q5 0 37 31q36 34 50 45q43 32 63 34q7 0 9 2t13 1t16 -4q15 -10 2 -22q-8 -7 -19.5 -31.5t-14.5 -40.5q-1 -3 1 -8t2.5 -7.5t-3.5 -4.5q-5 -2 -5 -6t-3.5 -21t-5.5 -17q-1 0 -1 -10q0 -7 -5 -20t-5 -20q0 -13 -4 -15z" />
    <glyph glyph-name="y" unicode="y" horiz-adv-x="577" 
d="M466 329q-4 -9 -7 -19q-1 -5 -12 -23t-14 -20q-2 0 -2 -5q0 -3 -4.5 -14t-4.5 -14q0 -2 -3.5 -4.5t-3.5 -5.5q0 -18 -17 -35q-10 -10 -11 -10q-7 0 -18 -31q-25 -50 -25 -54q0 -3 -33 -47q-8 -10 -12.5 -15.5t-4.5 -4.5t-5.5 -3t-12.5 -10.5t-10 -10.5q-6 -8 -38.5 -42.5
t-44.5 -44.5q-13 -11 -19.5 -13.5t-23.5 -3.5q-22 -1 -27 4t-3 19q4 19 8 30.5t9.5 23t9.5 23.5q3 10 10 28t10 26q10 34 19.5 51t49.5 80q13 20 13 25t-20 16q-33 18 -61 41q-12 10 -36 37t-33 40q-22 33 -26 49q-7 19 -7 51q0 16 3 25q5 14 17 31q3 6 10 11.5t11 5.5
q6 0 12.5 -3t15.5 -10t11 -8q17 -9 33 -22q10 -10 23 -18q21 -14 34 -37q13 -22 20 -24q6 -3 13 -13q5 -8 21.5 -25t20.5 -23q7 -9 10 -9q2 0 9.5 14t7.5 17q0 2 12 25t13 24q3 3 11 19q23 42 51 66q14 12 16 12q3 0 29 28q27 28 38 36q14 10 19 5q7 -6 -1 -17
q-6 -9 -12.5 -26t-11.5 -25q-8 -13 -5 -26q1 -8 -4 -15q-14 -16 1 -18q9 -1 3 -7q-2 -2 -5.5 -14t-5.5 -14q-5 -3 3 -22q3 -5 -2 -10q-2 -2 -9 -16q-3 -8 -3 -10t2 -5t2 -6t-3 -10z" />
    <glyph glyph-name="z" unicode="z" horiz-adv-x="559" 
d="M479 206v-16l-1 -16l13 -6q12 -6 12 -11q0 -23 -9 -37q-7 -12 -46 -25q-44 -15 -53 -24q-8 -8 -8 -10t-12 -7t-14 -5q-4 0 -12 -8t-21 -8l-26 -5q0 2 -6 -2q-8 -4 -15 -4t-15 4q-13 9 -80 12h-11q-23 0 -41 -9q-13 -7 -25 -9h-2q-9 0 -20.5 3.5t-12.5 7.5q-1 6 -6 19
t-8 16q-4 4 -4 23q0 14 2 20.5t14 29.5q17 33 18 33q2 2 16 23.5t16 26.5q4 12 42 71q9 13 27 33q20 20 26 28q32 42 32 45q0 5 -43 6q-39 1 -73 20q-32 17 -32 26q0 1 -6 11t-5 13q2 4 13.5 9t20.5 6q6 0 16.5 6t15.5 7q11 2 19 5q34 12 57 14q14 2 19 5q2 2 5 2q4 0 13 -5
t13 -5t4 -3q0 -2 4 -2q13 0 48 -28q16 -12 54 -21q17 -5 -4 -16l-2 -1q-12 -5 -15 -20q-3 -12 -3 -25q0 -27 -30 -79q-7 -11 -14 -34.5t-11 -32.5q-8 -20 -8 -28q0 -5 7 -5h16q16 -1 28 -1q37 -1 48 -7q10 -5 11.5 -5.5t10.5 2.5t17 3t23 -5z" />
    <glyph glyph-name="uni00A0" unicode="&#xa0;" 
 />
    <glyph glyph-name="Agrave" unicode="&#xc0;" horiz-adv-x="748" 
d="M521 407q8 -10 24.5 -34.5t17.5 -25.5q9 -13 9 -15l8 -16q10 -18 11 -29q5 -27 21 -48q14 -18 14 -42q0 -11 3 -25l5 -23q0 -6 2 -8q5 -10 5 -34q0 -2 -0.5 -5t-0.5 -4q-3 -16 -16.5 -25.5t-31.5 -9.5q-8 0 -19 3q-12 4 -17 2q-2 -1 -4 -1q-7 0 -25 21q-19 23 -22 51
q-3 21 -5 26q-5 12 -5 16q0 9 -4 12t-18 6q-15 4 -35 4q-17 0 -29 -3q-8 -2 -16 -2q-11 0 -34 3.5t-28 3.5q-17 1 -29 4q-7 2 -9.5 -1t-4.5 -19q-2 -10 -6 -20.5t-6 -18.5q-9 -31 -42 -43q-17 -6 -26 -14q-17 -12 -25 -14.5t-30 -2.5q-24 0 -32 4q-6 4 -11 4q-4 0 -12 3.5
t-12 3.5q-5 0 -9.5 2.5t-9.5 6.5t-8 5q-4 4 -4 11q0 3 1 11t1 13q1 11 7 33.5t6 25.5q2 12 5 17q4 8 4 12q0 7 9 32q7 24 14.5 43t11.5 31q3 9 9.5 20.5t9.5 17.5q3 7 11 25t15 33t8 19q2 6 10.5 24.5t10.5 19.5t22 29.5t24 35.5q4 6 15 22q11 14 23.5 37.5t15.5 33.5
q22 82 52 82q5 0 7 -1q3 -2 17.5 -19.5t20.5 -27.5q5 -9 7 -9t12 -14q12 -16 21 -23q22 -18 25 -64q3 -30 7 -37q10 -17 28.5 -62.5t35.5 -68.5zM482 684q-10 25 -34.5 38.5t-49.5 26.5q-60 31 -117 62.5t-114 54.5q9 29 24.5 41.5t46.5 12.5q14 0 29.5 -5t29.5 -16
q51 -38 111.5 -71.5t112.5 -67.5q-3 -9 -8.5 -17.5t-11.5 -17.5t-11.5 -19t-7.5 -22zM407 402q-8 12 -12 19q-12 21 -20 27q-3 2 -8 -0.5t-5 -6.5t-2 -6q-1 -1 -9 -21t-10 -27q0 -9 1.5 -10t12.5 1q28 7 49 7h4q6 -1 7 1q0 3 -8 16zM417 266h3q2 -1 4.5 -1.5t3.5 -2.5
q10 -12 10 3q0 9 3 13q10 19 10 23q0 14 -13 1q-5 -6 -12 -5q-6 1 -6 0.5t3 -8.5t-2 -11q-4 -2 -4.5 -3t0 -4t0.5 -5zM684 558q2 5 5 3q1 -2 1 -4q0 -4 -4 -4t-2 5z" />
    <glyph glyph-name="Egrave" unicode="&#xc8;" horiz-adv-x="551" 
d="M90 521q0 7 3 11q2 6 2 11q0 12 4 16q5 5 5 7q0 1 2 6t4 10.5t4 10t3 5.5q3 3 19 36q2 2 15 2h11.5t14.5 -1t12.5 -1h5.5h11t14 1q13 0 32 -0.5t39 -1.5t38 -3.5t30 -7.5q8 -3 14 -3t6 -2q0 -3 3 -3q4 0 7.5 -5.5t4.5 -9.5q0 -5 3 -14l2 -10q0 -7 -14 -21
q-16 -13 -40 -13q-6 0 -20 -3q-7 -2 -12 -2.5t-9 -1.5q-4 0 -11.5 -1.5t-15 -4t-13.5 -5.5t-8 -7v-4q-1 -5 -1.5 -10t-0.5 -10l-3 -27q-2 -7 -2.5 -11.5t-1.5 -8.5q-2 -14 5 -17q5 -4 19 -5q13 -2 21.5 -3.5t13.5 -2.5q3 -1 10.5 -4t15 -7.5t13.5 -9t6 -9.5q0 -13 -11 -20
t-22 -12q-8 -3 -9 -4q-10 -5 -17.5 -8t-13.5 -5q-23 -8 -23 -16l2 -10t2 -18q0 -9 -1 -18t-3 -18q-1 -11 -2 -18.5t-2 -11.5q-2 -8 -2 -7q0 -4 10 -4q11 0 16 1q13 1 21.5 1.5t13.5 0.5q32 0 40 2q4 1 7 1.5t7 0.5q6 0 6 -3q0 -10 26 -12q6 0 16 -1t21 -2.5t21 -3.5t15 -5
q8 -4 18 -19q6 -10 6 -28q0 -8 0.5 -15t1.5 -14q0 -2 1 -3q0 -20 -13.5 -33t-32.5 -15q-5 0 -32 -10q-18 -6 -40 -12q-12 -3 -21 -5.5t-15 -4.5q-12 -3 -18 -3q-1 1 -20 -3q-44 -8 -110 -12q-17 -1 -30 -2t-22 -3q-2 -1 -7 -1t-12.5 6t-14 14.5t-11.5 17t-5 13.5q0 2 1 5v7
q0 5 1 8q0 17 -6 36t-13 35q-9 20 -9 25t-3 14q-10 24 -10 99q0 85 7 98q1 1 4 24q3 22 4 23q1 2 2.5 7t3.5 13q2 7 3.5 12.5t3.5 10.5q4 11 4 23q0 4 3 8q2 4 2 8zM358 643q-37 24 -77.5 35t-85.5 25q-13 5 -24 12.5t-22 16.5t-22.5 17.5t-23.5 14.5q6 8 13 18t16.5 19
t20.5 16.5t24 8.5q5 1 15 1q39 0 76.5 -19.5t56.5 -52.5q7 -13 17.5 -30.5t17.5 -34t8 -29.5t-10 -18z" />
    <glyph glyph-name="Eacute" unicode="&#xc9;" horiz-adv-x="551" 
d="M345 371q-3 -3 -8.5 -6.5t-8.5 -5t-10 -4.5t-9 -4q-19 -9 -31 -13q-23 -8 -23 -16q0 -2 2 -10q2 -7 2 -18q0 -5 -1.5 -16t-2.5 -20q-2 -23 -4 -30q-2 -6 -2 -7q0 -4 10 -4q9 0 16 1q26 2 35 2q34 0 40 2q7 2 13.5 2t6.5 -3q0 -10 26 -12q2 0 32 -3q31 -4 40.5 -9
t18.5 -19q6 -11 6 -28q0 -15 2 -29q0 -1 0.5 -3t0.5 -3q0 -18 -14.5 -30.5t-31.5 -14.5q-4 0 -32 -10q-16 -6 -40 -12t-36 -10q-12 -3 -18 -3q-1 1 -20 -3q-43 -7 -110 -12q-34 -1 -52 -5q-3 -1 -7 -1q-6 0 -23 17q-20 20 -20 34q0 1 0.5 5t0.5 7t0.5 7.5t0.5 6.5q0 8 -8 35
q-4 15 -11 30q-9 20 -9 25t-3 14q-10 26 -10 99q0 84 7 98q1 2 4 23.5t4 23.5q2 5 6 19.5t7 23.5q4 12 4 23q0 4 2.5 7.5t2.5 8.5q0 6 2.5 10.5t2.5 11.5q0 12 4 16q5 5 5 7t6 16.5t7 15.5q2 2 19 36q2 2 15 2q9 0 26 -1t18 -1q9 0 25 0.5t23 0.5q25 0 41 -2q67 -8 75 -11
t14 -3t6 -2q0 -3 3 -3t7 -5t5 -10q0 -5 3 -14q2 -8 2 -10q0 -8 -14 -21q-16 -13 -40 -13q-7 0 -20.5 -3t-20.5 -4q-15 -1 -30.5 -7t-17.5 -11q0 -1 -0.5 -4.5t-1 -9.5t-0.5 -10q-1 -14 -3.5 -27t-3.5 -20q-1 -14 5 -17q4 -3 19 -5q26 -4 35 -6q22 -6 33 -16q12 -10 12 -14
q0 -5 -2 -9t-4 -7zM406 684l-151 -15h-100l5 29q60 18 97 30.5t59.5 20l34.5 11.5l21 7z" />
    <glyph glyph-name="agrave" unicode="&#xe0;" horiz-adv-x="564" 
d="M373 577q1 0 17.5 -16.5t24.5 -19.5q8 -4 15 -18l8 -16q0 -10 23 -56q2 -5 6.5 -25t4.5 -27q0 -9 9.5 -39.5t10.5 -44.5q1 -18 -4 -24q-6 -7 -6 -17q0 -7 3 -16q15 -42 15 -63q0 -6 -2 -8q-1 -1 -7 -15q-1 -2 -1.5 -4t-1 -3t-1 -2.5t-0.5 -2.5q0 -3 14 -16q13 -11 8 -25
q-2 -7 -15.5 -19t-23.5 -17q-3 -1 -6.5 -3t-5.5 -3l-12 -4q-4 -2 -15 -2q-23 0 -57 -14q-31 -12 -57 -13q-9 0 -41 -3t-47 -3t-21 3q-5 3 -26 1h-10q-10 0 -23 2.5t-20 3.5q-14 1 -33 13q-18 10 -21.5 13.5t-3.5 13.5v15q0 19 -4 23q-3 4 -3 17q0 33 10 41q2 2 8 14
q16 30 23 38q3 5 7 11.5t6 10t6 8t9 9.5t13 11q19 14 35 14q25 0 37 18q7 10 23.5 18.5t27.5 8.5h4q5 -2 15 2q4 2 11 2q2 0 6 -0.5t5 -0.5q6 0 6 6q0 5 -3 14q-3 8 -3 18q0 2 0.5 7.5t0.5 9.5v13q0 28 -20 61q-7 11 -16 11q-18 0 -32.5 -23t-19.5 -48q-3 -16 -17 -31
l-14 -14h-20q-14 0 -32.5 6.5t-20.5 7.5q-10 2 -23 9q-16 8 -18 8q-3 0 -8 9t-7 16q-9 32 -9 61q0 10 3 13t6 10q8 16 33 29q17 10 20 10q2 0 10.5 7.5t10.5 7.5q1 0 7 8t8 8t10 8q21 22 52 33q19 7 27 7q6 0 18 6q15 7 28 -2q6 -4 13 -4q17 0 33 -13q5 -3 9 -5.5t5.5 -3.5
t4.5 -5l9 -14q2 -4 12 -12zM396 639q-26 22 -59 37t-66 27q-21 8 -42 11l-42 6t-41 8t-38 17q2 4 0 9.5t6 9.5q31 15 61.5 19t64.5 4q11 0 22 -2t22 -8q16 -10 36.5 -16t39.5 -12.5t33.5 -17t18.5 -30.5q2 -7 -1 -13.5t-6.5 -13t-6.5 -15t-2 -20.5zM310 207q-4 0 -12.5 -4
t-11.5 -4q-11 0 -22.5 -8t-11.5 -19q0 -8 6 -8q2 0 5 1t5 1t11 3q5 3 19 3h13q5 17 5 27q-1 8 -6 8z" />
    <glyph glyph-name="ae" unicode="&#xe6;" horiz-adv-x="866" 
d="M318 617q5 -3 9 -5.5t5.5 -3.5t4.5 -5l9 -14q2 -4 12 -12q1 0 17.5 -16.5t24.5 -19.5q8 -4 15 -18l8 -16q0 -10 23 -56q2 -5 6.5 -25t4.5 -27q0 -9 9.5 -39.5t10.5 -44.5q1 -18 -4 -24q-6 -7 -6 -17q0 -7 3 -16q15 -42 15 -63q0 -6 -2 -8q-1 -1 -7 -15q-1 -2 -1.5 -4
t-1 -3t-1 -2.5t-0.5 -2.5q0 -3 14 -16q13 -11 8 -25q-2 -7 -15.5 -19t-23.5 -17q-3 -1 -6.5 -3t-5.5 -3l-12 -4q-4 -2 -15 -2q-23 0 -57 -14q-31 -12 -57 -13q-9 0 -41 -3t-47 -3t-21 3q-5 3 -26 1h-10q-10 0 -23 2.5t-20 3.5q-14 1 -33 13q-18 10 -21.5 13.5t-3.5 13.5v15
q0 19 -4 23q-3 4 -3 17q0 33 10 41q2 2 8 14q16 30 23 38q3 5 7 11.5t6 10t6 8t9 9.5t13 11q19 14 35 14q25 0 37 18q7 10 23.5 18.5t27.5 8.5h4q5 -2 15 2q4 2 11 2q2 0 6 -0.5t5 -0.5q6 0 6 6q0 5 -3 14q-3 8 -3 18q0 2 0.5 7.5t0.5 9.5v13q0 28 -20 61q-7 11 -16 11
q-18 0 -32.5 -23t-19.5 -48q-3 -16 -17 -31l-14 -14h-20q-14 0 -32.5 6.5t-20.5 7.5q-10 2 -23 9q-16 8 -18 8q-3 0 -8 9t-7 16q-9 32 -9 61q0 10 3 13t6 10q8 16 33 29q17 10 20 10q2 0 10.5 7.5t10.5 7.5q1 0 7 8t8 8t10 8q21 22 52 33q19 7 27 7q6 0 18 6q15 7 28 -2
q6 -4 13 -4q17 0 33 -13zM283 203q-9 -4 -12 -4q-11 0 -22.5 -8t-11.5 -19q0 -8 6 -8q2 0 5 1t5 1t11 3q5 3 19 3h13q5 17 5 27q-1 8 -6 8q-4 0 -12 -4zM793 337q-9 -18 -29 -22q-7 -1 -11 -11q-7 -15 -26.5 -25.5t-41.5 -10.5q-7 0 -25 -5t-26 -5q-45 0 -51 6q-2 2 -10 2
q-6 1 -7.5 -1t-1.5 -7q0 -13 8.5 -30t14.5 -17t42.5 -12.5t45.5 -14.5q6 -1 9 1t10 12q17 23 39 23q13 0 31 -8q12 -6 18 -8q30 -12 39 -34q4 -16 4 -25q0 -5 -2 -13q-5 -12 -20.5 -26t-25.5 -14q-6 0 -11 -5q-17 -12 -68 -12q-11 0 -25 2q-7 1 -16 -1q-2 -1 -9 -1
q-9 0 -25.5 2.5t-35.5 6t-26 4.5q-37 4 -66 19q-20 11 -38 38t-20 52q-6 40 -6 64q0 20 5 48q0 4 0.5 8t1 6t0.5 4q0 16 6 41q0 1 13 20.5t13 21.5q0 1 6 14.5t6 14.5q0 2 12.5 18.5t14.5 16.5q3 0 9 10q15 24 32 27q12 2 20 5q6 2 22 2q23 0 35 -5q12 -4 18 -1q10 5 34 5
h14q14 0 23 -3q14 -5 31 -23.5t20 -31.5q3 -9 12 -21q16 -20 17 -65q0 -30 -3 -36zM645 381q3 -1 20 -8q11 -4 22 -4q10 1 10 9q0 11 -16 29l-10 10q-2 0 -23 -17q-18 -15 -3 -19z" />
    <glyph glyph-name="ccedilla" unicode="&#xe7;" horiz-adv-x="567" 
d="M426 144q-8 -18 -14 -22q-5 -5 -6 -11q-2 -7 -16.5 -27t-21.5 -24q-5 -2 -12.5 -2.5t-9.5 1.5q-6 4 -33 10q-57 12 -66 23h-3q-2 1 -5.5 1.5t-6.5 0.5q-7 1 -16 4q2 -17 2 -34t11 -29q8 -9 18.5 -15.5t20 -13.5t15.5 -16t4 -23q-4 -31 -16 -38.5t-43 -7.5h-14
q-35 5 -70.5 12.5t-70.5 15.5q-14 2 -18.5 16t1.5 22q9 13 28 13q15 0 32 -5.5t31 -5.5q11 0 18 6q11 9 9 19t-8 21.5t-11.5 23.5t-0.5 25q3 11 8.5 19.5t11.5 16.5q-3 2 -7 3q-10 4 -24 15t-24 15q-11 4 -17 10.5t-11.5 15t-11.5 14.5q-10 11 -12 22q0 1 -8 20q-5 13 -5 90
q0 33 25 63q21 26 21 36q0 2 2 2q3 0 5 13q5 24 31 34q10 4 27 21q16 16 22 20q13 9 31 9q4 0 4 -1q3 -3 10 -3q6 0 26 20l18 19l11 -2q4 -1 19 -5t23 -4h7q20 0 42 -27q3 -4 14.5 -14.5t15.5 -14.5q15 -15 24 -31q8 -14 5 -23q-10 -34 -39 -34q-17 0 -44 11q-25 10 -31 10
q-7 0 -22 -22.5t-15 -32.5q0 -6 -5.5 -19t-6.5 -15l-4 -7q-1 0 -11 -16q-7 -13 -7 -18q0 -3 2 -9.5t3 -12.5q2 -17 18 -19q5 -1 12.5 -4t13.5 -3q5 0 8 1q10 2 11 1q5 0 14 4q11 5 25 1q17 -5 37 -34q6 -8 9 -9.5t10 0.5q16 3 25 3q10 0 10 -4q0 -3 -14 -14q-7 -6 -4 -12
q1 -2 1 -8q0 -13 -7 -31zM506 509q-5 0 -2 8q1 5 5 1q2 -2 0.5 -5.5t-3.5 -3.5z" />
    <glyph glyph-name="egrave" unicode="&#xe8;" horiz-adv-x="502" 
d="M405 235q30 -12 39 -34q4 -16 4 -25q0 -5 -2 -13q-5 -12 -20.5 -26t-25.5 -14q-6 0 -11 -5q-17 -12 -68 -12q-11 0 -25 2q-7 1 -16 -1q-2 -1 -9 -1q-9 0 -25.5 2.5t-35.5 6t-26 4.5q-37 4 -66 19q-20 11 -38 38t-20 52q-6 40 -6 64q0 20 5 48q0 4 0.5 8t1 6t0.5 4
q0 16 6 41q0 1 13 20.5t13 21.5q0 1 6 14.5t6 14.5q0 2 12.5 18.5t14.5 16.5q3 0 9 10q15 24 32 27q12 2 20 5q6 2 22 2q23 0 35 -5q12 -4 18 -1q10 5 34 5h14q14 0 23 -3q14 -5 31 -23.5t20 -31.5q3 -9 12 -21q16 -20 17 -65q0 -30 -3 -36q-9 -18 -29 -22q-7 -1 -11 -11
q-7 -15 -26.5 -25.5t-41.5 -10.5q-7 0 -25 -5t-26 -5q-45 0 -51 6q-2 2 -10 2q-6 1 -7.5 -1t-1.5 -7q0 -13 8.5 -30t14.5 -17t42.5 -12.5t45.5 -14.5q6 -1 9 1t10 12q17 23 39 23q13 0 31 -8q12 -6 18 -8zM143 734q32 8 68 14t68 6q20 0 38.5 -7.5t26.5 -28.5
q8 -18 19.5 -39t20.5 -42t13 -41t-3 -35q-31 15 -61.5 32t-61.5 34.5t-62.5 34t-63.5 29.5q-7 2 -12 9.5t-8 15.5t2.5 12t15.5 6zM268 412q3 -1 20 -8q11 -4 22 -4q10 1 10 9q0 11 -16 29l-10 10q-2 0 -23 -17q-18 -15 -3 -19z" />
    <glyph glyph-name="eacute" unicode="&#xe9;" horiz-adv-x="502" 
d="M387 346q-7 -1 -11 -11q-7 -15 -26.5 -25.5t-41.5 -10.5q-7 0 -25 -5t-26 -5q-45 0 -51 6q-2 2 -10 2q-6 1 -7.5 -1t-1.5 -7q0 -13 8.5 -30t14.5 -17t42.5 -12.5t45.5 -14.5q6 -1 9 1t10 12q17 23 39 23q13 0 31 -8q12 -6 18 -8q30 -12 39 -34q4 -16 4 -25q0 -5 -2 -13
q-5 -12 -20.5 -26t-25.5 -14q-6 0 -11 -5q-17 -12 -68 -12q-11 0 -25 2q-7 1 -16 -1q-2 -1 -9 -1q-9 0 -25.5 2.5t-35.5 6t-26 4.5q-37 4 -66 19q-20 11 -38 38t-20 52q-6 40 -6 64q0 20 5 48q0 4 0.5 8t1 6t0.5 4q0 16 6 41q0 1 13 20.5t13 21.5q0 1 6 14.5t6 14.5
q0 2 12.5 18.5t14.5 16.5q3 0 9 10q15 24 32 27q12 2 20 5q6 2 22 2q23 0 35 -5q12 -4 18 -1q10 5 34 5h14q14 0 23 -3q14 -5 31 -23.5t20 -31.5q3 -9 12 -21q16 -20 17 -65q0 -30 -3 -36q-9 -18 -29 -22zM121 590q14 19 36 33.5t47 28t51.5 26.5t50.5 29q10 7 21 11.5
t23 4.5q17 0 28 -9.5t18 -23t11 -29.5t5 -29q1 -5 -3.5 -8.5t-11 -6.5t-14.5 -5.5t-15 -5.5q-25 -9 -54.5 -11.5t-60 -4.5t-59 -6t-51.5 -16q-12 9 -22 22zM268 412q3 -1 20 -8q11 -4 22 -4q10 1 10 9q0 11 -16 29l-10 10q-2 0 -23 -17q-18 -15 -3 -19z" />
    <glyph glyph-name="ecircumflex" unicode="&#xea;" horiz-adv-x="502" 
d="M376 335q-7 -15 -26.5 -25.5t-41.5 -10.5q-7 0 -25 -5t-26 -5q-45 0 -51 6q-2 2 -10 2q-6 1 -7.5 -1t-1.5 -7q0 -13 8.5 -30t14.5 -17t42.5 -12.5t45.5 -14.5q6 -1 9 1t10 12q17 23 39 23q13 0 31 -8q12 -6 18 -8q30 -12 39 -34q4 -16 4 -25q0 -5 -2 -13
q-5 -12 -20.5 -26t-25.5 -14q-6 0 -11 -5q-17 -12 -68 -12q-11 0 -25 2q-7 1 -16 -1q-2 -1 -9 -1q-9 0 -25.5 2.5t-35.5 6t-26 4.5q-37 4 -66 19q-20 11 -38 38t-20 52q-6 40 -6 64q0 20 5 48q0 4 0.5 8t1 6t0.5 4q0 16 6 41q0 1 13 20.5t13 21.5q0 1 6 14.5t6 14.5
q0 2 12.5 18.5t14.5 16.5q3 0 9 10q15 24 32 27q12 2 20 5q6 2 22 2q23 0 35 -5q12 -4 18 -1q10 5 34 5h14q14 0 23 -3q14 -5 31 -23.5t20 -31.5q3 -9 12 -21q16 -20 17 -65q0 -30 -3 -36q-9 -18 -29 -22q-7 -1 -11 -11zM396 548q-2 -1 -6 -1q-8 0 -15.5 3.5t-15.5 6.5
q-14 6 -23.5 19t-18.5 26.5t-19 23.5t-26 10h-3q-15 -1 -26.5 -9.5t-23 -20t-23 -22.5t-26.5 -18q-9 -5 -19 -6.5t-19 -1.5q-14 0 -26 3q8 17 21 34t31 30q16 11 30.5 25.5t29 28t30.5 25t34 16.5q2 0 4 0.5t4 0.5q11 0 21.5 -8t20 -19t18.5 -24t18 -22q17 -17 31.5 -42.5
t25.5 -44.5q2 -4 -0.5 -6t-7.5 -3t-11 -1.5t-10 -2.5zM268 412q3 -1 20 -8q11 -4 22 -4q10 1 10 9q0 11 -16 29l-10 10q-2 0 -23 -17q-18 -15 -3 -19z" />
    <glyph glyph-name="edieresis" unicode="&#xeb;" horiz-adv-x="502" 
d="M402 469q16 -20 17 -65q0 -30 -3 -36q-9 -18 -29 -22q-7 -1 -11 -11q-7 -15 -26.5 -25.5t-41.5 -10.5q-7 0 -25 -5t-26 -5q-45 0 -51 6q-2 2 -10 2q-6 1 -7.5 -1t-1.5 -7q0 -13 8.5 -30t14.5 -17t42.5 -12.5t45.5 -14.5q6 -1 9 1t10 12q17 23 39 23q13 0 31 -8
q12 -6 18 -8q30 -12 39 -34q4 -16 4 -25q0 -5 -2 -13q-5 -12 -20.5 -26t-25.5 -14q-6 0 -11 -5q-17 -12 -68 -12q-11 0 -25 2q-7 1 -16 -1q-2 -1 -9 -1q-9 0 -25.5 2.5t-35.5 6t-26 4.5q-37 4 -66 19q-20 11 -38 38t-20 52q-6 40 -6 64q0 20 5 48q0 4 0.5 8t1 6t0.5 4
q0 16 6 41q0 1 13 20.5t13 21.5q0 1 6 14.5t6 14.5q0 2 12.5 18.5t14.5 16.5q3 0 9 10q15 24 32 27q12 2 20 5q6 2 22 2q23 0 35 -5q12 -4 18 -1q10 5 34 5h14q14 0 23 -3q14 -5 31 -23.5t20 -31.5q3 -9 12 -21zM339 608q-2 -10 -8 -17.5t-15 -7.5q-4 0 -12 2.5t-16 5.5
t-15.5 6.5t-10.5 6.5q-7 6 -13.5 13t-4.5 15q2 9 4 22t10 15h17.5t21.5 -1.5t20 -4t13 -7.5q6 -11 8.5 -24t0.5 -24zM79 663q2 11 11.5 14t20.5 3q8 0 15.5 -1t12.5 -1q19 -2 22 -15q14 -6 12.5 -15t-3.5 -18q-3 -12 -8.5 -21.5t-16.5 -9.5t-28 5t-25 13q-19 21 -13 46z
M268 412q3 -1 20 -8q11 -4 22 -4q10 1 10 9q0 11 -16 29l-10 10q-2 0 -23 -17q-18 -15 -3 -19z" />
    <glyph glyph-name="oe" unicode="&#x153;" horiz-adv-x="771" 
d="M316 120q-26 -13 -57 -13q-4 0 -4 1t-2 1q-4 -3 -80 -3q-60 0 -71 6q-42 21 -57 50q-13 25 -22 63q-1 3 -1 45q0 29 4.5 47.5t5.5 33.5q1 12 4 23t3 33q0 62 26 88q9 9 17 9q3 0 12.5 -2t17.5 -2q20 0 27 19q5 18 18 22q3 1 14 1q22 0 43 -6q18 -5 18 -8q0 -1 16 -9
q21 -10 36 -19.5t31 -17.5q26 -13 29 -16q7 -6 40 -26.5t42 -29.5q17 -19 21 -47v-7q0 -31 -10 -53q-2 -4 -2 -10t-1 -9q-1 -2 -1 -10q0 -17 -11 -47q-6 -12 -11 -17t-23 -29q-33 -44 -72 -61zM317 306q0 4 -7 16q-6 10 -10 25q-4 20 -37 40q-3 2 -28.5 20.5t-34.5 21.5
l-11 5q-3 0 -7 -18q-3 -11 -15 -27q-14 -18 -14 -19q-2 -5 -4 -5q-1 0 -5 -16q-3 -12 -3 -20q0 -3 2 -23q4 -30 5 -34q6 -33 14 -40q4 -2 11 -2q22 0 43 8q47 17 74 44q10 10 18 15q9 5 9 9zM712 368q-9 -18 -29 -22q-7 -1 -11 -11q-7 -15 -26.5 -25.5t-41.5 -10.5
q-7 0 -25 -5t-26 -5q-45 0 -51 6q-2 2 -10 2q-6 1 -7.5 -1t-1.5 -7q0 -13 8.5 -30t14.5 -17t42.5 -12.5t45.5 -14.5q6 -1 9 1t10 12q17 23 39 23q13 0 31 -8q12 -6 18 -8q30 -12 39 -34q4 -16 4 -25q0 -5 -2 -13q-5 -12 -20.5 -26t-25.5 -14q-6 0 -11 -5q-17 -12 -68 -12
q-11 0 -25 2q-7 1 -16 -1q-2 -1 -9 -1q-9 0 -25.5 2.5t-35.5 6t-26 4.5q-37 4 -66 19q-20 11 -38 38t-20 52q-6 40 -6 64q0 20 5 48q0 4 0.5 8t1 6t0.5 4q0 16 6 41q0 1 13 20.5t13 21.5q0 1 6 14.5t6 14.5q0 2 12.5 18.5t14.5 16.5q3 0 9 10q15 24 32 27q12 2 20 5
q6 2 22 2q23 0 35 -5q12 -4 18 -1q10 5 34 5h14q14 0 23 -3q14 -5 31 -23.5t20 -31.5q3 -9 12 -21q16 -20 17 -65q0 -30 -3 -36zM564 412q3 -1 20 -8q11 -4 22 -4q10 1 10 9q0 11 -16 29l-10 10q-2 0 -23 -17q-18 -15 -3 -19z" />
    <glyph glyph-name="quoteleft" unicode="&#x2018;" horiz-adv-x="263" 
d="M65 575q2 43 13 64q0 1 1.5 5t2.5 6q4 9 21.5 15.5t36.5 6.5q14 0 29 -9q14 -9 17 -9q12 0 24 -38q2 -7 5 -7q2 0 3.5 -2t-1.5 -2t-2 -19q0 -17 -2.5 -36.5t-3.5 -35.5q-7 -70 -11 -77q-9 -9 -18 -17q-27 -24 -66 -24h-6q-19 0 -25 4q-2 2 -13 6t-12 6q-5 7 -5 33
q2 55 5 58q2 2 2 23q0 16 2 24.5t3 24.5z" />
    <glyph glyph-name="quoteright" unicode="&#x2019;" horiz-adv-x="263" 
d="M65 575q2 43 13 64q0 1 1.5 5t2.5 6q4 9 21.5 15.5t36.5 6.5q14 0 29 -9q14 -9 17 -9q12 0 24 -38q2 -7 5 -7q2 0 3.5 -2t-1.5 -2t-2 -19q0 -17 -2.5 -36.5t-3.5 -35.5q-7 -70 -11 -77q-9 -9 -18 -17q-27 -24 -66 -24h-6q-19 0 -25 4q-2 2 -13 6t-12 6q-5 7 -5 33
q2 55 5 58q2 2 2 23q0 16 2 24.5t3 24.5z" />
  </font>
</defs>
</svg>
