<?xml version="1.0" standalone="no"?>
<!DOCTYPE svg PUBLIC "-//W3C//DTD SVG 1.1//EN" "http://www.w3.org/Graphics/SVG/1.1/DTD/svg11.dtd" >
<svg xmlns="http://www.w3.org/2000/svg" xmlns:xlink="http://www.w3.org/1999/xlink" version="1.1">
<metadata>
Created by FontForge 20170731 at Sun Dec 27 21:47:53 2020
 By Aleksey,,,
</metadata>
<defs>
<font id="PumpkinCheesecakeRegular" horiz-adv-x="753" >
  <font-face 
    font-family="Pumpkin Cheesecake"
    font-weight="400"
    font-stretch="normal"
    units-per-em="2048"
    panose-1="0 0 0 0 0 0 0 0 0 0"
    ascent="1638"
    descent="-410"
    x-height="980"
    cap-height="984"
    bbox="85.3774 -322.2 1002.03 1434"
    underline-thickness="102"
    underline-position="-307"
    unicode-range="U+000A-2318"
  />
<missing-glyph horiz-adv-x="1079" 
d="M102 1434h875v-1434h-875v1434zM160 1393l379 -633l381 633h-760zM514 717l-369 614v-1231zM541 674l-379 -631h758zM565 717l371 -621v1239z" />
    <glyph glyph-name=".notdef" horiz-adv-x="1079" 
d="M102 1434h875v-1434h-875v1434zM160 1393l379 -633l381 633h-760zM514 717l-369 614v-1231zM541 674l-379 -631h758zM565 717l371 -621v1239z" />
    <glyph glyph-name=".null" horiz-adv-x="0" 
 />
    <glyph glyph-name=".null" horiz-adv-x="0" 
 />
    <glyph glyph-name="nonmarkingreturn" horiz-adv-x="682" 
 />
    <glyph glyph-name="LF" unicode="&#xa;" horiz-adv-x="0" 
 />
    <glyph glyph-name="controlCR" unicode="&#xd;" horiz-adv-x="0" 
 />
    <glyph glyph-name="space" unicode=" " horiz-adv-x="368" 
 />
    <glyph glyph-name="exclam" unicode="!" horiz-adv-x="337" 
d="M233 322q2 -47 1 -71q-2 -32 -16 -53q-14 -19 -36 -20.5t-39 14.5q-14 14 -19 36q-6 23 -8 70q-2 87 -6.5 296.5t-6.5 296.5q0 31 2 40q4 20 19 32.5t34 13.5t35 -11.5t21 -31.5q1 -6 4 -40q2 -54 6.5 -195t4.5 -149h-4q1 -38 4 -114t4 -114zM181 100q22 -2 36 -16.5
t14 -36.5q0 -23 -16 -38.5t-39 -15.5t-38 16.5t-14 39.5t17.5 38t39.5 13z" />
    <glyph glyph-name="quotedbl" unicode="&#x22;" horiz-adv-x="503" 
d="M218 860h1v-96q-2 -37 -10 -54q-17 -34 -47 -34q-32 0 -47 34q-11 25 -11 49q-2 136 -2 203q0 9 4 25q6 20 22 31.5t35 10.5q18 -1 32.5 -12.5t18.5 -29.5q4 -15 4 -35v-92zM400 864v-102q0 -28 -13 -48q-16 -24 -42 -24.5t-42 24.5t-16 48q-1 39 -1.5 109.5t-0.5 93.5
q0 7 1 10q4 24 20 38.5t38 13.5q20 -1 35.5 -15.5t18.5 -36.5q2 -12 2 -35v-76z" />
    <glyph glyph-name="numbersign" unicode="#" horiz-adv-x="755" 
d="M632 428q21 -15 22 -39t-19 -40q-16 -13 -36 -16q-7 -1 -20 -3.5t-20 -3.5q-18 -3 -18 -21v-91q0 -40 -7 -66q-7 -23 -18 -35q-13 -14 -31 -14.5t-32 12.5q-20 20 -23 50q-3 31 -7 86q-1 8 -1 25v25q-1 22 -21 23h-5q-27 1 -33.5 -6t-6.5 -35q0 -13 1 -38t1 -38
q0 -32 -9 -55q-14 -38 -49 -38q-33 0 -49 38q-9 22 -11 70q0 12 -1 35.5t-2 35.5q-1 15 -4.5 19t-19.5 5q-28 2 -44 11q-32 20 -28 55q5 37 40 47q6 2 20 4q25 5 31 11.5t3 29.5q-1 17 -21 17q-7 0 -20.5 -0.5t-20.5 -0.5q-21 0 -34 6q-39 17 -36 56q3 37 37 49q6 2 35 7
q1 0 35 3q15 2 19.5 6t5.5 18q1 18 1 53.5t1 53.5q0 27 3 40q5 22 21 35.5t36 13.5q22 0 37.5 -15t18.5 -40q1 -6 1 -36q0 -12 -1 -35.5t-1 -35.5q0 -36 6.5 -42.5t40.5 -2.5q18 2 23.5 7.5t6.5 24.5q1 16 1.5 48t1.5 48q2 30 8 50t22 32t35 10q20 -2 35 -16.5t18 -36.5
q1 -8 1 -26v-50h-2q-2 -24 -2 -36q0 -4 -1.5 -12.5t-1 -15.5t3.5 -12q3 -6 9 -8.5t14.5 -3t12.5 -2.5q31 -12 37 -17q17 -14 17.5 -33t-15.5 -34q-19 -17 -45 -22q-29 -6 -33 -12t-4 -40q0 -18 18 -19q18 0 36 -3q23 -3 37 -14zM422 463v22q-1 12 -6 16t-17 3q-9 0 -25 -2
q-13 -2 -17 -7t-5 -20q-1 -27 5 -33.5t34 -5.5q5 0 15 2q13 2 14 12z" />
    <glyph glyph-name="dollar" unicode="$" 
d="M650 573q5 -28 -4 -49q-16 -36 -51 -36q-38 0 -52 34q-4 11 -11 49q-21 109 -80 190q-12 15 -13 16q-6 6 -13 6q-6 0 -6 -11q0 -24 -0.5 -72t-0.5 -71h4q3 -48 7 -137q2 -28 19 -45q50 -52 65 -71q54 -65 73 -144q16 -67 -17 -123q-29 -52 -81 -65q-40 -10 -37 -50
q1 -16 -6 -40q-10 -34 -42 -38q-34 -5 -52 33q-14 31 -14 64q0 31 -28 42q-76 30 -124 108l-63 105q-20 34 -21 62q-2 43 30 54q30 11 56 -13q15 -14 43 -57q13 -21 65 -102q5 -8 22 -21q1 -1 4 0t4 2q2 5 2 15q-2 31 -5.5 94t-4.5 94q-1 17 -16 30q-47 43 -67 62
q-53 50 -88 111q-54 105 -17.5 200.5t131.5 134.5q1 0 6 2.5t8 3.5q23 6 21 34v51q0 20 3 30q5 19 21 31.5t35 11.5q20 -1 35 -13.5t19 -32.5q0 -1 3 -35q2 -18 0 -36q-3 -42 35 -59q45 -19 94 -84q85 -111 109 -265zM306 606v91h-6v41q1 40 0 40q0 2 0.5 12t-1.5 15t-10 7
q-3 2 -6.5 0t-5.5 -2.5t-5.5 -4t-5 -5.5t-4.5 -5.5t-4 -5.5q-37 -44 -22 -99q13 -45 55 -89q4 -4 9 -2q6 3 6 7zM449 256q-5 -50 2 -89q2 -6 8 -3q1 0 2 1t2 1l9 18q4 33 -23 72z" />
    <glyph glyph-name="percent" unicode="%" horiz-adv-x="862" 
d="M629 847q-68 -170 -103 -254q-15 -37 -57.5 -134.5t-76.5 -180t-52 -136.5q-17 -51 -36 -95q-11 -28 -33 -45q-24 -19 -47.5 -10t-27.5 40q-1 7 -1 15q1 35 18 84q18 55 49.5 135t57 141t65.5 154.5t53 125.5q18 43 50 123.5t39 97.5q14 34 16 37q24 38 67 24
q19 -7 30 -25.5t7 -38.5t-18 -58zM398 720q-16 -66 -77 -96t-122 0q-95 46 -97 154q0 29 11 59q17 47 46 72.5t85 22.5q103 0 142 -93q26 -62 12 -119zM241 815q-20 -5 -20 -37q0 -28 22 -43q13 -9 26.5 -3t14.5 22q1 17 -5 35q-14 32 -38 26zM608 403q70 6 113.5 -44.5
t37.5 -106.5q-5 -54 -44 -92.5t-92 -43.5q-48 -5 -84 16.5t-52 65.5q-31 82 12 156q24 40 65 44q40 4 44 5zM611 234q11 1 19.5 10t9.5 20q0 7 -5.5 13t-12.5 7q-11 1 -20 -5t-10 -15q-1 -12 5 -21.5t14 -8.5z" />
    <glyph glyph-name="ampersand" unicode="&#x26;" horiz-adv-x="491" 
d="M225 610q-15 -9 -16 -20q-1 -17 14 -27q7 -4 17 -6q2 0 10.5 -0.5t12.5 -1.5q27 -7 36.5 -31t-6.5 -47q-3 -4 -7 -8.5t-9 -10t-8 -8.5q-35 -42 -28 -84q0 -4 5 -6q1 -1 4.5 -0.5t4.5 1.5q5 4 12.5 12.5t12.5 12.5q25 20 53.5 11t36.5 -40q5 -17 5 -44l-3 -237
q0 -14 -3 -27q-4 -19 -18.5 -30.5t-33.5 -10.5t-32.5 13.5t-15.5 32.5v9.5v12v10.5q0 20 0.5 59t0.5 59q0 28 -5 39q-4 1 -10 1q-55 4 -87 37t-34 89q-2 45 16 84q10 22 -8 40q-34 34 -39 85q-4 49 25.5 87t81.5 50q19 4 59 8q16 1 16 17q0 7 -1.5 23t-1.5 23q0 17 -1 50
t-1 50q0 32 10 53q11 23 35.5 24.5t38.5 -20.5q12 -17 15 -42q6 -46 7 -68q2 -38 4 -118q0 -24 -1 -36q-2 -26 -21.5 -45.5t-48.5 -18.5q-20 1 -59 1q-22 0 -35 -7z" />
    <glyph glyph-name="quotesingle" unicode="'" horiz-adv-x="337" 
d="M235 798q0 -36 -1 -53q0 -15 -5 -30q-12 -34 -43 -38t-50 28q-12 20 -16 58q-4 44 -17 166q-2 25 4 40q14 35 49 38q31 3 51 -27q12 -20 14 -43q9 -88 14 -139z" />
    <glyph glyph-name="parenleft" unicode="(" horiz-adv-x="495" 
d="M383 38q12 -24 9 -45.5t-19 -32.5q-36 -26 -78 12q-13 12 -33 38q-87 113 -130 279q-32 127 -29 219q1 189 64 353q21 57 52 99q16 22 35 36q16 11 36 11t34 -12q32 -27 14 -69q-3 -8 -7 -13q-53 -64 -88 -204q-59 -239 30 -478q28 -74 77 -142q22 -30 33 -51z" />
    <glyph glyph-name="parenright" unicode=")" horiz-adv-x="458" 
d="M356 346q3 -124 -31 -259q-14 -56 -37 -94q-14 -23 -30 -34q-35 -24 -67 0q-27 20 -19 58q4 15 9 24q42 77 53 205q22 270 -61 551q-18 57 -51 122q-15 29 -18 42q-4 18 3.5 35.5t22.5 25.5q34 20 66 -7q12 -10 29 -42q56 -105 87 -242q42 -189 44 -385z" />
    <glyph glyph-name="asterisk" unicode="*" horiz-adv-x="710" 
d="M568 922q-28 -18 -42 -26q-3 -3 -1 -7t3 -5.5t5 -4t5 -3.5q30 -22 40 -38q19 -33 3 -58q-14 -23 -49 -21q-20 1 -48 14q-6 3 -15.5 8t-15.5 8q-9 5 -13 -5q-2 -5 -4.5 -15.5t-3.5 -13.5l-12 -39q-10 -21 -29 -30t-38 -4q-45 13 -42 67q0 3 3.5 17.5t1.5 22.5
q-3 3 -6.5 3.5t-5.5 0t-6 -3t-5 -2.5q-14 -6 -40.5 -20.5t-40.5 -20.5q-24 -12 -50 -9q-34 3 -46 34t10 57q12 14 37 25q68 32 98 52q-1 5 -3.5 9t-4 5l-7.5 5l-5 3l-93 63q-25 18 -31 25q-24 26 -9 62q12 31 53 31q21 0 47 -17q17 -11 52.5 -35.5t53.5 -35.5q2 -1 7 -5
t7 -5t8 -3t10 1q2 11 6 32t6 32q5 23 18 41q19 24 43.5 21.5t38.5 -29.5q9 -17 11 -49q0 -4 -0.5 -14.5t1 -18.5t5.5 -17q29 12 40 15q25 8 50 5q26 -4 37 -24t0 -44q-9 -21 -34 -36z" />
    <glyph glyph-name="plus" unicode="+" horiz-adv-x="700" 
d="M566 573q32 -16 32 -48q0 -31 -34 -46q-14 -7 -44 -9q-46 -2 -71 -4q-13 -1 -16.5 -5t-4.5 -18l-3 -81q-2 -35 -12 -54q-17 -33 -47 -33q-29 0 -46 34q-10 20 -10 44v46t-1 46q-1 21 -22 21q-34 1 -102 1q-25 0 -44 8q-43 18 -38 60q5 40 45 48q9 2 40 2q17 0 51 -0.5
t51 -0.5q12 0 16.5 4.5t5.5 17.5q0 10 1 30t1 30q2 34 4 41q5 24 22.5 36.5t40.5 10.5q21 -2 35 -17t15 -39q1 -11 -0.5 -29.5t-1.5 -26.5q0 -7 0.5 -20t0.5 -20q0 -14 16 -16q8 0 23 -1t22 -1q5 0 21 -0.5t25 -1.5q11 -1 29 -9z" />
    <glyph glyph-name="comma" unicode="," horiz-adv-x="378" 
d="M277 24q1 -43 -15 -86q-4 -13 -14 -26q-28 -38 -67 -23q-35 13 -35 57q0 11 3 20q4 16 -11 25q-34 22 -36 73t39 71q44 23 86 -7q35 -25 47 -81z" />
    <glyph glyph-name="hyphen" unicode="-" horiz-adv-x="681" 
d="M547 584q33 -15 33 -46q0 -34 -31 -49q-21 -11 -54 -13q-16 0 -63.5 -2t-73.5 -2q-32 -1 -89 0t-73 1q-7 1 -17.5 1.5t-18 1t-14.5 2.5q-21 5 -33 20t-11 35q1 21 14.5 36.5t35.5 19.5h26q208 2 314 4q36 0 55 -9z" />
    <glyph glyph-name="period" unicode="." horiz-adv-x="364" 
d="M185 154q32 0 55.5 -24.5t22.5 -58.5t-24.5 -57.5t-56.5 -23.5t-56.5 23.5t-23.5 57.5q0 37 23 60t60 23z" />
    <glyph glyph-name="slash" unicode="/" horiz-adv-x="718" 
d="M576 969q41 -13 39 -59q-1 -22 -11 -44q-5 -11 -20 -44.5t-24 -51.5q-9 -19 -57.5 -115.5t-68.5 -137t-58 -118t-65.5 -138.5t-51.5 -118q-28 -67 -52 -105q-18 -28 -38 -39q-20 -10 -39 -2t-25 30q-6 21 3 50q17 52 26 72q95 226 316 664q10 19 27 56.5t20 44.5
q12 26 16 32q25 35 63 23z" />
    <glyph glyph-name="zero" unicode="0" horiz-adv-x="716" 
d="M589 733q24 -87 26 -218q-6 -234 -27 -308t-62 -128q-45 -59 -105.5 -74t-128.5 16q-82 38 -128 119q-39 65 -51 143q-20 113 -5 277t64 268q23 49 45 80q22 29 49 51q42 33 95 23q76 -14 124 -65q76 -80 104 -184zM476 245q10 40 15.5 127t4.5 147q3 61 -10 137
q-18 103 -77 169q-22 26 -43 34q-15 6 -24.5 4t-20.5 -14q-20 -23 -38 -60q-46 -93 -59 -245t8 -254q9 -49 37 -95q29 -49 73 -68q53 -24 89 22q30 38 45 96z" />
    <glyph glyph-name="one" unicode="1" horiz-adv-x="475" 
d="M236 783q0 29 -7 39q-7 1 -13 -1.5t-12.5 -7t-10.5 -6.5q-28 -12 -49 -7q-24 5 -35.5 26.5t-2.5 44.5q8 20 24 32q15 11 45 33.5t45 33.5q12 9 27 14q29 9 52.5 -1.5t35.5 -37.5q9 -21 10 -39q7 -65 8 -116q2 -80 6 -269t6 -269q1 -29 3.5 -82t3.5 -70q2 -35 -7 -60
q-14 -37 -48 -40q-37 -3 -54 38q-8 19 -10 60q-1 62 -5 186t-6 185q-1 27 -2.5 146t-3.5 168z" />
    <glyph glyph-name="two" unicode="2" horiz-adv-x="763" 
d="M297 156q-14 -19 -15 -33q23 0 148 13q18 2 53 7t52 7q22 2 66 2q20 0 38 -13q20 -14 21.5 -35.5t-15.5 -38.5q-21 -21 -54 -26q-42 -7 -115 -16q-112 -15 -268 -22q-35 -2 -51 2q-34 8 -47 37t1 53q18 40 48 77q26 33 71.5 114.5t62.5 106.5q69 102 111 194
q44 95 38 187q-2 34 -16 63q-17 34 -53 31q-95 -10 -147 -78q-3 -4 -10.5 -16t-12.5 -18q-13 -16 -32 -20.5t-36 3.5q-38 18 -32 63q4 24 23 50q62 91 185 125q39 11 65 11q99 -2 148 -83q33 -55 36 -136q3 -99 -36 -198q-83 -212 -128 -278q-14 -20 -30.5 -42.5t-37 -50
t-31.5 -42.5z" />
    <glyph glyph-name="three" unicode="3" horiz-adv-x="681" 
d="M471 448q-5 -5 -15.5 -17t-15.5 -17q4 -8 11.5 -12.5t17 -8t14.5 -6.5q101 -65 95 -178q-3 -41 -25 -82q-34 -63 -101.5 -100.5t-161.5 -22.5q-45 7 -77 22q-28 15 -39 31q-16 24 -4.5 48.5t39.5 27.5q8 1 50 -4q8 -1 30.5 -5t34.5 -5q80 -8 122 58q22 34 12.5 65
t-46.5 48q-42 18 -79 17q-10 0 -30.5 -0.5t-30.5 -0.5q-22 0 -37.5 12t-20.5 28q-11 40 24 67q11 8 35 22q49 29 99 79q32 32 56 78q30 63 26 110.5t-41 106.5q-17 27 -38 40q-32 22 -65.5 15t-52.5 -41q-18 -31 -25 -72q-12 -66 -10 -169q0 -38 -1 -45q-5 -36 -35 -47
q-23 -9 -45 0.5t-29 33.5q-6 20 -8 50q-4 76 10 184q8 65 39 120q44 80 128.5 100t159.5 -31q26 -18 49 -45q61 -78 76.5 -149t-13.5 -166q-24 -73 -82 -139z" />
    <glyph glyph-name="four" unicode="4" horiz-adv-x="694" 
d="M572 894q8 -146 8 -386q2 -59 6 -203t6 -203v-41q0 -18 -9 -33q-15 -25 -41 -27.5t-45 18.5q-17 18 -20 51q-6 45 -8 162q0 74 -2 122q0 16 -16 16q-37 0 -56 -1q-31 -1 -93.5 -3.5t-94.5 -3.5q-31 0 -40 2q-38 7 -55 37t-4 67q3 11 18 36q92 159 120 359q1 9 4 27.5
t5 27.5q4 20 8 29q8 17 24.5 26t33.5 7q20 -3 33.5 -17t14.5 -34q2 -31 -3 -61q-28 -200 -102 -354q-6 -12 -7 -19q-2 -9 8 -11t14 -2q27 1 81.5 3t81.5 3q21 1 22 21v21q-6 236 -8 350q0 42 1 50q3 22 18.5 36.5t35.5 15.5t37 -12.5t21 -35.5q1 -6 1.5 -12.5t1 -15
t0.5 -12.5z" />
    <glyph glyph-name="five" unicode="5" horiz-adv-x="722" 
d="M220 636q0 -34 8 -43q5 0 10.5 2t8.5 4.5t8 7t7 6.5q44 32 79 45q61 23 119 6t97 -70q21 -29 32 -57q27 -72 31 -167t-18 -169q-22 -71 -68 -123q-82 -92 -199 -75q-58 9 -108 28q-28 10 -43 27q-17 20 -11 42t30 32q20 7 50 2q73 -10 85 -13q76 -16 121 52
q31 46 40 126.5t-3 134.5q-8 40 -18 63q-38 87 -119 40q-27 -16 -59 -48q-19 -20 -55 -60q-23 -25 -28 -29q-28 -20 -58 -10.5t-42 41.5q-4 13 -6 30q-6 75 -6 76q-1 59 -2 177.5t-1 177.5q0 20 2 30q5 30 27.5 48.5t51.5 15.5q51 -6 133.5 -5.5t134.5 -0.5q40 -2 55 -10
q31 -15 32 -42q3 -30 -31 -48q-30 -15 -64 -15q-21 1 -63.5 -3t-63.5 -4q-12 1 -35.5 2.5t-35.5 1.5q-15 0 -19.5 -4t-6.5 -18q0 -2 -0.5 -8t-0.5 -8q0 -62 2 -188z" />
    <glyph glyph-name="six" unicode="6" horiz-adv-x="735" 
d="M109 311q-2 18 -7 101q3 242 35 326q32 85 84 144q61 69 138 90q86 22 159 -31q49 -36 78 -92q35 -65 38 -151q1 -29 -10 -60q-8 -21 -26 -31t-39 -6q-42 8 -45 53q-1 9 0 25t1 21q-2 73 -42 122q-51 63 -121 20q-39 -24 -69 -73q-44 -69 -61 -309q-5 -69 2 -116
q2 -9 9 -10q4 0 9 5l27 30q81 79 195 61q58 -9 100.5 -53.5t50.5 -104.5q13 -95 -32 -171q-62 -107 -186 -101q-84 4 -162 55q-53 34 -86 104q-30 62 -40 152zM295 158q41 -31 101 -40q50 -3 74 26q40 51 27 114q-6 30 -28.5 46t-53.5 12q-52 -6 -76 -45l-51 -87
q-9 -14 7 -26z" />
    <glyph glyph-name="seven" unicode="7" horiz-adv-x="759" 
d="M505 807q1 2 23 55q-52 2 -145.5 -1.5t-136.5 -2.5q-52 2 -86 9q-26 5 -40 19q-25 25 -15 56q9 33 43 39q10 2 30 0q45 -6 157.5 -2t157.5 2q40 -1 86 -8q23 -4 38 -11q41 -20 41 -66q0 -28 -9 -49q-4 -8 -15.5 -38t-19.5 -46q-17 -37 -50.5 -103.5t-46.5 -92.5
q-44 -92 -98 -327q-12 -54 -18 -104q-3 -33 -9 -66q-5 -29 -18 -47q-17 -25 -45 -23t-42 30q-8 16 -8 50q-1 50 17 146q46 246 113 385q32 66 96 196z" />
    <glyph glyph-name="eight" unicode="8" horiz-adv-x="684" 
d="M439 20q-54 -21 -104 -20q-30 2 -45 4q-159 25 -185 200q-6 44 2 76t33 77q21 39 73 109l57 78q9 13 -1 23q-15 16 -46 47q-40 40 -55 67q-58 100 4 197q63 99 188 104q69 3 115.5 -40.5t50.5 -113.5q3 -53 -18 -109q-26 -70 -66 -131q-16 -23 1 -46q57 -75 94 -161
q3 -7 11 -25t10.5 -25t7.5 -20.5t7.5 -25.5t4.5 -27q11 -80 -26.5 -144.5t-112.5 -93.5zM462 235q-2 43 -36 115.5t-69 102.5q-36 -33 -75 -79t-49 -74q-13 -37 -13 -53q2 -129 115 -129q24 0 50 8q80 23 77 109zM278 729q11 -14 35 -38.5t31 -31.5q47 65 64 137q3 13 1 30
q-4 35 -40 37q-48 3 -83 -30q-51 -49 -8 -104z" />
    <glyph glyph-name="nine" unicode="9" horiz-adv-x="694" 
d="M437 472q0 2 -3 14q-53 -16 -65 -19q-58 -15 -118 14q-34 15 -56 36q-128 121 -80 282q45 153 217 180q93 14 181 -36q78 -44 78 -133q0 -84 -13 -182q-16 -129 -66 -507q-3 -20 -11 -60q-7 -29 -23 -45q-18 -19 -41 -16t-36 25q-10 17 -10 39q0 7 0.5 20.5t1 24.5
t1.5 21q5 45 21 171.5t22 170.5zM453 841q-43 23 -82 23q-55 1 -97 -31t-51 -82q-15 -78 43 -139q32 -34 69 -32t67 37l15 21q38 61 56 161q5 29 -20 42z" />
    <glyph glyph-name="colon" unicode=":" horiz-adv-x="391" 
d="M287 351q6 -35 -15.5 -67t-56.5 -40q-36 -8 -68 11.5t-42 54.5q-7 25 2 50t30 39q43 29 66 27q32 -1 55.5 -21.5t28.5 -53.5zM159 615q-28 8 -43 32t-11 53q8 49 58 79q30 18 67 -5q35 -23 40 -70q1 -43 -34.5 -71.5t-76.5 -17.5z" />
    <glyph glyph-name="semicolon" unicode=";" horiz-adv-x="395" 
d="M272 55q20 -35 22 -83q-2 -56 -37 -97q-8 -11 -23 -19q-25 -14 -50 -2t-26 40q-1 42 -30 68q-33 29 -23 84q7 40 44.5 58t73.5 0q29 -15 49 -49zM200 464q-32 0 -55 23t-22 55q1 34 24.5 59t54.5 24q32 -1 54 -23.5t22 -54.5q0 -34 -22.5 -58.5t-55.5 -24.5z" />
    <glyph glyph-name="less" unicode="&#x3c;" horiz-adv-x="653" 
d="M536 291q21 -24 11 -51q-10 -28 -43 -31q-3 0 -7.5 -0.5t-6.5 -0.5q-35 4 -51 10q-103 36 -200 85q-58 30 -90 66q-18 19 -31 40q-31 52 -1 106q20 35 53 67q2 2 118 112q90 86 136 129q12 12 19 16q37 23 67 -2q26 -22 18 -60q-4 -20 -23 -39q-15 -16 -47 -46
q-52 -49 -156 -145q-15 -14 -44 -43q-32 -31 -30.5 -43t41.5 -39q25 -17 67 -35q25 -11 72 -30t64 -26q48 -21 64 -40z" />
    <glyph glyph-name="equal" unicode="=" horiz-adv-x="708" 
d="M571 476q36 -17 35 -51q-1 -36 -38 -49q-16 -6 -35 -6q-193 -7 -354 3q-30 2 -44 9q-37 19 -32 58q5 36 40 47q19 6 51 4q169 -10 293 -4q19 1 55 -3q14 -1 29 -8zM149 590q-29 11 -34 41q-5 35 22 54q20 14 43 14q8 0 23.5 0.5t28.5 0.5t24 -1q121 -9 244 -9q1 0 40 -3
q17 -1 37 -16q24 -18 22.5 -45.5t-27.5 -42.5q-20 -12 -64 -12q-32 0 -96 2q-26 1 -241 11l-9 2q-8 2 -13 4z" />
    <glyph glyph-name="greater" unicode="&#x3e;" horiz-adv-x="696" 
d="M549 660q68 -49 31 -124q-18 -34 -37 -60q-50 -71 -119 -152q-65 -75 -102 -114q-28 -31 -61 -45q-30 -12 -52 7q-23 20 -13 51q9 25 20 40q20 26 49 59q107 118 166 199q5 7 14.5 21t11.5 17q9 12 -4 22q-3 3 -18 10q-96 54 -280 174q-36 23 -45 40q-16 28 -0.5 56
t48.5 29q18 1 50 -19q28 -17 83.5 -53t83.5 -53l135 -81q4 -3 12.5 -7.5t15 -8.5t11.5 -8z" />
    <glyph glyph-name="question" unicode="?" horiz-adv-x="557" 
d="M390 921q67 -75 64 -172q1 -39 -18 -104q-33 -110 -50 -146q-14 -29 -47 -138.5t-38 -122.5q-11 -28 -24 -44q-27 -32 -63 -20q-35 11 -35 57q0 17 12 49q5 15 25 79t38.5 118t29.5 78q9 19 39 122q10 41 13 59q8 61 -31 104q-22 25 -50 3q-33 -26 -36 -70
q-1 -6 -1 -17.5v-17.5q-2 -23 -16.5 -37t-35.5 -16t-38 10.5t-21 34.5q-16 71 21 143t115 94q83 24 147 -46zM236 88q21 -1 35.5 -16.5t13.5 -36.5q-2 -20 -16 -33t-34 -13t-34 13.5t-15 33.5q-1 21 14 37t36 15z" />
    <glyph glyph-name="at" unicode="@" horiz-adv-x="958" 
d="M750 859q87 -115 102.5 -226.5t-39.5 -243.5q-16 -39 -48 -71q-38 -38 -85 -42.5t-94 30.5q-2 2 -9 7.5t-11 8.5q-5 -5 -14.5 -12.5t-13.5 -11.5q-27 -22 -52 -31q-44 -17 -87.5 -5t-71.5 50q-55 70 -53.5 171t67.5 177q3 3 9 8.5t9 8.5q45 39 97 36t93 -47
q44 -47 55 -117q5 -35 23 -88q8 -26 21 -46q21 -35 45 0t34 79q19 83 4 149.5t-68 135.5q-52 67 -133 77t-148 -42q-8 -7 -22.5 -15.5t-23 -16.5t-16.5 -21q-74 -117 -95 -270q-15 -109 11 -197q14 -48 31 -73.5t59 -61.5q57 -50 142 -42q63 7 127 48q7 4 25 17t29 20
q25 15 41 20q39 12 60 -13q25 -30 1 -67q-8 -14 -24 -26q-112 -93 -219 -112q-153 -27 -261 67q-72 62 -103 126t-39 160q-10 127 18 234t98 216q46 71 116 119q102 64 224.5 42t188.5 -109zM456 384q40 30 45 94q-2 9 -6.5 31t-10 38t-14.5 30q-20 32 -44 1
q-33 -42 -35.5 -92t26.5 -97q15 -23 39 -5z" />
    <glyph glyph-name="A" unicode="A" 
d="M650 62q2 -18 -7 -34q-11 -21 -32 -26.5t-41 8.5q-21 15 -29 41q-3 10 -6.5 23.5t-7.5 29.5l-6 24q-8 31 -22.5 107t-20.5 103q-6 26 -9.5 33t-13.5 10t-29 0q-44 -1 -127 -5q-15 -1 -19 -4.5t-8 -19.5q-3 -14 -8.5 -57.5t-7.5 -54.5q-5 -27 -16 -81.5t-17 -82.5
q-2 -10 -8 -30q-20 -55 -70 -42q-45 11 -42 69q0 1 0.5 4t1 6.5t0.5 6.5q19 95 49 275t41 233q36 170 69 265q14 38 22 57q7 18 20 35q21 28 51 30t55 -23q20 -20 35 -61q39 -113 50 -149q21 -70 45 -174.5t54 -243.5t48 -217q4 -18 6 -55zM307 498q62 -5 124 3
q-3 40 -27.5 139t-41.5 131q-18 -47 -36.5 -141.5t-18.5 -131.5z" />
    <glyph glyph-name="A" unicode="&#xc5;" 
d="M650 62q2 -18 -7 -34q-11 -21 -32 -26.5t-41 8.5q-21 15 -29 41q-3 10 -6.5 23.5t-7.5 29.5l-6 24q-8 31 -22.5 107t-20.5 103q-6 26 -9.5 33t-13.5 10t-29 0q-44 -1 -127 -5q-15 -1 -19 -4.5t-8 -19.5q-3 -14 -8.5 -57.5t-7.5 -54.5q-5 -27 -16 -81.5t-17 -82.5
q-2 -10 -8 -30q-20 -55 -70 -42q-45 11 -42 69q0 1 0.5 4t1 6.5t0.5 6.5q19 95 49 275t41 233q36 170 69 265q14 38 22 57q7 18 20 35q21 28 51 30t55 -23q20 -20 35 -61q39 -113 50 -149q21 -70 45 -174.5t54 -243.5t48 -217q4 -18 6 -55zM307 498q62 -5 124 3
q-3 40 -27.5 139t-41.5 131q-18 -47 -36.5 -141.5t-18.5 -131.5z" />
    <glyph glyph-name="B" unicode="B" horiz-adv-x="708" 
d="M606 273q3 -33 -4.5 -73.5t-22.5 -66.5q-55 -93 -161 -124q-24 -7 -50.5 -8.5t-62.5 0t-52 1.5h-31q-48 1 -59 45q-8 29 -10 65q-6 95 -17 295.5t-17 295.5q-9 130 -15 172q-7 50 20 81.5t83 27.5q189 -12 285 -176q75 -130 -14 -248q-1 -2 -3 -4.5t-3 -3.5
q-8 -11 -8 -15.5t11 -12.5q54 -40 92 -107q31 -55 39 -144zM244 578q2 -14 14 -11q77 17 121 60q28 28 27 69q0 8 -1 15q-8 48 -61.5 97t-102.5 53q-16 2 -16 -15q0 -2 0.5 -7t0.5 -8q2 -38 7.5 -114t8.5 -114q0 -4 1 -12.5t1 -12.5zM462 170q30 33 26 74q0 3 -1 27.5t-3 35
t-11.5 34t-26.5 47.5q-46 63 -116 58q-28 -2 -40 -4q-26 -4 -31.5 -10t-3.5 -32q0 -6 4 -83.5t6 -111.5q0 -10 1 -20.5t2.5 -23.5t2.5 -21q1 -17 5 -18q2 -1 14 -1q9 0 26 -0.5t27.5 -1t25 1t26.5 5.5q38 13 67 44z" />
    <glyph glyph-name="C" unicode="C" horiz-adv-x="731" 
d="M627 99q6 -30 -18 -50q-17 -13 -30 -18q-80 -30 -143 -31q-88 -1 -165 45q-103 63 -145 171q-20 54 -27 98q-38 244 30 455q25 75 64 126q45 58 102.5 75.5t108.5 -0.5t92 -62q27 -29 47 -65q53 -99 65 -266q2 -22 -4 -40q-5 -19 -22 -31t-36 -10q-18 2 -32.5 13.5
t-18.5 29.5q-1 4 -1.5 9t-1 11.5t-0.5 9.5q-12 122 -34 181q-15 40 -44 74q-14 17 -36 28q-39 20 -70 -8q-17 -16 -33 -38q-20 -28 -36 -78q-37 -118 -34 -235q0 -123 14 -180q22 -93 77 -140q85 -74 184 -48q36 10 54 13q32 5 55 -1q33 -10 38 -38z" />
    <glyph glyph-name="D" unicode="D" horiz-adv-x="708" 
d="M521 756q85 -162 85 -336q0 -106 -24 -169q-52 -137 -179 -197q-66 -31 -165 -50q-36 -7 -60 -1q-34 8 -39 41q-10 84 -13 126q-6 75 -9 155.5t-6 204t-4 156.5q-1 35 -2.5 104.5t-2.5 103.5q-1 40 28 67q35 32 75 19q93 -28 129 -45q125 -59 187 -179zM488 382
q11 183 -83 340q-47 79 -148 118q-21 7 -29 3q-5 -6 -5 -29q1 -47 3 -164.5t3.5 -182.5t6.5 -162.5t12 -176.5q51 8 98 29q92 40 127 137q13 34 15 88z" />
    <glyph glyph-name="E" unicode="E" horiz-adv-x="632" 
d="M511 99q18 -18 18.5 -38.5t-17.5 -37.5q-15 -13 -51 -20q-11 -2 -70 -2q-26 1 -77.5 1.5t-78.5 0.5h-26q-65 0 -72 59q-9 67 -12 137q-3 59 -8 183.5t-8 188.5q-3 45 -4 165t-2 158v20q3 29 22.5 48t47.5 20q10 1 27 0t23 -1q122 -2 183 -4q33 -1 66 -6q14 -1 28 -10
q26 -16 26 -44t-26 -44q-24 -14 -64 -14q-27 1 -81 1t-81 1q-41 1 -47 -5t-5 -47q1 -78 5 -234q1 -17 6 -21.5t22 -3.5q18 0 53 2t53 2q29 2 54 -12q27 -15 28.5 -42.5t-23.5 -44.5q-19 -13 -43 -15q-31 -3 -86 -7q-26 -2 -40 -3t-16 -16v-20q2 -39 5.5 -122t5.5 -122
q1 -13 3 -21.5t8.5 -14.5t17.5 -5q26 3 75.5 4t71.5 3q23 3 55 -1q20 -2 34 -16z" />
    <glyph glyph-name="F" unicode="F" horiz-adv-x="628" 
d="M500 967q26 -16 26 -44t-26 -44q-24 -14 -64 -14q-27 1 -81 1t-81 1q-40 1 -46.5 -7t-5.5 -50q1 -76 5 -233q1 -17 6 -22t22 -4q18 1 53 2t53 2q30 2 54 -11q27 -15 28.5 -43t-23.5 -45q-19 -13 -43 -15q-31 -3 -86 -7q-7 -1 -20 -1.5t-20 -0.5q-14 -1 -16 -17v-20
q2 -39 5.5 -121t5.5 -122q1 -7 2 -18q3 -42 3 -68q1 -51 -16 -60l-26 -6q-65 0 -72 59q-9 65 -12 141q-3 59 -8 184t-8 189q-3 45 -4 164.5t-2 157.5v20q3 29 22.5 48t47.5 20q10 1 27 0t23 -1q27 0 88.5 1t94.5 0t66 -6q14 -1 28 -10z" />
    <glyph glyph-name="G" unicode="G" horiz-adv-x="759" 
d="M653 73q0 -1 -0.5 -1t-0.5 -1q-3 -15 -17 -26q-17 -13 -30 -18q-68 -25 -153 -27q-89 -2 -164 45q-103 63 -145 171q-22 59 -28 98q-18 108 -11 234.5t41 230.5q24 72 65 126q45 58 105.5 75.5t115 -1t95.5 -61.5q28 -30 48 -66q52 -97 64 -265q2 -22 -4 -41
q-5 -19 -22 -31t-36 -10q-18 2 -32.5 13.5t-18.5 29.5q-1 6 -2 18t-1 13q-12 121 -34 180q-15 40 -44 74q-19 23 -45 36q-37 19 -75 -15q-15 -14 -33 -39q-20 -28 -36 -78q-37 -118 -34 -235q0 -128 15 -189q23 -94 76 -140q89 -77 184 -53q10 3 26.5 9.5t23.5 8.5
q10 3 10 18v120q0 54 -24 54h-78q-23 0 -36 15.5t-12.5 34t13.5 34t35 15.5h98q100 0 100 -60q1 -28 2 -66t2.5 -131t-3.5 -98v-1z" />
    <glyph glyph-name="H" unicode="H" horiz-adv-x="739" 
d="M636 929v-31q-2 -61 -5 -185t-4 -185l-3 -371q0 -44 -2 -66q-2 -23 -7 -40q-7 -25 -23 -38t-34 -11q-19 2 -32 17.5t-16 40.5q-3 20 -3 61q0 31 0.5 122t0.5 122v17q1 18 0 18q-2 15 -16 17q-72 9 -96 9q-49 0 -147 -6q-19 -1 -24 -6t-5 -25v-218q0 -5 1 -34t0 -41
q-2 -30 -7 -51q-11 -43 -48 -45q-38 -2 -52 40q-6 18 -9 40q-2 10 -2 30q-4 290 6 543l6 243q0 32 7 51q15 40 52 40q39 0 54 -39q6 -15 6 -45q0 -23 -2 -71t-2 -71q-1 -30 -3 -89t-3 -89q0 -21 1 -31q2 -12 14 -12h25q18 0 56 1t56 2q65 2 111 -7q22 -4 23 19v25
q2 52 5 157.5t4 157.5q0 23 4 40q5 24 22.5 37.5t39.5 11.5q21 -2 35 -17t16 -38z" />
    <glyph glyph-name="I" unicode="I" horiz-adv-x="342" 
d="M239 198q3 -67 -2 -121q-2 -19 -6 -35q-13 -42 -52 -42q-43 0 -54 44q-4 15 -4 46v106q-1 54 -4.5 157t-4.5 128q0 182 -9 402q-2 35 1 51q4 22 19.5 35.5t36.5 14.5t36.5 -12t20.5 -36q4 -16 4 -51q2 -79 6 -257t6 -257q0 -26 1 -54.5t2.5 -63.5t2.5 -55z" />
    <glyph glyph-name="J" unicode="J" horiz-adv-x="702" 
d="M601 896v-201q-1 -19 -4.5 -129t-7 -178t-9.5 -113q-7 -47 -20 -105q-7 -31 -33 -74q-39 -63 -105.5 -85.5t-133 0t-107.5 82.5q-30 45 -45 96q-6 21 -16 58.5t-13 49.5q-7 25 -4 45q2 20 13.5 34.5t28.5 17.5q35 7 56 -26q13 -20 21 -46q4 -12 22 -84q11 -42 32 -74
q29 -45 80 -45q45 0 69 36q16 25 24 56q4 17 7.5 59t7 89.5t4.5 59.5q12 131 14 330q0 101 1 152q0 18 5 40q11 39 51 41t55 -36q7 -16 7 -50z" />
    <glyph glyph-name="K" unicode="K" horiz-adv-x="761" 
d="M657 76q12 -45 -23 -67q-35 -21 -69 13q-13 13 -22 28q-16 30 -43 68.5t-48.5 66.5t-56.5 72t-48 60q-32 42 -94 126q-10 14 -16 20l-5 7q-6 6 -8 7q-3 -5 -3 -22q0 -26 1 -40q3 -45 8.5 -136.5t8.5 -137.5q1 -11 2 -33t2 -33q1 -23 -12 -48q-14 -25 -41 -27t-44 21
q-10 13 -14 27q-5 17 -7 39q-2 40 -10 143t-11 176.5t-1 142.5v342q0 34 6 50q14 39 53 41q41 2 56 -43q4 -12 4 -45q0 -23 -1 -85t-1 -85q0 -17 1 -25q0 -13 3 -16q4 -4 14 9q4 4 7.5 8t8 9.5t7.5 8.5q81 91 185 230q8 10 13 15q34 32 70 10q16 -10 22.5 -28.5t1.5 -38.5
q-7 -24 -27 -48q-41 -51 -82 -97q-18 -21 -60.5 -75t-65.5 -79q-16 -18 -16.5 -23.5t14.5 -26.5q156 -207 193 -255q101 -131 130 -185q13 -25 18 -41z" />
    <glyph glyph-name="L" unicode="L" horiz-adv-x="675" 
d="M590 110q33 -19 32 -53q-1 -17 -14 -30.5t-32 -17.5q-9 -2 -41 -2q-25 0 -74 -0.5t-73 -0.5v-1q-17 -1 -50.5 -2.5t-50.5 -1.5q-15 -1 -46 -1q-50 0 -70.5 17.5t-25.5 66.5q-11 96 -15 192q-23 439 -25 577q0 17 -2 51v30q6 40 46 47q38 6 59 -30q10 -17 12 -49
q3 -67 7 -187q12 -327 29 -551q0 -11 1 -16q2 -20 7 -24.5t24 -4.5q49 1 152 5q69 4 111 -3q27 -4 39 -11z" />
    <glyph glyph-name="M" unicode="M" horiz-adv-x="919" 
d="M811 663q1 -87 3 -261.5t3 -261.5q0 -22 -2 -66q0 -20 -12 -44q-17 -31 -49 -30q-31 2 -43 31q-8 18 -9 28q-2 13 -2 41q-1 74 -2.5 223t-2.5 224q0 42 -4 56q-9 -13 -20 -47q-17 -53 -50 -172t-49 -171q-5 -15 -18 -68.5t-21 -74.5q-10 -26 -18 -37q-21 -30 -53 -30
t-52 31q-11 16 -23 51q-22 63 -66 217t-66 217q-9 28 -28 77q-7 -16 -7 -47q3 -110 11 -330q0 -21 1.5 -65.5t2.5 -65.5q2 -34 -12 -59q-14 -28 -41.5 -29t-44.5 25q-13 20 -14 38q-1 7 -2.5 20.5t-2.5 24.5t-1 21q-19 369 -12 593q1 41 1 164v25q6 77 83 73q36 -3 53 -35
q6 -12 14 -38q30 -87 89 -303t90 -303q8 -25 26 -50q7 22 19 59.5t16 50.5q13 42 59.5 228t75.5 258q18 45 33 75q11 22 22 34q24 26 56.5 21.5t48.5 -36.5q12 -25 14 -59q4 -101 6 -223z" />
    <glyph glyph-name="N" unicode="N" 
d="M650 305q4 -111 -3 -209q-2 -27 -6 -40q-14 -48 -54 -55q-43 -7 -69 32q-13 20 -27 49q-20 44 -59.5 153t-59.5 153q-70 153 -90 193q-20 43 -37 76l-27 54q2 -53 2 -60q-3 -192 4 -366q1 -28 3 -83.5t3 -83.5q2 -26 0 -51q0 -18 -12 -39q-16 -26 -41 -26.5t-42 24.5
t-19 62q-9 152 -9 158q-5 130 -3 518q0 15 -0.5 71t-0.5 71q0 25 5 41q5 19 22.5 31t35.5 8q27 -7 42.5 -17t28.5 -33q3 -5 9 -15.5t9 -15.5q82 -145 226 -473q5 -12 15.5 -35.5t15.5 -34.5q4 -7 19 -49q0 56 -1 66q-17 288 -14 482q0 17 4 55q2 15 6 30q17 46 57 43
q33 -1 48 -45q4 -12 4 -56q-2 -75 10 -441q1 -49 5 -142z" />
    <glyph glyph-name="O" unicode="O" horiz-adv-x="747" 
d="M645 473q2 -146 -19 -251q-13 -60 -32 -96q-37 -70 -96 -102t-123.5 -22.5t-122.5 56.5q-78 64 -115 171q-33 98 -35 243q-1 123 38 244q51 155 179 245q31 22 67 20q113 -5 173 -91q36 -51 58 -140q30 -123 28 -277zM515 263q10 52 13 206q-2 79 -5 121q-3 39 -9 76
q-9 64 -33 122q-18 45 -49 62q-22 12 -44 4q-37 -13 -69 -50q-43 -51 -67 -124q-29 -91 -32 -194t21 -195q20 -76 70 -127q20 -22 44 -33q36 -18 66.5 -11t57.5 44q10 13 22 45q5 15 14 54z" />
    <glyph glyph-name="O" unicode="&#xd8;" horiz-adv-x="747" 
d="M645 473q2 -146 -19 -251q-13 -60 -32 -96q-37 -70 -96 -102t-123.5 -22.5t-122.5 56.5q-78 64 -115 171q-33 98 -35 243q-1 123 38 244q51 155 179 245q31 22 67 20q113 -5 173 -91q36 -51 58 -140q30 -123 28 -277zM515 263q10 52 13 206q-2 79 -5 121q-3 39 -9 76
q-9 64 -33 122q-18 45 -49 62q-22 12 -44 4q-37 -13 -69 -50q-43 -51 -67 -124q-29 -91 -32 -194t21 -195q20 -76 70 -127q20 -22 44 -33q36 -18 66.5 -11t57.5 44q10 13 22 45q5 15 14 54z" />
    <glyph glyph-name="P" unicode="P" horiz-adv-x="667" 
d="M495 863q93 -99 61 -229q-28 -115 -139 -164q-73 -31 -147 -37q-4 -1 -12.5 -2t-12.5 -1q-13 -2 -13 -13q-1 -13 -1 -41q2 -45 5.5 -134.5t4.5 -134.5q2 -32 -1 -56q-3 -21 -16.5 -35t-32.5 -16q-40 -3 -58 41q-5 13 -7 50l-15 401q-2 64 -4.5 193t-3.5 194v20
q2 36 25.5 59t59.5 25q185 9 307 -120zM375 580q51 24 67.5 76.5t-13.5 99.5q-66 101 -187 106q-11 1 -16 -4t-5 -17v-132v-143q0 -19 26 -17q73 5 128 31z" />
    <glyph glyph-name="Q" unicode="Q" horiz-adv-x="831" 
d="M728 59q6 -30 -19 -49q-24 -18 -53 -4q-10 5 -38 33q-3 3 -14 18t-21 21q-16 -11 -28 -20q-45 -33 -95.5 -41.5t-96 4t-87.5 42.5q-67 48 -107 132q-78 165 -65 354q10 159 89 299q26 45 56 78q76 82 190 52q110 -30 162 -136q49 -101 68 -223q22 -135 15 -281
q-4 -71 -19 -115q-12 -35 12 -66q19 -25 35 -55q12 -22 16 -43zM557 319q8 6 10 14.5t1 20t0 16.5t1 37q-11 215 -49 321q-20 54 -29 70q-26 52 -90 69q-35 9 -61 -16q-24 -23 -45 -61q-95 -171 -69 -381q13 -96 54 -173q29 -55 69 -80q78 -50 144 3q13 11 14 18t-9 20
q-16 21 -49 60.5t-50 60.5q-20 26 -22 29q-22 39 8 69q32 31 70 7q18 -11 31 -26q7 -8 19.5 -23.5t16.5 -19.5q3 -3 9.5 -12t12 -14.5t13.5 -8.5z" />
    <glyph glyph-name="R" unicode="R" horiz-adv-x="706" 
d="M649 73q14 -38 -12 -61q-23 -21 -57 -7q-27 10 -52 41q-74 86 -135 146q-75 75 -141 117q-1 1 -5 3.5t-6 3.5t-8 2.5t-11 -0.5q1 -19 2.5 -58t2.5 -59q1 -13 2.5 -37t2.5 -43.5t1 -36.5q0 -28 -5 -45q-10 -34 -43 -38q-36 -5 -54 29q-10 21 -12 44q-1 8 -3.5 35t-3.5 41
q-13 283 -7 441q2 55 5 289q0 34 1 40q9 69 76 64q24 -1 55 -10q139 -38 221 -128q105 -116 74 -271q-25 -122 -134 -167q-4 -2 -14.5 -4.5t-18 -6t-13.5 -9.5q0 -6 2.5 -9.5t8.5 -7.5t7 -5q112 -96 244 -246q23 -27 30 -47zM313 503q13 3 39 11q58 20 71 86q16 90 -34 152
q-54 67 -140 96q-20 7 -20 -13l-7 -157v-106v-27t-1 -21.5t0.5 -15.5t1 -11.5t4 -6.5t6.5 -3t11.5 1t16 3t23 5.5t29.5 6.5z" />
    <glyph glyph-name="S" unicode="S" horiz-adv-x="698" 
d="M582 751q13 -95 13 -131q-3 -59 -4 -66q-4 -20 -19 -32t-35 -12q-46 0 -56 48l-3 36q-4 73 -7 106q-5 49 -23 88q-13 28 -38 48q-29 27 -70.5 26t-73.5 -39q-94 -110 -2 -243q13 -19 35 -46q12 -15 32 -42t36 -47t33 -37q63 -63 107 -130q26 -40 35 -73
q23 -83 -24.5 -144.5t-133.5 -60.5q-61 0 -114 36q-53 37 -114 101q-16 17 -23 39q-9 30 11 52q19 21 52 12q21 -6 47 -28l57 -51q14 -13 36 -28q23 -16 53 -14q25 2 35.5 17t3.5 38q-6 18 -23 45q-5 7 -15.5 24.5t-16.5 27t-16 23t-20 22.5q-16 18 -62.5 74.5t-70.5 79.5
q-65 64 -90 156q-46 175 90 300q92 84 212 40q86 -32 129 -110q30 -56 37 -105z" />
    <glyph glyph-name="T" unicode="T" horiz-adv-x="741" 
d="M611 977q26 -14 27 -39.5t-24 -42.5q-23 -15 -78 -21q-15 -2 -43 -4t-43 -4q-22 -2 -26 -7t-4 -28v-126q0 -40 -1 -105.5t-2 -105.5q-2 -112 15 -370q4 -55 -6 -85q-12 -35 -42 -39q-35 -5 -53 32q-14 32 -16 69q-16 254 -11 380q0 57 -0.5 159t-0.5 158v40
q-1 13 -6.5 22t-15.5 8q-64 -4 -96 -7q-2 0 -11 -2t-14 -2q-41 0 -54 39q-11 32 15 60q16 16 36 19q55 8 65 8q52 3 150 3t144 2q22 1 66 -3q18 -2 29 -8z" />
    <glyph glyph-name="U" unicode="U" horiz-adv-x="763" 
d="M659 904q0 -24 1 -95.5t1.5 -117.5t-0.5 -106.5t-4 -100.5q-14 -170 -36 -262q-15 -57 -30 -91q-19 -44 -54 -79q-57 -55 -134 -52q-35 1 -75 11q-134 31 -177 165q-19 58 -28 139q-11 101 -12 202q0 18 -2 52.5t-2 44.5h-1q0 34 -2 143.5t-2 143.5q0 27 3 40q4 21 21 34
t38 12q43 -2 52 -47q2 -8 4 -50q1 -41 3 -150.5t4.5 -198.5t7.5 -151q3 -42 13 -121q1 -8 11 -45q16 -53 48.5 -77.5t88.5 -28.5q47 -3 74 35q16 23 29 65q18 59 28 144q19 154 16 294q-1 28 -1 121.5t-1 121.5q0 35 9 54q15 33 46 34q32 1 50 -30q13 -25 13 -53z" />
    <glyph glyph-name="V" unicode="V" horiz-adv-x="776" 
d="M671 944q7 -19 1 -51q-13 -85 -46 -223q-9 -38 -35.5 -197t-45.5 -214q-35 -101 -65 -160q-22 -44 -44 -67q-31 -34 -69 -31.5t-65 40.5q-15 21 -31 69q-51 155 -89 307q-16 62 -40 232.5t-30 202.5q-2 9 -3.5 19t-3 22t-2.5 19q-3 16 4 35q11 34 44 38q35 6 56 -26
q8 -11 14 -48q0 -2 16.5 -102.5t21.5 -128t20.5 -115t25.5 -132.5t25.5 -108t29.5 -109q3 -10 16 -45q13 8 25 38q42 98 71 217q20 79 84 488q3 19 13 39q17 33 54 30q35 -3 48 -39z" />
    <glyph glyph-name="W" unicode="W" horiz-adv-x="1003" 
d="M897 939q6 -21 1 -51q-7 -42 -19.5 -125.5t-18.5 -125.5q-11 -73 -33.5 -255.5t-33.5 -255.5q-6 -40 -11 -60q-5 -21 -15 -37q-18 -27 -48.5 -29t-52.5 21q-16 16 -30 58q-39 123 -125 482q-2 10 -4 15q-2 7 -7 4q-6 -4 -7 -6q-2 -6 -4 -20q-8 -43 -25 -172t-26 -177
q-9 -46 -31 -128q-4 -16 -16 -37q-22 -38 -59.5 -37.5t-57.5 39.5q-12 22 -19 52q-42 166 -68 291q-16 77 -43 263.5t-39 249.5q-4 26 -2 40q2 17 14 29.5t28 16.5q39 8 61 -26q11 -18 17 -53q5 -29 15.5 -92t16.5 -92q10 -50 30.5 -189t30.5 -189q7 -33 15 -42q9 11 13 38
q12 68 35 253t34 249q3 14 6 40t5 40q10 57 57 62q23 2 41.5 -13t25.5 -44q14 -54 41.5 -178.5t41.5 -178.5q8 -29 25 -126.5t26 -128.5q4 -17 16 -21q11 50 25 143q10 65 30 233t30 233q6 37 17 53q19 29 52 26q35 -3 45 -42z" />
    <glyph glyph-name="X" unicode="X" horiz-adv-x="737" 
d="M635 59q2 -42 -29 -55q-32 -13 -61 13q-17 16 -34 50q-17 35 -53.5 114.5t-53.5 114.5q-16 35 -25 42q-6 -4 -9.5 -8.5t-6.5 -14.5t-4 -11q-33 -80 -107 -236q-16 -32 -22 -40q-14 -20 -35 -26t-40 5q-19 10 -26.5 30.5t1.5 44.5q9 21 19 41q87 179 139 322q2 6 6.5 17
t6.5 16t-3.5 17t-16 28t-10.5 17q-3 5 -13 28q-24 50 -71 156t-70 156q-13 31 -14 43q-2 42 34 57q33 14 61 -11q12 -11 29 -47l84 -180q31 -62 49 -77q8 6 15 24q12 32 36 102t36 102q13 31 24 51q14 25 34 33.5t41 0.5q19 -8 26.5 -28t1.5 -46q-6 -24 -15 -48
q-18 -46 -111 -314q-14 -38 5 -77q30 -60 85 -180t76 -163q20 -40 21 -63z" />
    <glyph glyph-name="Y" unicode="Y" horiz-adv-x="829" 
d="M659 983q29 5 49 -13.5t18 -48.5q-1 -14 -9 -40q-114 -350 -176 -498q-12 -27 -10 -70q1 -28 4 -85.5t5 -86.5q0 -12 2 -38t2 -38q1 -21 -14 -43q-14 -20 -38 -22t-41 16q-17 17 -20 40q-6 36 -7 56q-10 184 -11 223q-1 29 -18 51q-23 29 -80 129q-16 29 -81 154.5
t-100 181.5q-18 30 -20 35q-8 18 -10 28q-4 20 4.5 38t25.5 26q38 17 65 -13q8 -9 26 -38q38 -63 111.5 -201t90.5 -169l6 -12t7 -13t7.5 -11t10.5 -10q6 4 10 9.5t6 10t4 13t3 11.5q16 50 61 178.5t63 182.5q6 18 15 37q13 26 39 30z" />
    <glyph glyph-name="Y" unicode="&#xdd;" horiz-adv-x="829" 
d="M659 983q29 5 49 -13.5t18 -48.5q-1 -14 -9 -40q-114 -350 -176 -498q-12 -27 -10 -70q1 -28 4 -85.5t5 -86.5q0 -12 2 -38t2 -38q1 -21 -14 -43q-14 -20 -38 -22t-41 16q-17 17 -20 40q-6 36 -7 56q-10 184 -11 223q-1 29 -18 51q-23 29 -80 129q-16 29 -81 154.5
t-100 181.5q-18 30 -20 35q-8 18 -10 28q-4 20 4.5 38t25.5 26q38 17 65 -13q8 -9 26 -38q38 -63 111.5 -201t90.5 -169l6 -12t7 -13t7.5 -11t10.5 -10q6 4 10 9.5t6 10t4 13t3 11.5q16 50 61 178.5t63 182.5q6 18 15 37q13 26 39 30z" />
    <glyph glyph-name="Z" unicode="Z" horiz-adv-x="770" 
d="M646 99q22 -15 22 -38.5t-21 -38.5q-7 -5 -23 -11q-16 -5 -29 -6q-60 -7 -195.5 -5t-193.5 18q-33 9 -52 21q-62 39 -41 109q7 22 24 56q158 305 169 325q29 53 85.5 145t86.5 148q6 11 12 39q-22 4 -58 4q-65 4 -131.5 3.5t-113.5 -9.5q-30 -2 -35 -2q-19 2 -32.5 15
t-16.5 31q-7 41 29 60q18 9 38 12q54 6 116.5 6.5t135 -1.5t117.5 -1q28 0 41 -2q35 -6 50 -30t5 -59q-6 -19 -19 -47q-35 -72 -102.5 -185t-94.5 -164l-147 -279q-24 -48 -35 -72q11 -16 37 -18q51 -3 223 -3q79 0 111 -7q27 -6 38 -14z" />
    <glyph glyph-name="bracketleft" unicode="[" horiz-adv-x="468" 
d="M327 19q20 -9 30.5 -25t7.5 -34q-3 -19 -17.5 -32.5t-35.5 -14.5q-80 -3 -133 39q-32 25 -35 76q-2 26 -5 78.5t-4 78.5q-2 52 -7 155.5t-7 154.5h-2q-3 61 -8.5 185t-7.5 185q-1 25 1 76q2 23 7 40q16 51 67 54q50 3 86 1q23 -1 37.5 -15.5t16.5 -35.5q2 -22 -11 -39
t-37 -23q-3 -1 -10 -1q-32 0 -37.5 -9t-3.5 -42q6 -132 20 -416q3 -57 8.5 -172t8.5 -173q0 -7 1 -20t1 -20q1 -22 5.5 -27.5t24.5 -11.5q4 -1 12.5 -3.5t15 -4.5t11.5 -4z" />
    <glyph glyph-name="backslash" unicode="\" horiz-adv-x="589" 
d="M486 31v-7q-4 -30 -30.5 -40t-50.5 9q-21 17 -31 46q-22 64 -32 96q-28 96 -112 329.5t-120 393.5q-8 36 -8 56q-1 23 11.5 39t33.5 20t39 -6.5t26 -31.5q4 -11 14 -54q24 -103 77 -265t70 -221q17 -58 50.5 -143.5t49.5 -142.5q14 -46 13 -78z" />
    <glyph glyph-name="bracketright" unicode="]" horiz-adv-x="450" 
d="M347 74v-65q-2 -32 -27 -53q-55 -47 -133 -31q-20 4 -36 27q-14 21 -7 43.5t29 32.5q3 1 19 6q31 8 35.5 14t1.5 34q-20 186 -26 401q-2 64 -17 370q0 5 -1.5 15t-1.5 15q-1 20 -21 25q-22 7 -28 10q-17 9 -25.5 25.5t-5.5 33.5q3 19 18 32.5t35 14.5q45 3 85 -13
q42 -16 52 -70q10 -60 11 -90q14 -287 19 -436q4 -138 20 -289q1 -12 2.5 -30.5t1.5 -21.5z" />
    <glyph glyph-name="asciicircum" unicode="^" horiz-adv-x="604" 
d="M501 830q3 -26 -7 -44q-10 -17 -27.5 -22t-34.5 3q-22 11 -34 36q-10 21 -28 65q-3 9 -13.5 39.5t-19.5 51.5t-21 41q-47 -59 -91 -147q-16 -32 -19 -36q-12 -17 -30.5 -23.5t-35.5 -0.5q-20 7 -30.5 25t-6.5 40q3 17 13 38q45 97 138 224q7 9 17 18q23 19 51 18.5
t51 -20.5q11 -10 31 -46q49 -92 89 -220q4 -12 8 -40z" />
    <glyph glyph-name="underscore" unicode="_" horiz-adv-x="1050" 
d="M341 5l-162 6q-33 0 -53 16q-27 21 -23 53q5 33 37 44q20 7 46 5q30 -1 84.5 -3.5t99 -4t84.5 -1.5q67 -1 192 -1.5t164 -0.5h19.5h22.5h19q17 -1 39 -8q39 -12 39 -48q0 -33 -36 -50q-23 -10 -49 -10q-24 0 -72 -1t-71 -1q-125 1 -380 5z" />
    <glyph glyph-name="grave" unicode="`" horiz-adv-x="399" 
d="M281 789q15 -30 15 -63q0 -6 -1 -11q-4 -26 -24.5 -36t-44.5 2q-17 9 -30 26q-14 18 -24 39q-43 85 -54 110q-12 28 -15 43q-3 18 6 34.5t25 24.5q17 8 36.5 3.5t32.5 -19.5q6 -8 13 -21q44 -88 65 -132z" />
    <glyph glyph-name="a" unicode="a" 
d="M650 62q2 -18 -7 -34q-11 -21 -32 -26.5t-41 8.5q-21 15 -29 41q-3 10 -6.5 23.5t-7.5 29.5l-6 24q-8 31 -22.5 107t-20.5 103q-6 26 -9.5 33t-13.5 10t-29 0q-44 -1 -127 -5q-15 -1 -19 -4.5t-8 -19.5q-3 -14 -8.5 -57.5t-7.5 -54.5q-5 -27 -16 -81.5t-17 -82.5
q-2 -10 -8 -30q-20 -55 -70 -42q-45 11 -42 69q0 1 0.5 4t1 6.5t0.5 6.5q19 95 49 275t41 233q36 170 69 265q14 38 22 57q7 18 20 35q21 28 51 30t55 -23q20 -20 35 -61q39 -113 50 -149q21 -70 45 -174.5t54 -243.5t48 -217q4 -18 6 -55zM307 498q62 -5 124 3
q-3 40 -27.5 139t-41.5 131q-18 -47 -36.5 -141.5t-18.5 -131.5z" />
    <glyph glyph-name="a" unicode="&#xe5;" 
d="M650 62q2 -18 -7 -34q-11 -21 -32 -26.5t-41 8.5q-21 15 -29 41q-3 10 -6.5 23.5t-7.5 29.5l-6 24q-8 31 -22.5 107t-20.5 103q-6 26 -9.5 33t-13.5 10t-29 0q-44 -1 -127 -5q-15 -1 -19 -4.5t-8 -19.5q-3 -14 -8.5 -57.5t-7.5 -54.5q-5 -27 -16 -81.5t-17 -82.5
q-2 -10 -8 -30q-20 -55 -70 -42q-45 11 -42 69q0 1 0.5 4t1 6.5t0.5 6.5q19 95 49 275t41 233q36 170 69 265q14 38 22 57q7 18 20 35q21 28 51 30t55 -23q20 -20 35 -61q39 -113 50 -149q21 -70 45 -174.5t54 -243.5t48 -217q4 -18 6 -55zM307 498q62 -5 124 3
q-3 40 -27.5 139t-41.5 131q-18 -47 -36.5 -141.5t-18.5 -131.5z" />
    <glyph glyph-name="b" unicode="b" horiz-adv-x="708" 
d="M606 273q3 -33 -4.5 -73.5t-22.5 -66.5q-55 -93 -161 -124q-24 -7 -50.5 -8.5t-62.5 0t-52 1.5h-31q-48 1 -59 45q-8 29 -10 65q-6 95 -17 295.5t-17 295.5q-9 130 -15 172q-7 50 20 81.5t83 27.5q189 -12 285 -176q75 -130 -14 -248q-1 -2 -3 -4.5t-3 -3.5
q-8 -11 -8 -15.5t11 -12.5q54 -40 92 -107q31 -55 39 -144zM244 578q2 -14 14 -11q77 17 121 60q28 28 27 69q0 8 -1 15q-8 48 -61.5 97t-102.5 53q-16 2 -16 -15q0 -2 0.5 -7t0.5 -8q2 -38 7.5 -114t8.5 -114q0 -4 1 -12.5t1 -12.5zM462 170q30 33 26 74q0 3 -1 27.5t-3 35
t-11.5 34t-26.5 47.5q-46 63 -116 58q-28 -2 -40 -4q-26 -4 -31.5 -10t-3.5 -32q0 -6 4 -83.5t6 -111.5q0 -10 1 -20.5t2.5 -23.5t2.5 -21q1 -17 5 -18q2 -1 14 -1q9 0 26 -0.5t27.5 -1t25 1t26.5 5.5q38 13 67 44z" />
    <glyph glyph-name="c" unicode="c" horiz-adv-x="731" 
d="M627 99q6 -30 -18 -50q-17 -13 -30 -18q-80 -30 -143 -31q-88 -1 -165 45q-103 63 -145 171q-20 54 -27 98q-38 244 30 455q25 75 64 126q45 58 102.5 75.5t108.5 -0.5t92 -62q27 -29 47 -65q53 -99 65 -266q2 -22 -4 -40q-5 -19 -22 -31t-36 -10q-18 2 -32.5 13.5
t-18.5 29.5q-1 4 -1.5 9t-1 11.5t-0.5 9.5q-12 122 -34 181q-15 40 -44 74q-14 17 -36 28q-39 20 -70 -8q-17 -16 -33 -38q-20 -28 -36 -78q-37 -118 -34 -235q0 -123 14 -180q22 -93 77 -140q85 -74 184 -48q36 10 54 13q32 5 55 -1q33 -10 38 -38z" />
    <glyph glyph-name="d" unicode="d" horiz-adv-x="708" 
d="M521 756q85 -162 85 -336q0 -106 -24 -169q-52 -137 -179 -197q-66 -31 -165 -50q-36 -7 -60 -1q-34 8 -39 41q-10 84 -13 126q-6 75 -9 155.5t-6 204t-4 156.5q-1 35 -2.5 104.5t-2.5 103.5q-1 40 28 67q35 32 75 19q93 -28 129 -45q125 -59 187 -179zM488 382
q11 183 -83 340q-47 79 -148 118q-21 7 -29 3q-5 -6 -5 -29q1 -47 3 -164.5t3.5 -182.5t6.5 -162.5t12 -176.5q51 8 98 29q92 40 127 137q13 34 15 88z" />
    <glyph glyph-name="e" unicode="e" horiz-adv-x="632" 
d="M511 99q18 -18 18.5 -38.5t-17.5 -37.5q-15 -13 -51 -20q-11 -2 -70 -2q-26 1 -77.5 1.5t-78.5 0.5h-26q-65 0 -72 59q-9 67 -12 137q-3 59 -8 183.5t-8 188.5q-3 45 -4 165t-2 158v20q3 29 22.5 48t47.5 20q10 1 27 0t23 -1q122 -2 183 -4q33 -1 66 -6q14 -1 28 -10
q26 -16 26 -44t-26 -44q-24 -14 -64 -14q-27 1 -81 1t-81 1q-41 1 -47 -5t-5 -47q1 -78 5 -234q1 -17 6 -21.5t22 -3.5q18 0 53 2t53 2q29 2 54 -12q27 -15 28.5 -42.5t-23.5 -44.5q-19 -13 -43 -15q-31 -3 -86 -7q-26 -2 -40 -3t-16 -16v-20q2 -39 5.5 -122t5.5 -122
q1 -13 3 -21.5t8.5 -14.5t17.5 -5q26 3 75.5 4t71.5 3q23 3 55 -1q20 -2 34 -16z" />
    <glyph glyph-name="f" unicode="f" horiz-adv-x="628" 
d="M500 967q26 -16 26 -44t-26 -44q-24 -14 -64 -14q-27 1 -81 1t-81 1q-40 1 -46.5 -7t-5.5 -50q1 -76 5 -233q1 -17 6 -22t22 -4q18 1 53 2t53 2q30 2 54 -11q27 -15 28.5 -43t-23.5 -45q-19 -13 -43 -15q-31 -3 -86 -7q-7 -1 -20 -1.5t-20 -0.5q-14 -1 -16 -17v-20
q2 -39 5.5 -121t5.5 -122q1 -7 2 -18q3 -42 3 -68q1 -51 -16 -60l-26 -6q-65 0 -72 59q-9 65 -12 141q-3 59 -8 184t-8 189q-3 45 -4 164.5t-2 157.5v20q3 29 22.5 48t47.5 20q10 1 27 0t23 -1q27 0 88.5 1t94.5 0t66 -6q14 -1 28 -10z" />
    <glyph glyph-name="g" unicode="g" horiz-adv-x="759" 
d="M653 73q0 -1 -0.5 -1t-0.5 -1q-3 -15 -17 -26q-17 -13 -30 -18q-68 -25 -153 -27q-89 -2 -164 45q-103 63 -145 171q-22 59 -28 98q-18 108 -11 234.5t41 230.5q24 72 65 126q45 58 105.5 75.5t115 -1t95.5 -61.5q28 -30 48 -66q52 -97 64 -265q2 -22 -4 -41
q-5 -19 -22 -31t-36 -10q-18 2 -32.5 13.5t-18.5 29.5q-1 6 -2 18t-1 13q-12 121 -34 180q-15 40 -44 74q-19 23 -45 36q-37 19 -75 -15q-15 -14 -33 -39q-20 -28 -36 -78q-37 -118 -34 -235q0 -128 15 -189q23 -94 76 -140q89 -77 184 -53q10 3 26.5 9.5t23.5 8.5
q10 3 10 18v120q0 54 -24 54h-78q-23 0 -36 15.5t-12.5 34t13.5 34t35 15.5h98q100 0 100 -60q1 -28 2 -66t2.5 -131t-3.5 -98v-1z" />
    <glyph glyph-name="h" unicode="h" horiz-adv-x="739" 
d="M636 929v-31q-2 -61 -5 -185t-4 -185l-3 -371q0 -44 -2 -66q-2 -23 -7 -40q-7 -25 -23 -38t-34 -11q-19 2 -32 17.5t-16 40.5q-3 20 -3 61q0 31 0.5 122t0.5 122v17q1 18 0 18q-2 15 -16 17q-72 9 -96 9q-49 0 -147 -6q-19 -1 -24 -6t-5 -25v-218q0 -5 1 -34t0 -41
q-2 -30 -7 -51q-11 -43 -48 -45q-38 -2 -52 40q-6 18 -9 40q-2 10 -2 30q-4 290 6 543l6 243q0 32 7 51q15 40 52 40q39 0 54 -39q6 -15 6 -45q0 -23 -2 -71t-2 -71q-1 -30 -3 -89t-3 -89q0 -21 1 -31q2 -12 14 -12h25q18 0 56 1t56 2q65 2 111 -7q22 -4 23 19v25
q2 52 5 157.5t4 157.5q0 23 4 40q5 24 22.5 37.5t39.5 11.5q21 -2 35 -17t16 -38z" />
    <glyph glyph-name="i" unicode="i" horiz-adv-x="342" 
d="M239 198q3 -67 -2 -121q-2 -19 -6 -35q-13 -42 -52 -42q-43 0 -54 44q-4 15 -4 46v106q-1 54 -4.5 157t-4.5 128q0 182 -9 402q-2 35 1 51q4 22 19.5 35.5t36.5 14.5t36.5 -12t20.5 -36q4 -16 4 -51q2 -79 6 -257t6 -257q0 -26 1 -54.5t2.5 -63.5t2.5 -55z" />
    <glyph glyph-name="j" unicode="j" horiz-adv-x="702" 
d="M601 896v-201q-1 -19 -4.5 -129t-7 -178t-9.5 -113q-7 -47 -20 -105q-7 -31 -33 -74q-39 -63 -105.5 -85.5t-133 0t-107.5 82.5q-30 45 -45 96q-6 21 -16 58.5t-13 49.5q-7 25 -4 45q2 20 13.5 34.5t28.5 17.5q35 7 56 -26q13 -20 21 -46q4 -12 22 -84q11 -42 32 -74
q29 -45 80 -45q45 0 69 36q16 25 24 56q4 17 7.5 59t7 89.5t4.5 59.5q12 131 14 330q0 101 1 152q0 18 5 40q11 39 51 41t55 -36q7 -16 7 -50z" />
    <glyph glyph-name="k" unicode="k" horiz-adv-x="761" 
d="M657 76q12 -45 -23 -67q-35 -21 -69 13q-13 13 -22 28q-16 30 -43 68.5t-48.5 66.5t-56.5 72t-48 60q-32 42 -94 126q-10 14 -16 20l-5 7q-6 6 -8 7q-3 -5 -3 -22q0 -26 1 -40q3 -45 8.5 -136.5t8.5 -137.5q1 -11 2 -33t2 -33q1 -23 -12 -48q-14 -25 -41 -27t-44 21
q-10 13 -14 27q-5 17 -7 39q-2 40 -10 143t-11 176.5t-1 142.5v342q0 34 6 50q14 39 53 41q41 2 56 -43q4 -12 4 -45q0 -23 -1 -85t-1 -85q0 -17 1 -25q0 -13 3 -16q4 -4 14 9q4 4 7.5 8t8 9.5t7.5 8.5q81 91 185 230q8 10 13 15q34 32 70 10q16 -10 22.5 -28.5t1.5 -38.5
q-7 -24 -27 -48q-41 -51 -82 -97q-18 -21 -60.5 -75t-65.5 -79q-16 -18 -16.5 -23.5t14.5 -26.5q156 -207 193 -255q101 -131 130 -185q13 -25 18 -41z" />
    <glyph glyph-name="l" unicode="l" horiz-adv-x="675" 
d="M590 110q33 -19 32 -53q-1 -17 -14 -30.5t-32 -17.5q-9 -2 -41 -2q-25 0 -74 -0.5t-73 -0.5v-1q-17 -1 -50.5 -2.5t-50.5 -1.5q-15 -1 -46 -1q-50 0 -70.5 17.5t-25.5 66.5q-11 96 -15 192q-23 439 -25 577q0 17 -2 51v30q6 40 46 47q38 6 59 -30q10 -17 12 -49
q3 -67 7 -187q12 -327 29 -551q0 -11 1 -16q2 -20 7 -24.5t24 -4.5q49 1 152 5q69 4 111 -3q27 -4 39 -11z" />
    <glyph glyph-name="m" unicode="m" horiz-adv-x="919" 
d="M811 663q1 -87 3 -261.5t3 -261.5q0 -22 -2 -66q0 -20 -12 -44q-17 -31 -49 -30q-31 2 -43 31q-8 18 -9 28q-2 13 -2 41q-1 74 -2.5 223t-2.5 224q0 42 -4 56q-9 -13 -20 -47q-17 -53 -50 -172t-49 -171q-5 -15 -18 -68.5t-21 -74.5q-10 -26 -18 -37q-21 -30 -53 -30
t-52 31q-11 16 -23 51q-22 63 -66 217t-66 217q-9 28 -28 77q-7 -16 -7 -47q3 -110 11 -330q0 -21 1.5 -65.5t2.5 -65.5q2 -34 -12 -59q-14 -28 -41.5 -29t-44.5 25q-13 20 -14 38q-1 7 -2.5 20.5t-2.5 24.5t-1 21q-19 369 -12 593q1 41 1 164v25q6 77 83 73q36 -3 53 -35
q6 -12 14 -38q30 -87 89 -303t90 -303q8 -25 26 -50q7 22 19 59.5t16 50.5q13 42 59.5 228t75.5 258q18 45 33 75q11 22 22 34q24 26 56.5 21.5t48.5 -36.5q12 -25 14 -59q4 -101 6 -223z" />
    <glyph glyph-name="n" unicode="n" 
d="M650 305q4 -111 -3 -209q-2 -27 -6 -40q-14 -48 -54 -55q-43 -7 -69 32q-13 20 -27 49q-20 44 -59.5 153t-59.5 153q-70 153 -90 193q-20 43 -37 76l-27 54q2 -53 2 -60q-3 -192 4 -366q1 -28 3 -83.5t3 -83.5q2 -26 0 -51q0 -18 -12 -39q-16 -26 -41 -26.5t-42 24.5
t-19 62q-9 152 -9 158q-5 130 -3 518q0 15 -0.5 71t-0.5 71q0 25 5 41q5 19 22.5 31t35.5 8q27 -7 42.5 -17t28.5 -33q3 -5 9 -15.5t9 -15.5q82 -145 226 -473q5 -12 15.5 -35.5t15.5 -34.5q4 -7 19 -49q0 56 -1 66q-17 288 -14 482q0 17 4 55q2 15 6 30q17 46 57 43
q33 -1 48 -45q4 -12 4 -56q-2 -75 10 -441q1 -49 5 -142z" />
    <glyph glyph-name="o" unicode="o" horiz-adv-x="747" 
d="M645 473q2 -146 -19 -251q-13 -60 -32 -96q-37 -70 -96 -102t-123.5 -22.5t-122.5 56.5q-78 64 -115 171q-33 98 -35 243q-1 123 38 244q51 155 179 245q31 22 67 20q113 -5 173 -91q36 -51 58 -140q30 -123 28 -277zM515 263q10 52 13 206q-2 79 -5 121q-3 39 -9 76
q-9 64 -33 122q-18 45 -49 62q-22 12 -44 4q-37 -13 -69 -50q-43 -51 -67 -124q-29 -91 -32 -194t21 -195q20 -76 70 -127q20 -22 44 -33q36 -18 66.5 -11t57.5 44q10 13 22 45q5 15 14 54z" />
    <glyph glyph-name="o" unicode="&#xf8;" horiz-adv-x="747" 
d="M645 473q2 -146 -19 -251q-13 -60 -32 -96q-37 -70 -96 -102t-123.5 -22.5t-122.5 56.5q-78 64 -115 171q-33 98 -35 243q-1 123 38 244q51 155 179 245q31 22 67 20q113 -5 173 -91q36 -51 58 -140q30 -123 28 -277zM515 263q10 52 13 206q-2 79 -5 121q-3 39 -9 76
q-9 64 -33 122q-18 45 -49 62q-22 12 -44 4q-37 -13 -69 -50q-43 -51 -67 -124q-29 -91 -32 -194t21 -195q20 -76 70 -127q20 -22 44 -33q36 -18 66.5 -11t57.5 44q10 13 22 45q5 15 14 54z" />
    <glyph glyph-name="p" unicode="p" horiz-adv-x="667" 
d="M495 863q93 -99 61 -229q-28 -115 -139 -164q-73 -31 -147 -37q-4 -1 -12.5 -2t-12.5 -1q-13 -2 -13 -13q-1 -13 -1 -41q2 -45 5.5 -134.5t4.5 -134.5q2 -32 -1 -56q-3 -21 -16.5 -35t-32.5 -16q-40 -3 -58 41q-5 13 -7 50l-15 401q-2 64 -4.5 193t-3.5 194v20
q2 36 25.5 59t59.5 25q185 9 307 -120zM375 580q51 24 67.5 76.5t-13.5 99.5q-66 101 -187 106q-11 1 -16 -4t-5 -17v-132v-143q0 -19 26 -17q73 5 128 31z" />
    <glyph glyph-name="q" unicode="q" horiz-adv-x="831" 
d="M728 59q6 -30 -19 -49q-24 -18 -53 -4q-10 5 -38 33q-3 3 -14 18t-21 21q-16 -11 -28 -20q-45 -33 -95.5 -41.5t-96 4t-87.5 42.5q-67 48 -107 132q-78 165 -65 354q10 159 89 299q26 45 56 78q76 82 190 52q110 -30 162 -136q49 -101 68 -223q22 -135 15 -281
q-4 -71 -19 -115q-12 -35 12 -66q19 -25 35 -55q12 -22 16 -43zM557 319q8 6 10 14.5t1 20t0 16.5t1 37q-11 215 -49 321q-20 54 -29 70q-26 52 -90 69q-35 9 -61 -16q-24 -23 -45 -61q-95 -171 -69 -381q13 -96 54 -173q29 -55 69 -80q78 -50 144 3q13 11 14 18t-9 20
q-16 21 -49 60.5t-50 60.5q-20 26 -22 29q-22 39 8 69q32 31 70 7q18 -11 31 -26q7 -8 19.5 -23.5t16.5 -19.5q3 -3 9.5 -12t12 -14.5t13.5 -8.5z" />
    <glyph glyph-name="r" unicode="r" horiz-adv-x="706" 
d="M649 73q14 -38 -12 -61q-23 -21 -57 -7q-27 10 -52 41q-74 86 -135 146q-75 75 -141 117q-1 1 -5 3.5t-6 3.5t-8 2.5t-11 -0.5q1 -19 2.5 -58t2.5 -59q1 -13 2.5 -37t2.5 -43.5t1 -36.5q0 -28 -5 -45q-10 -34 -43 -38q-36 -5 -54 29q-10 21 -12 44q-1 8 -3.5 35t-3.5 41
q-13 283 -7 441q2 55 5 289q0 34 1 40q9 69 76 64q24 -1 55 -10q139 -38 221 -128q105 -116 74 -271q-25 -122 -134 -167q-4 -2 -14.5 -4.5t-18 -6t-13.5 -9.5q0 -6 2.5 -9.5t8.5 -7.5t7 -5q112 -96 244 -246q23 -27 30 -47zM313 503q13 3 39 11q58 20 71 86q16 90 -34 152
q-54 67 -140 96q-20 7 -20 -13l-7 -157v-106v-27t-1 -21.5t0.5 -15.5t1 -11.5t4 -6.5t6.5 -3t11.5 1t16 3t23 5.5t29.5 6.5z" />
    <glyph glyph-name="s" unicode="s" horiz-adv-x="698" 
d="M582 751q13 -95 13 -131q-3 -59 -4 -66q-4 -20 -19 -32t-35 -12q-46 0 -56 48l-3 36q-4 73 -7 106q-5 49 -23 88q-13 28 -38 48q-29 27 -70.5 26t-73.5 -39q-94 -110 -2 -243q13 -19 35 -46q12 -15 32 -42t36 -47t33 -37q63 -63 107 -130q26 -40 35 -73
q23 -83 -24.5 -144.5t-133.5 -60.5q-61 0 -114 36q-53 37 -114 101q-16 17 -23 39q-9 30 11 52q19 21 52 12q21 -6 47 -28l57 -51q14 -13 36 -28q23 -16 53 -14q25 2 35.5 17t3.5 38q-6 18 -23 45q-5 7 -15.5 24.5t-16.5 27t-16 23t-20 22.5q-16 18 -62.5 74.5t-70.5 79.5
q-65 64 -90 156q-46 175 90 300q92 84 212 40q86 -32 129 -110q30 -56 37 -105z" />
    <glyph glyph-name="t" unicode="t" horiz-adv-x="741" 
d="M611 977q26 -14 27 -39.5t-24 -42.5q-23 -15 -78 -21q-15 -2 -43 -4t-43 -4q-22 -2 -26 -7t-4 -28v-126q0 -40 -1 -105.5t-2 -105.5q-2 -112 15 -370q4 -55 -6 -85q-12 -35 -42 -39q-35 -5 -53 32q-14 32 -16 69q-16 254 -11 380q0 57 -0.5 159t-0.5 158v40
q-1 13 -6.5 22t-15.5 8q-64 -4 -96 -7q-2 0 -11 -2t-14 -2q-41 0 -54 39q-11 32 15 60q16 16 36 19q55 8 65 8q52 3 150 3t144 2q22 1 66 -3q18 -2 29 -8z" />
    <glyph glyph-name="u" unicode="u" horiz-adv-x="763" 
d="M659 904q0 -24 1 -95.5t1.5 -117.5t-0.5 -106.5t-4 -100.5q-14 -170 -36 -262q-15 -57 -30 -91q-19 -44 -54 -79q-57 -55 -134 -52q-35 1 -75 11q-134 31 -177 165q-19 58 -28 139q-11 101 -12 202q0 18 -2 52.5t-2 44.5h-1q0 34 -2 143.5t-2 143.5q0 27 3 40q4 21 21 34
t38 12q43 -2 52 -47q2 -8 4 -50q1 -41 3 -150.5t4.5 -198.5t7.5 -151q3 -42 13 -121q1 -8 11 -45q16 -53 48.5 -77.5t88.5 -28.5q47 -3 74 35q16 23 29 65q18 59 28 144q19 154 16 294q-1 28 -1 121.5t-1 121.5q0 35 9 54q15 33 46 34q32 1 50 -30q13 -25 13 -53z" />
    <glyph glyph-name="v" unicode="v" horiz-adv-x="776" 
d="M671 944q7 -19 1 -51q-13 -85 -46 -223q-9 -38 -35.5 -197t-45.5 -214q-35 -101 -65 -160q-22 -44 -44 -67q-31 -34 -69 -31.5t-65 40.5q-15 21 -31 69q-51 155 -89 307q-16 62 -40 232.5t-30 202.5q-2 9 -3.5 19t-3 22t-2.5 19q-3 16 4 35q11 34 44 38q35 6 56 -26
q8 -11 14 -48q0 -2 16.5 -102.5t21.5 -128t20.5 -115t25.5 -132.5t25.5 -108t29.5 -109q3 -10 16 -45q13 8 25 38q42 98 71 217q20 79 84 488q3 19 13 39q17 33 54 30q35 -3 48 -39z" />
    <glyph glyph-name="w" unicode="w" horiz-adv-x="1003" 
d="M897 939q6 -21 1 -51q-7 -42 -19.5 -125.5t-18.5 -125.5q-11 -73 -33.5 -255.5t-33.5 -255.5q-6 -40 -11 -60q-5 -21 -15 -37q-18 -27 -48.5 -29t-52.5 21q-16 16 -30 58q-39 123 -125 482q-2 10 -4 15q-2 7 -7 4q-6 -4 -7 -6q-2 -6 -4 -20q-8 -43 -25 -172t-26 -177
q-9 -46 -31 -128q-4 -16 -16 -37q-22 -38 -59.5 -37.5t-57.5 39.5q-12 22 -19 52q-42 166 -68 291q-16 77 -43 263.5t-39 249.5q-4 26 -2 40q2 17 14 29.5t28 16.5q39 8 61 -26q11 -18 17 -53q5 -29 15.5 -92t16.5 -92q10 -50 30.5 -189t30.5 -189q7 -33 15 -42q9 11 13 38
q12 68 35 253t34 249q3 14 6 40t5 40q10 57 57 62q23 2 41.5 -13t25.5 -44q14 -54 41.5 -178.5t41.5 -178.5q8 -29 25 -126.5t26 -128.5q4 -17 16 -21q11 50 25 143q10 65 30 233t30 233q6 37 17 53q19 29 52 26q35 -3 45 -42z" />
    <glyph glyph-name="x" unicode="x" horiz-adv-x="737" 
d="M635 59q2 -42 -29 -55q-32 -13 -61 13q-17 16 -34 50q-17 35 -53.5 114.5t-53.5 114.5q-16 35 -25 42q-6 -4 -9.5 -8.5t-6.5 -14.5t-4 -11q-33 -80 -107 -236q-16 -32 -22 -40q-14 -20 -35 -26t-40 5q-19 10 -26.5 30.5t1.5 44.5q9 21 19 41q87 179 139 322q2 6 6.5 17
t6.5 16t-3.5 17t-16 28t-10.5 17q-3 5 -13 28q-24 50 -71 156t-70 156q-13 31 -14 43q-2 42 34 57q33 14 61 -11q12 -11 29 -47l84 -180q31 -62 49 -77q8 6 15 24q12 32 36 102t36 102q13 31 24 51q14 25 34 33.5t41 0.5q19 -8 26.5 -28t1.5 -46q-6 -24 -15 -48
q-18 -46 -111 -314q-14 -38 5 -77q30 -60 85 -180t76 -163q20 -40 21 -63z" />
    <glyph glyph-name="y" unicode="y" horiz-adv-x="829" 
d="M659 983q29 5 49 -13.5t18 -48.5q-1 -14 -9 -40q-114 -350 -176 -498q-12 -27 -10 -70q1 -28 4 -85.5t5 -86.5q0 -12 2 -38t2 -38q1 -21 -14 -43q-14 -20 -38 -22t-41 16q-17 17 -20 40q-6 36 -7 56q-10 184 -11 223q-1 29 -18 51q-23 29 -80 129q-16 29 -81 154.5
t-100 181.5q-18 30 -20 35q-8 18 -10 28q-4 20 4.5 38t25.5 26q38 17 65 -13q8 -9 26 -38q38 -63 111.5 -201t90.5 -169l6 -12t7 -13t7.5 -11t10.5 -10q6 4 10 9.5t6 10t4 13t3 11.5q16 50 61 178.5t63 182.5q6 18 15 37q13 26 39 30z" />
    <glyph glyph-name="y" unicode="&#xfd;" horiz-adv-x="829" 
d="M659 983q29 5 49 -13.5t18 -48.5q-1 -14 -9 -40q-114 -350 -176 -498q-12 -27 -10 -70q1 -28 4 -85.5t5 -86.5q0 -12 2 -38t2 -38q1 -21 -14 -43q-14 -20 -38 -22t-41 16q-17 17 -20 40q-6 36 -7 56q-10 184 -11 223q-1 29 -18 51q-23 29 -80 129q-16 29 -81 154.5
t-100 181.5q-18 30 -20 35q-8 18 -10 28q-4 20 4.5 38t25.5 26q38 17 65 -13q8 -9 26 -38q38 -63 111.5 -201t90.5 -169l6 -12t7 -13t7.5 -11t10.5 -10q6 4 10 9.5t6 10t4 13t3 11.5q16 50 61 178.5t63 182.5q6 18 15 37q13 26 39 30z" />
    <glyph glyph-name="z" unicode="z" horiz-adv-x="770" 
d="M646 99q22 -15 22 -38.5t-21 -38.5q-7 -5 -23 -11q-16 -5 -29 -6q-60 -7 -195.5 -5t-193.5 18q-33 9 -52 21q-62 39 -41 109q7 22 24 56q158 305 169 325q29 53 85.5 145t86.5 148q6 11 12 39q-22 4 -58 4q-65 4 -131.5 3.5t-113.5 -9.5q-30 -2 -35 -2q-19 2 -32.5 15
t-16.5 31q-7 41 29 60q18 9 38 12q54 6 116.5 6.5t135 -1.5t117.5 -1q28 0 41 -2q35 -6 50 -30t5 -59q-6 -19 -19 -47q-35 -72 -102.5 -185t-94.5 -164l-147 -279q-24 -48 -35 -72q11 -16 37 -18q51 -3 223 -3q79 0 111 -7q27 -6 38 -14z" />
    <glyph glyph-name="braceleft" unicode="{" horiz-adv-x="489" 
d="M345 14q32 -12 27 -49q-4 -36 -41 -47q-41 -12 -77 13q-50 35 -69 98q-11 36 -13 110q-3 110 -5 127q-12 76 -42 129q-1 3 -4.5 9t-5.5 9q-29 55 6 106q3 4 8.5 12.5t8.5 12.5q32 46 28 100q-2 34 -8 102q-7 72 6 126q20 83 81 137q42 37 82 37q44 0 57 -41
q11 -36 -23 -62q-8 -6 -13 -8q-66 -29 -73 -119q-2 -23 3 -91q0 -6 1.5 -17.5t2.5 -17.5q15 -123 -45 -209q-14 -19 -3 -41q57 -106 55 -240q0 -55 3 -107q3 -59 53 -79z" />
    <glyph glyph-name="verticalbar" unicode="|" horiz-adv-x="356" 
d="M252 51q2 -64 2 -97q0 -28 -12 -48q-14 -24 -41.5 -25.5t-43.5 21.5q-14 20 -16 47q-6 69 -7 101q-4 110 -10.5 330t-9.5 330q-2 50 -5.5 149.5t-5.5 149.5q-2 32 1 56q3 22 17.5 36t35.5 15t37.5 -11.5t20.5 -34.5q5 -28 7 -66l12 -390v-40v-47v-40h2q6 -140 16 -436z
" />
    <glyph glyph-name="braceright" unicode="}" horiz-adv-x="491" 
d="M364 475q40 -49 17 -104q-33 -78 -17 -174q14 -76 15 -116q2 -56 -16 -99q-13 -31 -31 -45q-22 -16 -46 -8.5t-33 32.5q-9 27 0 55q16 50 2 120q-6 30 -9 60q-11 118 15 191q7 21 -3 33q-67 81 -74 243q-3 56 -11 157q-3 31 -11 70q-11 47 -36 65q-6 5 -13 15
q-20 30 -4 58q16 29 52 29q20 0 41 -13q30 -19 51 -62q22 -45 32 -111q5 -33 8 -70t5.5 -82.5t4.5 -70.5q4 -46 8 -70q7 -46 37 -83q3 -3 8 -9.5t8 -10.5z" />
    <glyph glyph-name="asciitilde" unicode="~" horiz-adv-x="727" 
d="M558 621q26 8 46.5 -6.5t20.5 -41.5t-17 -47q-26 -31 -42 -44q-87 -77 -186 -18q-9 5 -26 17.5t-24 17.5q-62 42 -104 -20q-4 -6 -10 -18t-9 -17q-25 -40 -65 -27q-42 15 -40 59q0 11 6 29q18 53 71 92.5t105 38.5q52 0 93 -27l24 -18t25 -17q26 -17 36.5 -16.5
t33.5 20.5q22 19 27 23q22 16 35 20z" />
    <glyph glyph-name="nonbreakingspace" unicode="&#xa0;" horiz-adv-x="368" 
 />
    <glyph glyph-name="sterling" unicode="&#xa3;" horiz-adv-x="745" 
d="M597 971q43 -10 45 -54q1 -22 -12 -37.5t-35 -18.5q-42 -6 -86 -6q-50 0 -86 -9q-74 -17 -88 -86q-6 -29 -8 -71q-1 -20 -1.5 -28.5t0 -12.5t1.5 -15.5t2 -26.5q1 -13 4.5 -16.5t16.5 -3.5q4 0 38 2q35 -4 43 -6q35 -10 39 -43q4 -27 -29 -49q-19 -12 -62 -20
q-34 -7 -40 -13.5t-5 -38.5q0 -10 1.5 -126.5t2.5 -147.5q1 -24 8 -34.5t27 -7.5q29 3 85 13q37 6 61 2q44 -7 49 -44q4 -34 -29 -55q-19 -12 -42 -15q-33 -5 -96.5 -7t-94.5 -6q-50 -6 -72 44q-12 25 -12 59q-5 293 -5 304q0 15 -4 41q-2 9 -11 9q-5 0 -15 -1t-15 -1
q-22 0 -39 10q-33 19 -30 54q3 34 33 47q10 4 50 9q15 1 19.5 6t4.5 19q0 3 -1 42q-2 72 8 132q7 40 18 68q30 77 107 110q51 22 93 26q47 4 136 6q14 0 26 -3z" />
    <glyph glyph-name="softhyphen" unicode="&#xad;" horiz-adv-x="0" 
 />
    <glyph glyph-name="degree" unicode="&#xb0;" horiz-adv-x="557" 
d="M433 980q25 -54 22 -103q-4 -77 -66 -123.5t-137 -29.5q-110 26 -140 125q-32 102 41 190q34 43 115 41q3 -1 20 -2.5t26 -3.5q83 -19 119 -94zM303 842q35 10 35 44q-3 41 -21 58t-54 19q-23 2 -32 -19q-8 -18 -10 -28q-6 -35 20.5 -59t61.5 -15z" />
    <glyph glyph-name="Agrave" unicode="&#xc0;" 
d="M650 62q2 -18 -7 -34q-11 -21 -32 -26.5t-41 8.5q-21 15 -29 41q-3 10 -6.5 23.5t-7.5 29.5l-6 24q-8 31 -22.5 107.5t-20.5 103.5q-9 35 -14.5 39t-37.5 3q-44 -1 -127 -5q-15 -1 -19 -4.5t-8 -19.5q-3 -14 -8.5 -57.5t-7.5 -54.5q-5 -27 -16 -81.5t-17 -82.5
q-2 -10 -8 -30q-20 -55 -70 -42q-45 11 -42 69q0 1 0.5 4t1 6.5t0.5 6.5q19 95 49 275t41 233q36 170 69 265q14 38 22 57q7 18 20 35q21 28 51 30t55 -23q20 -20 35 -61q39 -113 50 -149q21 -70 45 -174.5t54 -243.5t48 -217q4 -18 6 -55zM307 498q62 -5 124 3
q-3 40 -27.5 139t-41.5 131q-18 -47 -36.5 -141.5t-18.5 -131.5zM298 1194q-9 21 -12 36t4.5 29.5t20.5 20.5q14 7 31 3.5t27 -16.5q6 -6 12 -18l54 -111q12 -26 12 -52v-10q-4 -22 -21 -30t-37 2q-15 7 -26 22q-12 16 -20 32q-36 71 -45 92z" />
    <glyph glyph-name="Aacute" unicode="&#xc1;" 
d="M650 62q2 -18 -7 -34q-11 -21 -32 -26.5t-41 8.5q-21 15 -29 41q-3 10 -6.5 23.5t-7.5 29.5l-6 24q-8 31 -22.5 107.5t-20.5 103.5q-9 35 -14.5 39t-37.5 3q-44 -1 -127 -5q-15 -1 -19 -4.5t-8 -19.5q-3 -14 -8.5 -57.5t-7.5 -54.5q-5 -27 -16 -81.5t-17 -82.5
q-2 -10 -8 -30q-20 -55 -70 -42q-45 11 -42 69q0 1 0.5 4t1 6.5t0.5 6.5q19 95 49 275t41 233q36 170 69 265q14 38 22 57q7 18 20 35q21 28 51 30t55 -23q20 -20 35 -61q39 -113 50 -149q21 -70 45 -174.5t54 -243.5t48 -217q4 -18 6 -55zM307 498q62 -5 124 3
q-3 40 -27.5 139t-41.5 131q-18 -47 -36.5 -141.5t-18.5 -131.5zM309 1050q-21 -6 -36 6t-14 34q0 18 9 33q12 22 20 32q42 54 64 80q15 18 27 27t28 8t28 -10q13 -10 16.5 -26.5t-3.5 -31.5q-3 -6 -11 -18q-25 -32 -77 -96q-21 -25 -42 -35l-2 -1q-1 0 -3 -1t-4 -1z" />
    <glyph glyph-name="Acircumflex" unicode="&#xc2;" 
d="M650 62q2 -18 -7 -34q-11 -21 -32 -26.5t-41 8.5q-21 15 -29 41q-3 10 -6.5 23.5t-7.5 29.5l-6 24q-8 31 -22.5 107.5t-20.5 103.5q-9 35 -14.5 39t-37.5 3q-44 -1 -127 -5q-15 -1 -19 -4.5t-8 -19.5q-3 -14 -8.5 -57.5t-7.5 -54.5q-5 -27 -16 -81.5t-17 -82.5
q-2 -10 -8 -30q-20 -55 -70 -42q-45 11 -42 69q0 1 0.5 4t1 6.5t0.5 6.5q19 95 49 275t41 233q36 170 69 265q14 38 22 57q7 18 20 35q21 28 51 30t55 -23q20 -20 35 -61q39 -113 50 -149q21 -70 45 -174.5t54 -243.5t48 -217q4 -18 6 -55zM307 498q62 -5 124 3
q-3 40 -27.5 139t-41.5 131q-18 -47 -36.5 -141.5t-18.5 -131.5zM288 1043q-21 -7 -36 4t-16 34q0 19 7 33q14 27 19 33q40 56 60 83q14 18 27 28q1 1 4 3q7 7 12 9q14 7 31 3.5t27 -16.5q6 -6 12 -18l54 -111q13 -30 13 -53q0 -5 -1 -9q-4 -22 -21 -30.5t-37 1.5
q-15 7 -26 22q-14 22 -20 33q-4 7 -11 21.5t-10 21.5q-6 -8 -19 -25.5t-20 -26.5q-16 -23 -40 -36l-1 -1l-4 -2t-4 -1z" />
    <glyph glyph-name="Atilde" unicode="&#xc3;" 
d="M650 62q2 -18 -7 -34q-11 -21 -32 -26.5t-41 8.5q-21 15 -29 41q-3 10 -6.5 23.5t-7.5 29.5l-6 24q-8 31 -22.5 107t-20.5 103q-6 26 -9.5 33t-13.5 10t-29 0q-44 -1 -127 -5q-15 -1 -19 -4.5t-8 -19.5q-3 -14 -8.5 -57.5t-7.5 -54.5q-5 -27 -16 -81.5t-17 -82.5
q-2 -10 -8 -30q-20 -55 -70 -42q-45 11 -42 69q0 1 0.5 4t1 6.5t0.5 6.5q19 95 49 275t41 233q36 170 69 265q14 38 22 57q7 18 20 35q21 28 51 30t55 -23q20 -20 35 -61q39 -113 50 -149q21 -70 45 -174.5t54 -243.5t48 -217q4 -18 6 -55zM307 498q62 -5 124 3
q-3 40 -27.5 139t-41.5 131q-18 -47 -36.5 -141.5t-18.5 -131.5zM219 1046q-30 10 -28 41q0 8 4 22q13 38 50.5 65.5t74.5 26.5q36 0 66 -19q6 -4 17.5 -12.5t17.5 -12.5q19 -13 26 -12t24 15q12 12 19 17q16 10 25 13q18 6 32.5 -4.5t14.5 -29.5q0 -20 -12 -33
q-12 -15 -30 -31q-62 -55 -132 -13q-7 4 -18.5 13t-16.5 12q-45 30 -74 -14q-3 -4 -7.5 -12.5t-6.5 -12.5q-19 -29 -46 -19z" />
    <glyph glyph-name="Adieresis" unicode="&#xc4;" 
d="M650 62q2 -18 -7 -34q-11 -21 -32 -26.5t-41 8.5q-21 15 -29 41q-3 10 -6.5 23.5t-7.5 29.5l-6 24q-8 31 -22.5 107t-20.5 103q-6 26 -9.5 33t-13.5 10t-29 0q-44 -1 -127 -5q-15 -1 -19 -4.5t-8 -19.5q-3 -14 -8.5 -57.5t-7.5 -54.5q-5 -27 -16 -81.5t-17 -82.5
q-2 -10 -8 -30q-20 -55 -70 -42q-45 11 -42 69q0 1 0.5 4t1 6.5t0.5 6.5q19 95 49 275t41 233q36 170 69 265q14 38 22 57q7 18 20 35q21 28 51 30t55 -23q20 -20 35 -61q39 -113 50 -149q21 -70 45 -174.5t54 -243.5t48 -217q4 -18 6 -55zM307 498q62 -5 124 3
q-3 40 -27.5 139t-41.5 131q-18 -47 -36.5 -141.5t-18.5 -131.5zM245 1100q-30 0 -51 18.5t-21 45.5q0 45 45 68q39 19 74 -12q20 -17 28 -44q10 -34 -21 -56q-28 -20 -54 -20zM464 1100q-30 0 -51 18.5t-21 45.5q0 45 44 68q39 19 75 -12q20 -17 28 -44q10 -34 -21 -56
q-28 -20 -54 -20z" />
    <glyph glyph-name="Ccedilla" unicode="&#xc7;" horiz-adv-x="747" 
d="M643 101q6 -30 -18 -50q-17 -13 -30 -18q-79 -28 -131 -31l-27 -76q1 0 4 -0.5t4 -0.5q71 -12 102 -65q22 -38 19 -72q-3 -53 -56 -86t-117 -21q-9 1 -15 5q-36 26 -16.5 52.5t53.5 23.5h5q6 0 16 2q30 7 30 30q-5 51 -64 54h-9q-26 0 -40 5.5t-17 12t-5 17.5q-2 13 6 24
l32 105q-45 13 -81 35q-103 63 -145 171q-22 60 -28 97q-38 245 30 456q24 71 65 125q45 58 102 75.5t108 -0.5t92 -61q28 -30 48 -66q52 -97 64 -265q2 -22 -4 -41q-5 -19 -22 -31t-36 -10q-18 2 -32 13.5t-18 29.5q-2 10 -4 30q-12 122 -34 181q-15 40 -44 74
q-15 18 -35 28q-40 21 -71 -7q-15 -14 -33 -39q-20 -28 -36 -78q-37 -118 -34 -235q0 -119 15 -180q23 -94 76 -140q85 -74 184 -48q36 10 54 13q33 5 56 -1q32 -10 37 -37z" />
    <glyph glyph-name="Egrave" unicode="&#xc8;" horiz-adv-x="632" 
d="M511 99q18 -18 18.5 -38.5t-17.5 -37.5q-15 -13 -51 -20q-11 -2 -70 -2q-26 1 -77.5 1.5t-78.5 0.5h-26q-65 0 -72 59q-9 67 -12 137q-3 59 -8 183.5t-8 188.5q-3 45 -4 165t-2 158v20q3 29 22.5 48t47.5 20q10 1 27 0t23 -1q122 -2 183 -4q33 -1 66 -6q14 -1 28 -10
q26 -16 26 -44t-26 -44q-24 -14 -64 -14q-27 1 -81 1t-81 1q-41 1 -47 -5t-5 -47q1 -78 5 -234q1 -17 6 -21.5t22 -3.5q18 0 53 2t53 2q29 2 54 -12q27 -15 28.5 -42.5t-23.5 -44.5q-19 -13 -43 -15q-31 -3 -86 -7q-26 -2 -40 -3t-16 -16v-20q2 -39 5.5 -122t5.5 -122
q1 -13 3 -21.5t8.5 -14.5t17.5 -5q26 3 75.5 4t71.5 3q23 3 55 -1q20 -2 34 -16zM248 1194q-11 24 -13 36q-3 15 5 29.5t21 20.5q14 7 31 3.5t27 -16.5q4 -4 11 -18l54 -111q13 -28 13 -52q0 -6 -1 -10q-4 -22 -20.5 -30t-36.5 2q-15 7 -26 22q-12 16 -20 32q-36 71 -45 92z
" />
    <glyph glyph-name="Eacute" unicode="&#xc9;" horiz-adv-x="632" 
d="M511 99q18 -18 18.5 -38.5t-17.5 -37.5q-15 -13 -51 -20q-11 -2 -70 -2q-26 1 -77.5 1.5t-78.5 0.5h-26q-65 0 -72 59q-9 67 -12 137q-3 59 -8 183.5t-8 188.5q-3 45 -4 165t-2 158v20q3 29 22.5 48t47.5 20q10 1 27 0t23 -1q122 -2 183 -4q33 -1 66 -6q14 -1 28 -10
q26 -16 26 -44t-26 -44q-24 -14 -64 -14q-27 1 -81 1t-81 1q-41 1 -47 -5t-5 -47q1 -78 5 -234q1 -17 6 -21.5t22 -3.5q18 0 53 2t53 2q29 2 54 -12q27 -15 28.5 -42.5t-23.5 -44.5q-19 -13 -43 -15q-31 -3 -86 -7q-26 -2 -40 -3t-16 -16v-20q2 -39 5.5 -122t5.5 -122
q1 -13 3 -21.5t8.5 -14.5t17.5 -5q26 3 75.5 4t71.5 3q23 3 55 -1q20 -2 34 -16zM270 1050q-21 -6 -36.5 6t-14.5 34q0 18 9 33q10 18 21 32q53 69 63 80q15 18 27 27t28 8t28 -10q13 -10 16.5 -26.5t-3.5 -31.5q-3 -6 -11 -18q-25 -32 -77 -96q-21 -25 -42 -35l-2 -1
q-1 0 -2.5 -1t-3.5 -1z" />
    <glyph glyph-name="Ecircumflex" unicode="&#xca;" horiz-adv-x="632" 
d="M511 99q18 -18 18.5 -38.5t-17.5 -37.5q-15 -13 -51 -20q-11 -2 -70 -2q-26 1 -77.5 1.5t-78.5 0.5h-26q-65 0 -72 59q-9 67 -12 137q-3 59 -8 183.5t-8 188.5q-3 45 -4 165t-2 158v20q3 29 22.5 48t47.5 20q10 1 27 0t23 -1q122 -2 183 -4q33 -1 66 -6q14 -1 28 -10
q26 -16 26 -44t-26 -44q-24 -14 -64 -14q-27 1 -81 1t-81 1q-41 1 -47 -5t-5 -47q1 -78 5 -234q1 -17 6 -21.5t22 -3.5q18 0 53 2t53 2q29 2 54 -12q27 -15 28.5 -42.5t-23.5 -44.5q-19 -13 -43 -15q-31 -3 -86 -7q-26 -2 -40 -3t-16 -16v-20q2 -39 5.5 -122t5.5 -122
q1 -13 3 -21.5t8.5 -14.5t17.5 -5q26 3 75.5 4t71.5 3q23 3 55 -1q20 -2 34 -16zM235 1044q-21 -7 -36 4t-16 33q0 20 7 34q11 20 20 33q40 56 60 83q16 20 26 28q0 1 2 2l2 1q7 7 12 9q14 7 31 3.5t27 -16.5q6 -6 12 -18l54 -111q13 -30 13 -53q0 -5 -1 -9
q-4 -22 -21 -30.5t-37 1.5q-13 6 -25 22q-2 4 -6.5 10.5t-8 12t-6.5 10.5q-3 7 -10 21.5t-11 21.5q-7 -8 -20 -25.5t-19 -26.5q-18 -25 -40 -37l-2 -1q-1 0 -3 -1t-4 -1z" />
    <glyph glyph-name="Edieresis" unicode="&#xcb;" horiz-adv-x="632" 
d="M511 99q18 -18 18.5 -38.5t-17.5 -37.5q-15 -13 -51 -20q-11 -2 -70 -2q-26 1 -77.5 1.5t-78.5 0.5h-26q-65 0 -72 59q-9 67 -12 137q-3 59 -8 183.5t-8 188.5q-3 45 -4 165t-2 158v20q3 29 22.5 48t47.5 20q10 1 27 0t23 -1q122 -2 183 -4q33 -1 66 -6q14 -1 28 -10
q26 -16 26 -44t-26 -44q-24 -14 -64 -14q-27 1 -81 1t-81 1q-41 1 -47 -5t-5 -47q1 -78 5 -234q1 -17 6 -21.5t22 -3.5q18 0 53 2t53 2q29 2 54 -12q27 -15 28.5 -42.5t-23.5 -44.5q-19 -13 -43 -15q-31 -3 -86 -7q-26 -2 -40 -3t-16 -16v-20q2 -39 5.5 -122t5.5 -122
q1 -13 3 -21.5t8.5 -14.5t17.5 -5q26 3 75.5 4t71.5 3q23 3 55 -1q20 -2 34 -16zM203 1096q-30 0 -50.5 18t-20.5 45q0 45 44 68q39 19 74 -11q20 -17 28 -44q10 -35 -20 -57q-27 -19 -55 -19zM422 1096q-30 0 -50.5 18t-20.5 45q0 45 44 68q39 19 74 -11q20 -17 28 -44
q10 -35 -20 -57q-27 -19 -55 -19z" />
    <glyph glyph-name="Igrave" unicode="&#xcc;" horiz-adv-x="366" 
d="M247 371q0 -26 1 -54.5t2.5 -63.5t2.5 -55q3 -68 -2 -122q-1 -17 -6 -34q-13 -42 -52 -42q-43 0 -54 44q-4 15 -4 46l1 53q0 53 -1 53q-1 54 -4.5 157t-4.5 128q0 182 -9 402q-2 35 1 51q4 22 19.5 35.5t36.5 14.5t36.5 -12t20.5 -36q4 -16 4 -51q2 -79 6 -257t6 -257z
M252 1138q13 -28 13 -52q0 -6 -1 -10q-4 -22 -21 -30t-37 2q-13 6 -25 22t-20 32l-46 92q-9 21 -12 36t5 29.5t21 20.5q14 7 30.5 3.5t26.5 -16.5q6 -6 12 -18z" />
    <glyph glyph-name="Iacute" unicode="&#xcd;" horiz-adv-x="399" 
d="M261 371q0 -26 1 -54.5t2.5 -63.5t2.5 -55q3 -67 -2 -121q-2 -19 -6 -35q-13 -42 -52 -42q-43 0 -54 44q-4 15 -4 46l1 53q0 53 -1 53q-1 54 -4.5 157t-4.5 128q0 182 -9 402q-2 31 2 51q4 22 19 35.5t36 14.5t36.5 -12t20.5 -36q5 -20 5 -51q2 -79 5.5 -257t5.5 -257z
M278 1260q13 -10 17 -26.5t-3 -31.5q-3 -6 -11 -18q-25 -32 -77 -96q-21 -25 -42 -35l-2 -1q-1 0 -3 -1t-4 -1q-21 -6 -36.5 6t-14.5 34q0 18 9 33q10 18 21 32q53 69 63 80q13 17 28 27q27 20 55 -2z" />
    <glyph glyph-name="Icircumflex" unicode="&#xce;" horiz-adv-x="471" 
d="M299 371q0 -26 1 -54.5t2.5 -63.5t2.5 -55q3 -60 -3 -121q-2 -24 -5 -35q-13 -42 -52 -42q-43 0 -54 44q-4 15 -4 46l1 53q0 53 -1 53q-1 54 -4.5 157t-4.5 128q0 182 -9 402q-2 35 1 51q4 22 19.5 35.5t36.5 14.5q20 1 35.5 -12t20.5 -36q5 -20 5 -51q2 -79 6 -257
t6 -257zM356 1129q13 -30 13 -52q0 -6 -1 -10q-4 -22 -21 -30t-37 2q-15 7 -26 22q-14 22 -20 33q-3 7 -10.5 21.5t-11.5 21.5q-6 -9 -18.5 -27t-19.5 -26q-16 -22 -41 -36h-1q-2 -1 -3.5 -2t-3.5 -1q-21 -7 -36.5 4t-16.5 33q0 17 8 33q14 27 19 33l60 84q16 20 26 28
q1 0 2 1l2 2q6 6 13 9q14 7 31 3.5t27 -16.5q4 -4 11 -18q9 -19 27.5 -56t27.5 -56z" />
    <glyph glyph-name="Idieresis" unicode="&#xcf;" horiz-adv-x="573" 
d="M350 371q0 -26 1 -54.5t2.5 -63.5t2.5 -55q3 -61 -3 -122q-2 -23 -5 -34q-13 -42 -52 -42q-44 0 -55 44q-3 11 -3 46v53q1 53 0 53q-1 54 -4.5 157t-4.5 128q0 182 -9 402q-2 35 1 51q4 22 19.5 35.5t36.5 14.5q20 1 35.5 -12t20.5 -36q5 -20 5 -51q2 -79 6 -257t6 -257z
M249 1172q10 -35 -21 -57q-27 -19 -54 -19q-30 0 -51 18t-21 45q0 45 45 68q39 19 74 -11q20 -17 28 -44zM468 1172q10 -35 -21 -57q-27 -19 -54 -19q-30 0 -51 18t-21 45q0 45 44 68q40 19 75 -11q20 -17 28 -44z" />
    <glyph glyph-name="Ntilde" unicode="&#xd1;" 
d="M650 305q4 -111 -3 -209q-2 -27 -6 -40q-14 -48 -54 -55q-43 -7 -69 32q-13 20 -27 49q-20 44 -59.5 153t-59.5 153q-70 153 -90 193q-20 43 -37 76l-27 54q2 -53 2 -60q-3 -192 4 -366q1 -28 3 -83.5t3 -83.5q2 -26 0 -51q0 -18 -12 -39q-16 -26 -41 -26.5t-42 24.5
t-19 62q-9 152 -9 158q-5 130 -3 518q0 15 -0.5 71t-0.5 71q0 25 5 41q5 19 22.5 31t35.5 8q27 -7 42.5 -17t28.5 -33q3 -5 9 -15.5t9 -15.5q82 -145 226 -473q5 -12 15.5 -35.5t15.5 -34.5q4 -7 19 -49q0 56 -1 66q-17 288 -14 482q0 17 4 55q2 15 6 30q17 46 57 43
q33 -1 48 -45q4 -12 4 -56q-2 -75 10 -441q1 -49 5 -142zM219 1046q-30 10 -28 41q0 8 4 22q13 38 50.5 65.5t74.5 26.5q36 0 66 -19q6 -4 17.5 -12.5t17.5 -12.5q19 -13 26 -12t24 15q12 12 19 17q16 10 25 13q18 6 32.5 -4.5t14.5 -29.5q0 -20 -12 -33q-12 -15 -30 -31
q-62 -55 -132 -13q-7 4 -18.5 13t-16.5 12q-45 30 -74 -14q-3 -4 -7.5 -12.5t-6.5 -12.5q-19 -29 -46 -19z" />
    <glyph glyph-name="Ograve" unicode="&#xd2;" horiz-adv-x="747" 
d="M645 473q2 -146 -19 -251q-13 -60 -32 -96q-37 -70 -96 -102t-123.5 -22.5t-122.5 56.5q-78 64 -115 171q-33 98 -35 243q-1 123 38 244q51 155 179 245q31 22 67 20q113 -5 173 -91q36 -51 58 -140q30 -123 28 -277zM515 263q10 52 13 206q-2 79 -5 121q-3 39 -9 76
q-9 64 -33 122q-18 45 -49 62q-22 12 -44 4q-37 -13 -69 -50q-43 -51 -67 -124q-29 -91 -32 -194t21 -195q20 -76 70 -127q20 -22 44 -33q36 -18 66.5 -11t57.5 44q10 13 22 45q5 15 14 54zM306 1194q-11 24 -13 36q-3 15 5 29.5t21 20.5q14 7 31 3.5t27 -16.5q4 -4 11 -18
l54 -111q13 -28 13 -52q0 -6 -1 -10q-4 -22 -20.5 -30t-36.5 2q-15 7 -26 22q-12 16 -20 32q-36 71 -45 92z" />
    <glyph glyph-name="Oacute" unicode="&#xd3;" horiz-adv-x="747" 
d="M645 473q2 -146 -19 -251q-13 -60 -32 -96q-37 -70 -96 -102t-123.5 -22.5t-122.5 56.5q-78 64 -115 171q-33 98 -35 243q-1 123 38 244q51 155 179 245q31 22 67 20q113 -5 173 -91q36 -51 58 -140q30 -123 28 -277zM515 263q10 52 13 206q-2 79 -5 121q-3 39 -9 76
q-9 64 -33 122q-18 45 -49 62q-22 12 -44 4q-37 -13 -69 -50q-43 -51 -67 -124q-29 -91 -32 -194t21 -195q20 -76 70 -127q20 -22 44 -33q36 -18 66.5 -11t57.5 44q10 13 22 45q5 15 14 54zM328 1050q-21 -6 -36.5 6t-14.5 34q0 18 9 33q10 18 21 32q53 69 63 80
q15 18 27 27t28 8t28 -10q13 -10 16.5 -26.5t-3.5 -31.5q-3 -6 -11 -18q-25 -32 -77 -96q-21 -25 -42 -35l-2 -1q-1 0 -2.5 -1t-3.5 -1z" />
    <glyph glyph-name="Ocircumflex" unicode="&#xd4;" horiz-adv-x="747" 
d="M645 473q2 -146 -19 -251q-13 -60 -32 -96q-37 -70 -96 -102t-123.5 -22.5t-122.5 56.5q-78 64 -115 171q-33 98 -35 243q-1 123 38 244q51 155 179 245q31 22 67 20q113 -5 173 -91q36 -51 58 -140q30 -123 28 -277zM515 263q10 52 13 206q-2 79 -5 121q-3 39 -9 76
q-9 64 -33 122q-18 45 -49 62q-22 12 -44 4q-37 -13 -69 -50q-43 -51 -67 -124q-29 -91 -32 -194t21 -195q20 -76 70 -127q20 -22 44 -33q36 -18 66.5 -11t57.5 44q10 13 22 45q5 15 14 54zM293 1045q-21 -7 -36 4t-16 34q0 19 7 33q11 20 20 33l60 84q16 20 26 28q0 1 2 2
l2 1q7 7 12 9q14 7 31 3.5t27 -16.5q6 -6 12 -18q9 -18 27 -55.5t27 -56.5q13 -30 13 -53q0 -5 -1 -9q-4 -22 -21 -30t-37 2q-15 7 -26 22q-18 28 -20 32q-4 7 -11 21.5t-10 21.5q-7 -8 -20 -25.5t-19 -26.5q-16 -23 -40 -36l-2 -1q-1 -1 -3 -2t-4 -1z" />
    <glyph glyph-name="Otilde" unicode="&#xd5;" horiz-adv-x="747" 
d="M645 473q2 -146 -19 -251q-13 -60 -32 -96q-37 -70 -96 -102t-123.5 -22.5t-122.5 56.5q-78 64 -115 171q-33 98 -35 243q-1 123 38 244q51 155 179 245q31 22 67 20q113 -5 173 -91q36 -51 58 -140q30 -123 28 -277zM515 263q10 52 13 206q-2 79 -5 121q-3 39 -9 76
q-9 64 -33 122q-18 45 -49 62q-22 12 -44 4q-37 -13 -69 -50q-43 -51 -67 -124q-29 -91 -32 -194t21 -195q20 -76 70 -127q20 -22 44 -33q36 -18 66.5 -11t57.5 44q10 13 22 45q5 15 14 54zM253 1046q-30 10 -28 41q0 11 3 22q13 38 50.5 65.5t74.5 26.5q36 0 66 -19
q6 -4 18 -12.5t18 -12.5q19 -13 26 -12t24 15q15 15 18 17q15 9 26 13q18 6 32.5 -4.5t14.5 -29.5q0 -20 -12 -33q-12 -15 -30 -31q-62 -55 -132 -13q-7 4 -19.5 13t-16.5 12q-45 30 -74 -14q-3 -4 -7 -12.5t-6 -12.5q-19 -29 -46 -19z" />
    <glyph glyph-name="Odieresis" unicode="&#xd6;" horiz-adv-x="747" 
d="M645 473q2 -146 -19 -251q-13 -60 -32 -96q-37 -70 -96 -102t-123.5 -22.5t-122.5 56.5q-78 64 -115 171q-33 98 -35 243q-1 123 38 244q51 155 179 245q31 22 67 20q113 -5 173 -91q36 -51 58 -140q30 -123 28 -277zM515 263q10 52 13 206q-2 79 -5 121q-3 39 -9 76
q-9 64 -33 122q-18 45 -49 62q-22 12 -44 4q-37 -13 -69 -50q-43 -51 -67 -124q-29 -91 -32 -194t21 -195q20 -76 70 -127q20 -22 44 -33q36 -18 66.5 -11t57.5 44q10 13 22 45q5 15 14 54zM261 1096q-30 0 -50.5 18t-20.5 45q0 45 44 68q39 19 74 -11q20 -17 28 -44
q10 -35 -20 -57q-27 -19 -55 -19zM480 1096q-30 0 -50.5 18t-20.5 45q0 45 44 68q39 19 74 -11q20 -17 28 -44q10 -35 -20 -57q-27 -19 -55 -19z" />
    <glyph glyph-name="Ugrave" unicode="&#xd9;" horiz-adv-x="763" 
d="M659 904q0 -24 1 -95.5t1.5 -117.5t-0.5 -106.5t-4 -100.5q-14 -170 -36 -262q-15 -57 -30 -91q-19 -44 -54 -79q-57 -55 -134 -52q-35 1 -75 11q-134 31 -177 165q-19 58 -28 139q-11 101 -12 202q0 18 -2 52.5t-2 44.5h-1q0 34 -2 143.5t-2 143.5q0 27 3 40q4 21 21 34
t38 12q43 -2 52 -47q2 -8 4 -50q1 -41 3 -150.5t4.5 -198.5t7.5 -151q3 -42 13 -121q1 -8 11 -45q16 -53 48.5 -77.5t88.5 -28.5q46 -3 74 36q17 24 29 64q18 59 28 144q19 154 16 294q-1 28 -1 121.5t-1 121.5q0 35 9 54q15 33 46 34q32 1 50 -30q13 -25 13 -53zM314 1194
q-9 21 -12 36t4.5 29.5t20.5 20.5q14 7 31 3.5t27 -16.5q4 -4 11 -18l54 -111q13 -28 13 -52q0 -6 -1 -10q-4 -22 -20.5 -30t-36.5 2q-15 7 -26 22q-12 16 -20 32q-36 71 -45 92z" />
    <glyph glyph-name="Uacute" unicode="&#xda;" horiz-adv-x="763" 
d="M659 904q0 -24 1 -95.5t1.5 -117.5t-0.5 -106.5t-4 -100.5q-14 -170 -36 -262q-15 -57 -30 -91q-19 -44 -54 -79q-57 -55 -134 -52q-35 1 -75 11q-134 31 -177 165q-19 58 -28 139q-11 101 -12 202q0 18 -2 52.5t-2 44.5h-1q0 34 -2 143.5t-2 143.5q0 27 3 40q4 21 21 34
t38 12q43 -2 52 -47q2 -8 4 -50q1 -41 3 -150.5t4.5 -198.5t7.5 -151q3 -42 13 -121q1 -8 11 -45q16 -53 48.5 -77.5t88.5 -28.5q46 -3 74 36q17 24 29 64q18 59 28 144q19 154 16 294q-1 28 -1 121.5t-1 121.5q0 35 9 54q15 33 46 34q32 1 50 -30q13 -25 13 -53zM383 1050
q-21 -6 -36 6t-14 34q0 20 8 33q10 18 21 32q42 54 64 80q15 18 27 27t28 8t28 -10q13 -10 16.5 -26.5t-3.5 -31.5q-3 -6 -11 -18q-25 -32 -77 -96q-21 -25 -42 -35l-2 -1q-1 0 -3 -1t-4 -1z" />
    <glyph glyph-name="Ucircumflex" unicode="&#xdb;" horiz-adv-x="763" 
d="M659 904q0 -24 1 -95.5t1.5 -117.5t-0.5 -106.5t-4 -100.5q-14 -170 -36 -262q-15 -57 -30 -91q-19 -44 -54 -79q-57 -55 -134 -52q-35 1 -75 11q-134 31 -177 165q-19 58 -28 139q-11 101 -12 202q0 18 -2 52.5t-2 44.5h-1q0 34 -2 143.5t-2 143.5q0 27 3 40q4 21 21 34
t38 12q43 -2 52 -47q2 -8 4 -50q1 -41 3 -150.5t4.5 -198.5t7.5 -151q3 -42 13 -121q1 -8 11 -45q16 -53 48.5 -77.5t88.5 -28.5q46 -3 74 36q17 24 29 64q18 59 28 144q19 154 16 294q-1 28 -1 121.5t-1 121.5q0 35 9 54q15 33 46 34q32 1 50 -30q13 -25 13 -53zM302 1045
q-21 -7 -36.5 4.5t-16.5 33.5q0 19 7 33q11 20 20 33l60 84q16 20 26 28q0 1 2 2l2 1q7 7 12 9q14 7 31 3.5t27 -16.5q6 -6 12 -18q9 -18 27 -55.5t27 -56.5q13 -30 13 -53q0 -5 -1 -9q-4 -22 -21 -30t-37 2q-13 6 -25 22q-2 3 -10 14.5t-11 17.5q-4 7 -11 21.5t-10 21.5
q-6 -8 -18.5 -25.5t-19.5 -26.5q-16 -22 -41 -36l-2 -1q-1 -1 -2.5 -2t-3.5 -1z" />
    <glyph glyph-name="Udieresis" unicode="&#xdc;" horiz-adv-x="763" 
d="M659 904q0 -24 1 -95.5t1.5 -117.5t-0.5 -106.5t-4 -100.5q-14 -170 -36 -262q-15 -57 -30 -91q-19 -44 -54 -79q-57 -55 -134 -52q-35 1 -75 11q-134 31 -177 165q-19 58 -28 139q-11 101 -12 202q0 18 -2 52.5t-2 44.5h-1q0 34 -2 143.5t-2 143.5q0 27 3 40q4 21 21 34
t38 12q43 -2 52 -47q2 -8 4 -50q1 -41 3 -150.5t4.5 -198.5t7.5 -151q3 -42 13 -121q1 -8 11 -45q16 -53 48.5 -77.5t88.5 -28.5q46 -3 74 36q17 24 29 64q18 59 28 144q19 154 16 294q-1 28 -1 121.5t-1 121.5q0 35 9 54q15 33 46 34q32 1 50 -30q13 -25 13 -53zM269 1096
q-30 0 -50.5 18t-20.5 45q0 45 44 68q40 19 75 -11q20 -17 28 -44q10 -35 -21 -57q-27 -19 -55 -19zM488 1096q-30 0 -50.5 18t-20.5 45q0 45 44 68q39 19 74 -11q20 -17 28 -44q10 -35 -20 -57q-27 -19 -55 -19z" />
    <glyph glyph-name="agrave" unicode="&#xe0;" 
d="M650 62q2 -18 -7 -34q-11 -21 -32 -26.5t-41 8.5q-21 15 -29 41q-3 10 -6.5 23.5t-7.5 29.5l-6 24q-8 31 -22.5 107.5t-20.5 103.5q-9 35 -14.5 39t-37.5 3q-44 -1 -127 -5q-15 -1 -19 -4.5t-8 -19.5q-3 -14 -8.5 -57.5t-7.5 -54.5q-5 -27 -16 -81.5t-17 -82.5
q-2 -10 -8 -30q-20 -55 -70 -42q-45 11 -42 69q0 1 0.5 4t1 6.5t0.5 6.5q19 95 49 275t41 233q36 170 69 265q14 38 22 57q7 18 20 35q21 28 51 30t55 -23q20 -20 35 -61q39 -113 50 -149q21 -70 45 -174.5t54 -243.5t48 -217q4 -18 6 -55zM307 498q62 -5 124 3
q-3 40 -27.5 139t-41.5 131q-18 -47 -36.5 -141.5t-18.5 -131.5zM298 1194q-9 21 -12 36t4.5 29.5t20.5 20.5q14 7 31 3.5t27 -16.5q6 -6 12 -18l54 -111q12 -26 12 -52v-10q-4 -22 -21 -30t-37 2q-15 7 -26 22q-12 16 -20 32q-36 71 -45 92z" />
    <glyph glyph-name="aacute" unicode="&#xe1;" 
d="M650 62q2 -18 -7 -34q-11 -21 -32 -26.5t-41 8.5q-21 15 -29 41q-3 10 -6.5 23.5t-7.5 29.5l-6 24q-8 31 -22.5 107.5t-20.5 103.5q-9 35 -14.5 39t-37.5 3q-44 -1 -127 -5q-15 -1 -19 -4.5t-8 -19.5q-3 -14 -8.5 -57.5t-7.5 -54.5q-5 -27 -16 -81.5t-17 -82.5
q-2 -10 -8 -30q-20 -55 -70 -42q-45 11 -42 69q0 1 0.5 4t1 6.5t0.5 6.5q19 95 49 275t41 233q36 170 69 265q14 38 22 57q7 18 20 35q21 28 51 30t55 -23q20 -20 35 -61q39 -113 50 -149q21 -70 45 -174.5t54 -243.5t48 -217q4 -18 6 -55zM307 498q62 -5 124 3
q-3 40 -27.5 139t-41.5 131q-18 -47 -36.5 -141.5t-18.5 -131.5zM309 1050q-21 -6 -36 6t-14 34q0 18 9 33q12 22 20 32q42 54 64 80q15 18 27 27t28 8t28 -10q13 -10 16.5 -26.5t-3.5 -31.5q-3 -6 -11 -18q-25 -32 -77 -96q-21 -25 -42 -35l-2 -1q-1 0 -3 -1t-4 -1z" />
    <glyph glyph-name="acircumflex" unicode="&#xe2;" 
d="M650 62q2 -18 -7 -34q-11 -21 -32 -26.5t-41 8.5q-21 15 -29 41q-3 10 -6.5 23.5t-7.5 29.5l-6 24q-8 31 -22.5 107.5t-20.5 103.5q-9 35 -14.5 39t-37.5 3q-44 -1 -127 -5q-15 -1 -19 -4.5t-8 -19.5q-3 -14 -8.5 -57.5t-7.5 -54.5q-5 -27 -16 -81.5t-17 -82.5
q-2 -10 -8 -30q-20 -55 -70 -42q-45 11 -42 69q0 1 0.5 4t1 6.5t0.5 6.5q19 95 49 275t41 233q36 170 69 265q14 38 22 57q7 18 20 35q21 28 51 30t55 -23q20 -20 35 -61q39 -113 50 -149q21 -70 45 -174.5t54 -243.5t48 -217q4 -18 6 -55zM307 498q62 -5 124 3
q-3 40 -27.5 139t-41.5 131q-18 -47 -36.5 -141.5t-18.5 -131.5zM288 1043q-21 -7 -36 4t-16 34q0 19 7 33q14 27 19 33q40 56 60 83q14 18 27 28q1 1 4 3q7 7 12 9q14 7 31 3.5t27 -16.5q6 -6 12 -18l54 -111q13 -30 13 -53q0 -5 -1 -9q-4 -22 -21 -30.5t-37 1.5
q-15 7 -26 22q-14 22 -20 33q-4 7 -11 21.5t-10 21.5q-6 -8 -19 -25.5t-20 -26.5q-16 -23 -40 -36l-1 -1l-4 -2t-4 -1z" />
    <glyph glyph-name="atilde" unicode="&#xe3;" 
d="M650 62q2 -18 -7 -34q-11 -21 -32 -26.5t-41 8.5q-21 15 -29 41q-3 10 -6.5 23.5t-7.5 29.5l-6 24q-8 31 -22.5 107t-20.5 103q-6 26 -9.5 33t-13.5 10t-29 0q-44 -1 -127 -5q-15 -1 -19 -4.5t-8 -19.5q-3 -14 -8.5 -57.5t-7.5 -54.5q-5 -27 -16 -81.5t-17 -82.5
q-2 -10 -8 -30q-20 -55 -70 -42q-45 11 -42 69q0 1 0.5 4t1 6.5t0.5 6.5q19 95 49 275t41 233q36 170 69 265q14 38 22 57q7 18 20 35q21 28 51 30t55 -23q20 -20 35 -61q39 -113 50 -149q21 -70 45 -174.5t54 -243.5t48 -217q4 -18 6 -55zM307 498q62 -5 124 3
q-3 40 -27.5 139t-41.5 131q-18 -47 -36.5 -141.5t-18.5 -131.5zM219 1046q-30 10 -28 41q0 8 4 22q13 38 50.5 65.5t74.5 26.5q36 0 66 -19q6 -4 17.5 -12.5t17.5 -12.5q19 -13 26 -12t24 15q12 12 19 17q16 10 25 13q18 6 32.5 -4.5t14.5 -29.5q0 -20 -12 -33
q-12 -15 -30 -31q-62 -55 -132 -13q-7 4 -18.5 13t-16.5 12q-45 30 -74 -14q-3 -4 -7.5 -12.5t-6.5 -12.5q-19 -29 -46 -19z" />
    <glyph glyph-name="adieresis" unicode="&#xe4;" 
d="M650 62q2 -18 -7 -34q-11 -21 -32 -26.5t-41 8.5q-21 15 -29 41q-3 10 -6.5 23.5t-7.5 29.5l-6 24q-8 31 -22.5 107t-20.5 103q-6 26 -9.5 33t-13.5 10t-29 0q-44 -1 -127 -5q-15 -1 -19 -4.5t-8 -19.5q-3 -14 -8.5 -57.5t-7.5 -54.5q-5 -27 -16 -81.5t-17 -82.5
q-2 -10 -8 -30q-20 -55 -70 -42q-45 11 -42 69q0 1 0.5 4t1 6.5t0.5 6.5q19 95 49 275t41 233q36 170 69 265q14 38 22 57q7 18 20 35q21 28 51 30t55 -23q20 -20 35 -61q39 -113 50 -149q21 -70 45 -174.5t54 -243.5t48 -217q4 -18 6 -55zM307 498q62 -5 124 3
q-3 40 -27.5 139t-41.5 131q-18 -47 -36.5 -141.5t-18.5 -131.5zM245 1100q-30 0 -51 18.5t-21 45.5q0 45 45 68q39 19 74 -12q20 -17 28 -44q10 -34 -21 -56q-28 -20 -54 -20zM464 1100q-30 0 -51 18.5t-21 45.5q0 45 44 68q39 19 75 -12q20 -17 28 -44q10 -34 -21 -56
q-28 -20 -54 -20z" />
    <glyph glyph-name="ccedilla" unicode="&#xe7;" horiz-adv-x="747" 
d="M643 101q6 -30 -18 -50q-17 -13 -30 -18q-79 -28 -131 -31l-27 -76q1 0 4 -0.5t4 -0.5q71 -12 102 -65q22 -38 19 -72q-3 -53 -56 -86t-117 -21q-9 1 -15 5q-36 26 -16.5 52.5t53.5 23.5h5q6 0 16 2q30 7 30 30q-5 51 -64 54h-9q-26 0 -40 5.5t-17 12t-5 17.5q-2 13 6 24
l32 105q-45 13 -81 35q-103 63 -145 171q-22 60 -28 97q-38 245 30 456q24 71 65 125q45 58 102 75.5t108 -0.5t92 -61q28 -30 48 -66q52 -97 64 -265q2 -22 -4 -41q-5 -19 -22 -31t-36 -10q-18 2 -32 13.5t-18 29.5q-2 10 -4 30q-12 122 -34 181q-15 40 -44 74
q-15 18 -35 28q-40 21 -71 -7q-15 -14 -33 -39q-20 -28 -36 -78q-37 -118 -34 -235q0 -119 15 -180q23 -94 76 -140q85 -74 184 -48q36 10 54 13q33 5 56 -1q32 -10 37 -37z" />
    <glyph glyph-name="egrave" unicode="&#xe8;" horiz-adv-x="632" 
d="M511 99q18 -18 18.5 -38.5t-17.5 -37.5q-15 -13 -51 -20q-11 -2 -70 -2q-26 1 -77.5 1.5t-78.5 0.5h-26q-65 0 -72 59q-9 67 -12 137q-3 59 -8 183.5t-8 188.5q-3 45 -4 165t-2 158v20q3 29 22.5 48t47.5 20q10 1 27 0t23 -1q122 -2 183 -4q33 -1 66 -6q14 -1 28 -10
q26 -16 26 -44t-26 -44q-24 -14 -64 -14q-27 1 -81 1t-81 1q-41 1 -47 -5t-5 -47q1 -78 5 -234q1 -17 6 -21.5t22 -3.5q18 0 53 2t53 2q29 2 54 -12q27 -15 28.5 -42.5t-23.5 -44.5q-19 -13 -43 -15q-31 -3 -86 -7q-26 -2 -40 -3t-16 -16v-20q2 -39 5.5 -122t5.5 -122
q1 -13 3 -21.5t8.5 -14.5t17.5 -5q26 3 75.5 4t71.5 3q23 3 55 -1q20 -2 34 -16zM248 1194q-11 24 -13 36q-3 15 5 29.5t21 20.5q14 7 31 3.5t27 -16.5q4 -4 11 -18l54 -111q13 -28 13 -52q0 -6 -1 -10q-4 -22 -20.5 -30t-36.5 2q-15 7 -26 22q-12 16 -20 32q-36 71 -45 92z
" />
    <glyph glyph-name="eacute" unicode="&#xe9;" horiz-adv-x="632" 
d="M511 99q18 -18 18.5 -38.5t-17.5 -37.5q-15 -13 -51 -20q-11 -2 -70 -2q-26 1 -77.5 1.5t-78.5 0.5h-26q-65 0 -72 59q-9 67 -12 137q-3 59 -8 183.5t-8 188.5q-3 45 -4 165t-2 158v20q3 29 22.5 48t47.5 20q10 1 27 0t23 -1q122 -2 183 -4q33 -1 66 -6q14 -1 28 -10
q26 -16 26 -44t-26 -44q-24 -14 -64 -14q-27 1 -81 1t-81 1q-41 1 -47 -5t-5 -47q1 -78 5 -234q1 -17 6 -21.5t22 -3.5q18 0 53 2t53 2q29 2 54 -12q27 -15 28.5 -42.5t-23.5 -44.5q-19 -13 -43 -15q-31 -3 -86 -7q-26 -2 -40 -3t-16 -16v-20q2 -39 5.5 -122t5.5 -122
q1 -13 3 -21.5t8.5 -14.5t17.5 -5q26 3 75.5 4t71.5 3q23 3 55 -1q20 -2 34 -16zM270 1050q-21 -6 -36.5 6t-14.5 34q0 18 9 33q10 18 21 32q53 69 63 80q15 18 27 27t28 8t28 -10q13 -10 16.5 -26.5t-3.5 -31.5q-3 -6 -11 -18q-25 -32 -77 -96q-21 -25 -42 -35l-2 -1
q-1 0 -2.5 -1t-3.5 -1z" />
    <glyph glyph-name="ecircumflex" unicode="&#xea;" horiz-adv-x="632" 
d="M511 99q18 -18 18.5 -38.5t-17.5 -37.5q-15 -13 -51 -20q-11 -2 -70 -2q-26 1 -77.5 1.5t-78.5 0.5h-26q-65 0 -72 59q-9 67 -12 137q-3 59 -8 183.5t-8 188.5q-3 45 -4 165t-2 158v20q3 29 22.5 48t47.5 20q10 1 27 0t23 -1q122 -2 183 -4q33 -1 66 -6q14 -1 28 -10
q26 -16 26 -44t-26 -44q-24 -14 -64 -14q-27 1 -81 1t-81 1q-41 1 -47 -5t-5 -47q1 -78 5 -234q1 -17 6 -21.5t22 -3.5q18 0 53 2t53 2q29 2 54 -12q27 -15 28.5 -42.5t-23.5 -44.5q-19 -13 -43 -15q-31 -3 -86 -7q-26 -2 -40 -3t-16 -16v-20q2 -39 5.5 -122t5.5 -122
q1 -13 3 -21.5t8.5 -14.5t17.5 -5q26 3 75.5 4t71.5 3q23 3 55 -1q20 -2 34 -16zM235 1044q-21 -7 -36 4t-16 33q0 20 7 34q11 20 20 33q40 56 60 83q16 20 26 28q0 1 2 2l2 1q7 7 12 9q14 7 31 3.5t27 -16.5q6 -6 12 -18l54 -111q13 -30 13 -53q0 -5 -1 -9
q-4 -22 -21 -30.5t-37 1.5q-13 6 -25 22q-2 4 -6.5 10.5t-8 12t-6.5 10.5q-3 7 -10 21.5t-11 21.5q-7 -8 -20 -25.5t-19 -26.5q-18 -25 -40 -37l-2 -1q-1 0 -3 -1t-4 -1z" />
    <glyph glyph-name="edieresis" unicode="&#xeb;" horiz-adv-x="632" 
d="M511 99q18 -18 18.5 -38.5t-17.5 -37.5q-15 -13 -51 -20q-11 -2 -70 -2q-26 1 -77.5 1.5t-78.5 0.5h-26q-65 0 -72 59q-9 67 -12 137q-3 59 -8 183.5t-8 188.5q-3 45 -4 165t-2 158v20q3 29 22.5 48t47.5 20q10 1 27 0t23 -1q122 -2 183 -4q33 -1 66 -6q14 -1 28 -10
q26 -16 26 -44t-26 -44q-24 -14 -64 -14q-27 1 -81 1t-81 1q-41 1 -47 -5t-5 -47q1 -78 5 -234q1 -17 6 -21.5t22 -3.5q18 0 53 2t53 2q29 2 54 -12q27 -15 28.5 -42.5t-23.5 -44.5q-19 -13 -43 -15q-31 -3 -86 -7q-26 -2 -40 -3t-16 -16v-20q2 -39 5.5 -122t5.5 -122
q1 -13 3 -21.5t8.5 -14.5t17.5 -5q26 3 75.5 4t71.5 3q23 3 55 -1q20 -2 34 -16zM203 1096q-30 0 -50.5 18t-20.5 45q0 45 44 68q39 19 74 -11q20 -17 28 -44q10 -35 -20 -57q-27 -19 -55 -19zM422 1096q-30 0 -50.5 18t-20.5 45q0 45 44 68q39 19 74 -11q20 -17 28 -44
q10 -35 -20 -57q-27 -19 -55 -19z" />
    <glyph glyph-name="igrave" unicode="&#xec;" horiz-adv-x="366" 
d="M247 371q0 -26 1 -54.5t2.5 -63.5t2.5 -55q3 -68 -2 -122q-1 -17 -6 -34q-13 -42 -52 -42q-43 0 -54 44q-4 15 -4 46l1 53q0 53 -1 53q-1 54 -4.5 157t-4.5 128q0 182 -9 402q-2 35 1 51q4 22 19.5 35.5t36.5 14.5t36.5 -12t20.5 -36q4 -16 4 -51q2 -79 6 -257t6 -257z
M252 1138q13 -28 13 -52q0 -6 -1 -10q-4 -22 -21 -30t-37 2q-13 6 -25 22t-20 32l-46 92q-9 21 -12 36t5 29.5t21 20.5q14 7 30.5 3.5t26.5 -16.5q6 -6 12 -18z" />
    <glyph glyph-name="iacute" unicode="&#xed;" horiz-adv-x="399" 
d="M261 371q0 -26 1 -54.5t2.5 -63.5t2.5 -55q3 -67 -2 -121q-2 -19 -6 -35q-13 -42 -52 -42q-43 0 -54 44q-4 15 -4 46l1 53q0 53 -1 53q-1 54 -4.5 157t-4.5 128q0 182 -9 402q-2 31 2 51q4 22 19 35.5t36 14.5t36.5 -12t20.5 -36q5 -20 5 -51q2 -79 5.5 -257t5.5 -257z
M278 1260q13 -10 17 -26.5t-3 -31.5q-3 -6 -11 -18q-25 -32 -77 -96q-21 -25 -42 -35l-2 -1q-1 0 -3 -1t-4 -1q-21 -6 -36.5 6t-14.5 34q0 18 9 33q10 18 21 32q53 69 63 80q13 17 28 27q27 20 55 -2z" />
    <glyph glyph-name="icircumflex" unicode="&#xee;" horiz-adv-x="471" 
d="M299 371q0 -26 1 -54.5t2.5 -63.5t2.5 -55q3 -60 -3 -121q-2 -24 -5 -35q-13 -42 -52 -42q-43 0 -54 44q-4 15 -4 46l1 53q0 53 -1 53q-1 54 -4.5 157t-4.5 128q0 182 -9 402q-2 35 1 51q4 22 19.5 35.5t36.5 14.5q20 1 35.5 -12t20.5 -36q5 -20 5 -51q2 -79 6 -257
t6 -257zM356 1129q13 -30 13 -52q0 -6 -1 -10q-4 -22 -21 -30t-37 2q-15 7 -26 22q-14 22 -20 33q-3 7 -10.5 21.5t-11.5 21.5q-6 -9 -18.5 -27t-19.5 -26q-16 -22 -41 -36h-1q-2 -1 -3.5 -2t-3.5 -1q-21 -7 -36.5 4t-16.5 33q0 17 8 33q14 27 19 33l60 84q16 20 26 28
q1 0 2 1l2 2q6 6 13 9q14 7 31 3.5t27 -16.5q4 -4 11 -18q9 -19 27.5 -56t27.5 -56z" />
    <glyph glyph-name="idieresis" unicode="&#xef;" horiz-adv-x="573" 
d="M350 371q0 -26 1 -54.5t2.5 -63.5t2.5 -55q3 -61 -3 -122q-2 -23 -5 -34q-13 -42 -52 -42q-44 0 -55 44q-3 11 -3 46v53q1 53 0 53q-1 54 -4.5 157t-4.5 128q0 182 -9 402q-2 35 1 51q4 22 19.5 35.5t36.5 14.5q20 1 35.5 -12t20.5 -36q5 -20 5 -51q2 -79 6 -257t6 -257z
M249 1172q10 -35 -21 -57q-27 -19 -54 -19q-30 0 -51 18t-21 45q0 45 45 68q39 19 74 -11q20 -17 28 -44zM468 1172q10 -35 -21 -57q-27 -19 -54 -19q-30 0 -51 18t-21 45q0 45 44 68q40 19 75 -11q20 -17 28 -44z" />
    <glyph glyph-name="ntilde" unicode="&#xf1;" 
d="M650 305q4 -111 -3 -209q-2 -27 -6 -40q-14 -48 -54 -55q-43 -7 -69 32q-13 20 -27 49q-20 44 -59.5 153t-59.5 153q-70 153 -90 193q-20 43 -37 76l-27 54q2 -53 2 -60q-3 -192 4 -366q1 -28 3 -83.5t3 -83.5q2 -26 0 -51q0 -18 -12 -39q-16 -26 -41 -26.5t-42 24.5
t-19 62q-9 152 -9 158q-5 130 -3 518q0 15 -0.5 71t-0.5 71q0 25 5 41q5 19 22.5 31t35.5 8q27 -7 42.5 -17t28.5 -33q3 -5 9 -15.5t9 -15.5q82 -145 226 -473q5 -12 15.5 -35.5t15.5 -34.5q4 -7 19 -49q0 56 -1 66q-17 288 -14 482q0 17 4 55q2 15 6 30q17 46 57 43
q33 -1 48 -45q4 -12 4 -56q-2 -75 10 -441q1 -49 5 -142zM219 1046q-30 10 -28 41q0 8 4 22q13 38 50.5 65.5t74.5 26.5q36 0 66 -19q6 -4 17.5 -12.5t17.5 -12.5q19 -13 26 -12t24 15q12 12 19 17q16 10 25 13q18 6 32.5 -4.5t14.5 -29.5q0 -20 -12 -33q-12 -15 -30 -31
q-62 -55 -132 -13q-7 4 -18.5 13t-16.5 12q-45 30 -74 -14q-3 -4 -7.5 -12.5t-6.5 -12.5q-19 -29 -46 -19z" />
    <glyph glyph-name="ograve" unicode="&#xf2;" horiz-adv-x="747" 
d="M645 473q2 -146 -19 -251q-13 -60 -32 -96q-37 -70 -96 -102t-123.5 -22.5t-122.5 56.5q-78 64 -115 171q-33 98 -35 243q-1 123 38 244q51 155 179 245q31 22 67 20q113 -5 173 -91q36 -51 58 -140q30 -123 28 -277zM515 263q10 52 13 206q-2 79 -5 121q-3 39 -9 76
q-9 64 -33 122q-18 45 -49 62q-22 12 -44 4q-37 -13 -69 -50q-43 -51 -67 -124q-29 -91 -32 -194t21 -195q20 -76 70 -127q20 -22 44 -33q36 -18 66.5 -11t57.5 44q10 13 22 45q5 15 14 54zM306 1194q-11 24 -13 36q-3 15 5 29.5t21 20.5q14 7 31 3.5t27 -16.5q4 -4 11 -18
l54 -111q13 -28 13 -52q0 -6 -1 -10q-4 -22 -20.5 -30t-36.5 2q-15 7 -26 22q-12 16 -20 32q-36 71 -45 92z" />
    <glyph glyph-name="oacute" unicode="&#xf3;" horiz-adv-x="747" 
d="M645 473q2 -146 -19 -251q-13 -60 -32 -96q-37 -70 -96 -102t-123.5 -22.5t-122.5 56.5q-78 64 -115 171q-33 98 -35 243q-1 123 38 244q51 155 179 245q31 22 67 20q113 -5 173 -91q36 -51 58 -140q30 -123 28 -277zM515 263q10 52 13 206q-2 79 -5 121q-3 39 -9 76
q-9 64 -33 122q-18 45 -49 62q-22 12 -44 4q-37 -13 -69 -50q-43 -51 -67 -124q-29 -91 -32 -194t21 -195q20 -76 70 -127q20 -22 44 -33q36 -18 66.5 -11t57.5 44q10 13 22 45q5 15 14 54zM328 1050q-21 -6 -36.5 6t-14.5 34q0 18 9 33q10 18 21 32q53 69 63 80
q15 18 27 27t28 8t28 -10q13 -10 16.5 -26.5t-3.5 -31.5q-3 -6 -11 -18q-25 -32 -77 -96q-21 -25 -42 -35l-2 -1q-1 0 -2.5 -1t-3.5 -1z" />
    <glyph glyph-name="ocircumflex" unicode="&#xf4;" horiz-adv-x="747" 
d="M645 473q2 -146 -19 -251q-13 -60 -32 -96q-37 -70 -96 -102t-123.5 -22.5t-122.5 56.5q-78 64 -115 171q-33 98 -35 243q-1 123 38 244q51 155 179 245q31 22 67 20q113 -5 173 -91q36 -51 58 -140q30 -123 28 -277zM515 263q10 52 13 206q-2 79 -5 121q-3 39 -9 76
q-9 64 -33 122q-18 45 -49 62q-22 12 -44 4q-37 -13 -69 -50q-43 -51 -67 -124q-29 -91 -32 -194t21 -195q20 -76 70 -127q20 -22 44 -33q36 -18 66.5 -11t57.5 44q10 13 22 45q5 15 14 54zM293 1045q-21 -7 -36 4t-16 34q0 19 7 33q11 20 20 33l60 84q16 20 26 28q0 1 2 2
l2 1q7 7 12 9q14 7 31 3.5t27 -16.5q6 -6 12 -18q9 -18 27 -55.5t27 -56.5q13 -30 13 -53q0 -5 -1 -9q-4 -22 -21 -30t-37 2q-15 7 -26 22q-18 28 -20 32q-4 7 -11 21.5t-10 21.5q-7 -8 -20 -25.5t-19 -26.5q-16 -23 -40 -36l-2 -1q-1 -1 -3 -2t-4 -1z" />
    <glyph glyph-name="otilde" unicode="&#xf5;" horiz-adv-x="747" 
d="M645 473q2 -146 -19 -251q-13 -60 -32 -96q-37 -70 -96 -102t-123.5 -22.5t-122.5 56.5q-78 64 -115 171q-33 98 -35 243q-1 123 38 244q51 155 179 245q31 22 67 20q113 -5 173 -91q36 -51 58 -140q30 -123 28 -277zM515 263q10 52 13 206q-2 79 -5 121q-3 39 -9 76
q-9 64 -33 122q-18 45 -49 62q-22 12 -44 4q-37 -13 -69 -50q-43 -51 -67 -124q-29 -91 -32 -194t21 -195q20 -76 70 -127q20 -22 44 -33q36 -18 66.5 -11t57.5 44q10 13 22 45q5 15 14 54zM253 1046q-30 10 -28 41q0 11 3 22q13 38 50.5 65.5t74.5 26.5q36 0 66 -19
q6 -4 18 -12.5t18 -12.5q19 -13 26 -12t24 15q15 15 18 17q15 9 26 13q18 6 32.5 -4.5t14.5 -29.5q0 -20 -12 -33q-12 -15 -30 -31q-62 -55 -132 -13q-7 4 -19.5 13t-16.5 12q-45 30 -74 -14q-3 -4 -7 -12.5t-6 -12.5q-19 -29 -46 -19z" />
    <glyph glyph-name="odieresis" unicode="&#xf6;" horiz-adv-x="747" 
d="M645 473q2 -146 -19 -251q-13 -60 -32 -96q-37 -70 -96 -102t-123.5 -22.5t-122.5 56.5q-78 64 -115 171q-33 98 -35 243q-1 123 38 244q51 155 179 245q31 22 67 20q113 -5 173 -91q36 -51 58 -140q30 -123 28 -277zM515 263q10 52 13 206q-2 79 -5 121q-3 39 -9 76
q-9 64 -33 122q-18 45 -49 62q-22 12 -44 4q-37 -13 -69 -50q-43 -51 -67 -124q-29 -91 -32 -194t21 -195q20 -76 70 -127q20 -22 44 -33q36 -18 66.5 -11t57.5 44q10 13 22 45q5 15 14 54zM261 1096q-30 0 -50.5 18t-20.5 45q0 45 44 68q39 19 74 -11q20 -17 28 -44
q10 -35 -20 -57q-27 -19 -55 -19zM480 1096q-30 0 -50.5 18t-20.5 45q0 45 44 68q39 19 74 -11q20 -17 28 -44q10 -35 -20 -57q-27 -19 -55 -19z" />
    <glyph glyph-name="divide" unicode="&#xf7;" horiz-adv-x="751" 
d="M624 642q22 -13 25 -36t-16 -41q-14 -14 -35 -19q-32 -8 -50 -9q-214 -18 -365 -14q-24 0 -35 3q-22 4 -34.5 21t-10.5 38q2 20 14.5 34.5t32.5 17.5q15 2 46 2h126q37 2 105.5 7.5t102.5 7.5t61 -1q17 -2 33 -11zM361 748q-24 1 -40 18t-15 42t18 41.5t40 15.5
q24 -1 40 -18.5t15 -42.5t-17.5 -41t-40.5 -15zM384 418q24 -1 40 -18t15 -41q-1 -23 -17 -38t-39 -14q-24 1 -40.5 18t-15.5 40q2 23 18.5 38.5t38.5 14.5z" />
    <glyph glyph-name="ugrave" unicode="&#xf9;" horiz-adv-x="763" 
d="M659 904q0 -24 1 -95.5t1.5 -117.5t-0.5 -106.5t-4 -100.5q-14 -170 -36 -262q-15 -57 -30 -91q-19 -44 -54 -79q-57 -55 -134 -52q-35 1 -75 11q-134 31 -177 165q-19 58 -28 139q-11 101 -12 202q0 18 -2 52.5t-2 44.5h-1q0 34 -2 143.5t-2 143.5q0 27 3 40q4 21 21 34
t38 12q43 -2 52 -47q2 -8 4 -50q1 -41 3 -150.5t4.5 -198.5t7.5 -151q3 -42 13 -121q1 -8 11 -45q16 -53 48.5 -77.5t88.5 -28.5q46 -3 74 36q17 24 29 64q18 59 28 144q19 154 16 294q-1 28 -1 121.5t-1 121.5q0 35 9 54q15 33 46 34q32 1 50 -30q13 -25 13 -53zM314 1194
q-9 21 -12 36t4.5 29.5t20.5 20.5q14 7 31 3.5t27 -16.5q4 -4 11 -18l54 -111q13 -28 13 -52q0 -6 -1 -10q-4 -22 -20.5 -30t-36.5 2q-15 7 -26 22q-12 16 -20 32q-36 71 -45 92z" />
    <glyph glyph-name="uacute" unicode="&#xfa;" horiz-adv-x="763" 
d="M659 904q0 -24 1 -95.5t1.5 -117.5t-0.5 -106.5t-4 -100.5q-14 -170 -36 -262q-15 -57 -30 -91q-19 -44 -54 -79q-57 -55 -134 -52q-35 1 -75 11q-134 31 -177 165q-19 58 -28 139q-11 101 -12 202q0 18 -2 52.5t-2 44.5h-1q0 34 -2 143.5t-2 143.5q0 27 3 40q4 21 21 34
t38 12q43 -2 52 -47q2 -8 4 -50q1 -41 3 -150.5t4.5 -198.5t7.5 -151q3 -42 13 -121q1 -8 11 -45q16 -53 48.5 -77.5t88.5 -28.5q46 -3 74 36q17 24 29 64q18 59 28 144q19 154 16 294q-1 28 -1 121.5t-1 121.5q0 35 9 54q15 33 46 34q32 1 50 -30q13 -25 13 -53zM383 1050
q-21 -6 -36 6t-14 34q0 20 8 33q10 18 21 32q42 54 64 80q15 18 27 27t28 8t28 -10q13 -10 16.5 -26.5t-3.5 -31.5q-3 -6 -11 -18q-25 -32 -77 -96q-21 -25 -42 -35l-2 -1q-1 0 -3 -1t-4 -1z" />
    <glyph glyph-name="ucircumflex" unicode="&#xfb;" horiz-adv-x="763" 
d="M659 904q0 -24 1 -95.5t1.5 -117.5t-0.5 -106.5t-4 -100.5q-14 -170 -36 -262q-15 -57 -30 -91q-19 -44 -54 -79q-57 -55 -134 -52q-35 1 -75 11q-134 31 -177 165q-19 58 -28 139q-11 101 -12 202q0 18 -2 52.5t-2 44.5h-1q0 34 -2 143.5t-2 143.5q0 27 3 40q4 21 21 34
t38 12q43 -2 52 -47q2 -8 4 -50q1 -41 3 -150.5t4.5 -198.5t7.5 -151q3 -42 13 -121q1 -8 11 -45q16 -53 48.5 -77.5t88.5 -28.5q46 -3 74 36q17 24 29 64q18 59 28 144q19 154 16 294q-1 28 -1 121.5t-1 121.5q0 35 9 54q15 33 46 34q32 1 50 -30q13 -25 13 -53zM302 1045
q-21 -7 -36.5 4.5t-16.5 33.5q0 19 7 33q11 20 20 33l60 84q16 20 26 28q0 1 2 2l2 1q7 7 12 9q14 7 31 3.5t27 -16.5q6 -6 12 -18q9 -18 27 -55.5t27 -56.5q13 -30 13 -53q0 -5 -1 -9q-4 -22 -21 -30t-37 2q-13 6 -25 22q-2 3 -10 14.5t-11 17.5q-4 7 -11 21.5t-10 21.5
q-6 -8 -18.5 -25.5t-19.5 -26.5q-16 -22 -41 -36l-2 -1q-1 -1 -2.5 -2t-3.5 -1z" />
    <glyph glyph-name="udieresis" unicode="&#xfc;" horiz-adv-x="763" 
d="M659 904q0 -24 1 -95.5t1.5 -117.5t-0.5 -106.5t-4 -100.5q-14 -170 -36 -262q-15 -57 -30 -91q-19 -44 -54 -79q-57 -55 -134 -52q-35 1 -75 11q-134 31 -177 165q-19 58 -28 139q-11 101 -12 202q0 18 -2 52.5t-2 44.5h-1q0 34 -2 143.5t-2 143.5q0 27 3 40q4 21 21 34
t38 12q43 -2 52 -47q2 -8 4 -50q1 -41 3 -150.5t4.5 -198.5t7.5 -151q3 -42 13 -121q1 -8 11 -45q16 -53 48.5 -77.5t88.5 -28.5q46 -3 74 36q17 24 29 64q18 59 28 144q19 154 16 294q-1 28 -1 121.5t-1 121.5q0 35 9 54q15 33 46 34q32 1 50 -30q13 -25 13 -53zM269 1096
q-30 0 -50.5 18t-20.5 45q0 45 44 68q40 19 75 -11q20 -17 28 -44q10 -35 -21 -57q-27 -19 -55 -19zM488 1096q-30 0 -50.5 18t-20.5 45q0 45 44 68q39 19 74 -11q20 -17 28 -44q10 -35 -20 -57q-27 -19 -55 -19z" />
    <glyph glyph-name="ydieresis" unicode="&#xff;" horiz-adv-x="829" 
d="M659 983q29 5 49 -13.5t18 -48.5q-1 -14 -9 -40q-114 -350 -176 -498q-12 -27 -10 -70q1 -28 4 -85.5t5 -86.5q0 -12 2 -38t2 -38q1 -21 -14 -43q-14 -20 -38 -22t-41 16q-17 17 -20 40q-6 36 -7 56q-10 184 -11 223q-1 29 -18 51q-23 29 -80 129q-16 29 -81 154.5
t-100 181.5q-18 30 -20 35q-8 18 -10 28q-4 20 4.5 38t25.5 26q38 17 65 -13q8 -9 26 -38q38 -63 111.5 -201t90.5 -169l6 -12t7 -13t7.5 -11t10.5 -10q6 4 10 9.5t6 10t4 13t3 11.5q16 50 61 178.5t63 182.5q6 18 15 37q13 26 39 30zM302 1096q-30 0 -50.5 18t-20.5 45
q0 45 44 68q39 19 74 -11q20 -17 28 -44q10 -35 -20 -57q-27 -19 -55 -19zM521 1096q-30 0 -51 18t-21 45q0 45 44 68q40 19 75 -11q20 -17 28 -44q10 -35 -21 -57q-27 -19 -54 -19z" />
    <glyph glyph-name="Cacute" unicode="&#x106;" horiz-adv-x="747" 
d="M643 99q6 -30 -18 -50q-17 -13 -30 -18q-80 -30 -143 -31q-87 -1 -164 45q-103 63 -145 171q-22 59 -28 98q-38 244 30 455q24 72 65 126q45 58 102 75.5t108 -0.5t92 -62q30 -31 48 -65q52 -97 64 -266q2 -22 -4 -40q-5 -19 -22 -31t-36 -10q-18 2 -32 13.5t-18 29.5
q-2 10 -4 30q-12 122 -34 181q-15 40 -44 74q-15 18 -35 28q-39 21 -71 -8q-17 -16 -33 -38q-20 -28 -36 -78q-37 -118 -34 -235q0 -119 15 -180q23 -94 76 -140q85 -74 184 -48q36 10 54 13q33 5 56 -1q32 -10 37 -38zM327 1050q-21 -6 -36.5 6t-14.5 34q0 18 9 33
q10 18 21 32q53 69 63 80q13 17 28 27q27 20 55 -2q13 -10 17 -26.5t-3 -31.5q-3 -6 -11 -18q-25 -32 -77 -96q-21 -25 -42 -35l-2 -1q-1 0 -3 -1t-4 -1z" />
    <glyph glyph-name="cacute" unicode="&#x107;" horiz-adv-x="747" 
d="M643 99q6 -30 -18 -50q-17 -13 -30 -18q-80 -30 -143 -31q-87 -1 -164 45q-103 63 -145 171q-22 59 -28 98q-38 244 30 455q24 72 65 126q45 58 102 75.5t108 -0.5t92 -62q30 -31 48 -65q52 -97 64 -266q2 -22 -4 -40q-5 -19 -22 -31t-36 -10q-18 2 -32 13.5t-18 29.5
q-2 10 -4 30q-12 122 -34 181q-15 40 -44 74q-15 18 -35 28q-39 21 -71 -8q-17 -16 -33 -38q-20 -28 -36 -78q-37 -118 -34 -235q0 -119 15 -180q23 -94 76 -140q85 -74 184 -48q36 10 54 13q33 5 56 -1q32 -10 37 -38zM327 1050q-21 -6 -36.5 6t-14.5 34q0 18 9 33
q10 18 21 32q53 69 63 80q13 17 28 27q27 20 55 -2q13 -10 17 -26.5t-3 -31.5q-3 -6 -11 -18q-25 -32 -77 -96q-21 -25 -42 -35l-2 -1q-1 0 -3 -1t-4 -1z" />
    <glyph glyph-name="Nacute" unicode="&#x143;" 
d="M650 305q4 -111 -3 -209q-2 -27 -6 -40q-14 -48 -54 -55q-43 -7 -69 32q-13 20 -27 49q-20 44 -59.5 153t-59.5 153q-70 153 -90 193q-20 43 -37 76l-27 54q2 -53 2 -60q-3 -192 4 -366q1 -28 3 -83.5t3 -83.5q2 -26 0 -51q0 -18 -12 -39q-16 -26 -41 -26.5t-42 24.5
t-19 62q-9 152 -9 158q-5 130 -3 518q0 15 -0.5 71t-0.5 71q0 25 5 41q5 19 22.5 31t35.5 8q27 -7 42.5 -17t28.5 -33q3 -5 9 -15.5t9 -15.5q82 -145 226 -473q5 -12 15.5 -35.5t15.5 -34.5q4 -7 19 -49q0 56 -1 66q-17 288 -14 482q0 17 4 55q2 15 6 30q17 46 57 43
q33 -1 48 -45q4 -12 4 -56q-2 -75 10 -441q1 -49 5 -142zM330 1050q-21 -6 -36 6t-14 34q0 18 9 33q12 22 20 32q42 54 64 80q15 18 27 27t28 8t28 -10q13 -10 16.5 -26.5t-3.5 -31.5q-3 -6 -11 -18q-25 -32 -77 -96q-21 -25 -42 -35l-1 -1q-2 0 -4 -1t-4 -1z" />
    <glyph glyph-name="nacute" unicode="&#x144;" 
d="M650 305q4 -111 -3 -209q-2 -27 -6 -40q-14 -48 -54 -55q-43 -7 -69 32q-13 20 -27 49q-20 44 -59.5 153t-59.5 153q-70 153 -90 193q-20 43 -37 76l-27 54q2 -53 2 -60q-3 -192 4 -366q1 -28 3 -83.5t3 -83.5q2 -26 0 -51q0 -18 -12 -39q-16 -26 -41 -26.5t-42 24.5
t-19 62q-9 152 -9 158q-5 130 -3 518q0 15 -0.5 71t-0.5 71q0 25 5 41q5 19 22.5 31t35.5 8q27 -7 42.5 -17t28.5 -33q3 -5 9 -15.5t9 -15.5q82 -145 226 -473q5 -12 15.5 -35.5t15.5 -34.5q4 -7 19 -49q0 56 -1 66q-17 288 -14 482q0 17 4 55q2 15 6 30q17 46 57 43
q33 -1 48 -45q4 -12 4 -56q-2 -75 10 -441q1 -49 5 -142zM330 1050q-21 -6 -36 6t-14 34q0 18 9 33q12 22 20 32q42 54 64 80q15 18 27 27t28 8t28 -10q13 -10 16.5 -26.5t-3.5 -31.5q-3 -6 -11 -18q-25 -32 -77 -96q-21 -25 -42 -35l-1 -1q-2 0 -4 -1t-4 -1z" />
    <glyph glyph-name="Sacute" unicode="&#x15a;" horiz-adv-x="698" 
d="M582 751q13 -95 13 -131q-3 -59 -4 -66q-4 -20 -19 -32t-35 -12q-46 0 -56 48l-3 36q-4 73 -7 106q-5 49 -23 88q-13 28 -38 48q-29 27 -70.5 26t-73.5 -39q-94 -110 -2 -243q13 -19 35 -46q12 -15 32 -42t36 -47t33 -37q63 -63 107 -130q26 -40 35 -73
q23 -83 -24.5 -144.5t-133.5 -60.5q-61 0 -114 36q-53 37 -114 101q-16 17 -23 39q-9 30 11 52q19 21 52 12q21 -6 47 -28l57 -51q14 -13 36 -28q23 -16 53 -14q25 2 35.5 17t3.5 38q-6 18 -23 45q-5 7 -15.5 24.5t-16.5 27t-16 23t-20 22.5q-16 18 -62.5 74.5t-70.5 79.5
q-65 64 -90 156q-46 175 90 300q92 84 212 40q86 -32 129 -110q30 -56 37 -105zM345 1050q-21 -6 -36 6t-14 34q0 20 8 33q10 18 21 32q42 54 64 80q15 18 27 27t28 8t28 -10q13 -10 16.5 -26.5t-3.5 -31.5q-3 -6 -11 -18q-25 -32 -77 -96q-21 -25 -42 -35l-2 -1q-1 0 -3 -1
t-4 -1z" />
    <glyph glyph-name="sacute" unicode="&#x15b;" horiz-adv-x="698" 
d="M582 751q13 -95 13 -131q-3 -59 -4 -66q-4 -20 -19 -32t-35 -12q-46 0 -56 48l-3 36q-4 73 -7 106q-5 49 -23 88q-13 28 -38 48q-29 27 -70.5 26t-73.5 -39q-94 -110 -2 -243q13 -19 35 -46q12 -15 32 -42t36 -47t33 -37q63 -63 107 -130q26 -40 35 -73
q23 -83 -24.5 -144.5t-133.5 -60.5q-61 0 -114 36q-53 37 -114 101q-16 17 -23 39q-9 30 11 52q19 21 52 12q21 -6 47 -28l57 -51q14 -13 36 -28q23 -16 53 -14q25 2 35.5 17t3.5 38q-6 18 -23 45q-5 7 -15.5 24.5t-16.5 27t-16 23t-20 22.5q-16 18 -62.5 74.5t-70.5 79.5
q-65 64 -90 156q-46 175 90 300q92 84 212 40q86 -32 129 -110q30 -56 37 -105zM345 1050q-21 -6 -36 6t-14 34q0 20 8 33q10 18 21 32q42 54 64 80q15 18 27 27t28 8t28 -10q13 -10 16.5 -26.5t-3.5 -31.5q-3 -6 -11 -18q-25 -32 -77 -96q-21 -25 -42 -35l-2 -1q-1 0 -3 -1
t-4 -1z" />
    <glyph glyph-name="Ydieresis" unicode="&#x178;" horiz-adv-x="829" 
d="M659 983q29 5 49 -13.5t18 -48.5q-1 -14 -9 -40q-114 -350 -176 -498q-12 -27 -10 -70q1 -28 4 -85.5t5 -86.5q0 -12 2 -38t2 -38q1 -21 -14 -43q-14 -20 -38 -22t-41 16q-17 17 -20 40q-6 36 -7 56q-10 184 -11 223q-1 29 -18 51q-23 29 -80 129q-16 29 -81 154.5
t-100 181.5q-18 30 -20 35q-8 18 -10 28q-4 20 4.5 38t25.5 26q38 17 65 -13q8 -9 26 -38q38 -63 111.5 -201t90.5 -169l6 -12t7 -13t7.5 -11t10.5 -10q6 4 10 9.5t6 10t4 13t3 11.5q16 50 61 178.5t63 182.5q6 18 15 37q13 26 39 30zM302 1096q-30 0 -50.5 18t-20.5 45
q0 45 44 68q39 19 74 -11q20 -17 28 -44q10 -35 -20 -57q-27 -19 -55 -19zM521 1096q-30 0 -51 18t-21 45q0 45 44 68q40 19 75 -11q20 -17 28 -44q10 -35 -21 -57q-27 -19 -54 -19z" />
    <glyph glyph-name="Zacute" unicode="&#x179;" horiz-adv-x="770" 
d="M646 99q22 -15 22 -38.5t-21 -38.5q-7 -5 -23 -11q-16 -5 -29 -6q-60 -7 -195.5 -5t-193.5 18q-33 9 -52 21q-62 39 -41 109q7 22 24 56q158 305 169 325q29 53 85.5 145t86.5 148q6 11 12 39q-22 4 -58 4q-65 4 -131.5 3.5t-113.5 -9.5q-30 -2 -35 -2q-19 2 -32.5 15
t-16.5 31q-7 41 29 60q18 9 38 12q54 6 116.5 6.5t135 -1.5t117.5 -1q28 0 41 -2q35 -6 50 -30t5 -59q-6 -19 -19 -47q-35 -72 -102.5 -185t-94.5 -164l-147 -279q-24 -48 -35 -72q10 -15 37 -17q68 -4 223 -4q79 0 111 -7q27 -6 38 -14zM339 1050q-21 -6 -36.5 6t-14.5 34
q0 18 9 33q10 18 21 32q53 69 63 80q15 18 27 27t28 8t28 -10q13 -10 16.5 -26.5t-3.5 -31.5q-3 -6 -11 -18q-25 -32 -77 -96q-21 -25 -42 -35l-1 -1q-2 0 -3.5 -1t-3.5 -1z" />
    <glyph glyph-name="zacute" unicode="&#x17a;" horiz-adv-x="770" 
d="M646 99q22 -15 22 -38.5t-21 -38.5q-7 -5 -23 -11q-16 -5 -29 -6q-60 -7 -195.5 -5t-193.5 18q-33 9 -52 21q-62 39 -41 109q7 22 24 56q158 305 169 325q29 53 85.5 145t86.5 148q6 11 12 39q-22 4 -58 4q-65 4 -131.5 3.5t-113.5 -9.5q-30 -2 -35 -2q-19 2 -32.5 15
t-16.5 31q-7 41 29 60q18 9 38 12q54 6 116.5 6.5t135 -1.5t117.5 -1q28 0 41 -2q35 -6 50 -30t5 -59q-6 -19 -19 -47q-35 -72 -102.5 -185t-94.5 -164l-147 -279q-24 -48 -35 -72q10 -15 37 -17q68 -4 223 -4q79 0 111 -7q27 -6 38 -14zM339 1050q-21 -6 -36.5 6t-14.5 34
q0 18 9 33q10 18 21 32q53 69 63 80q15 18 27 27t28 8t28 -10q13 -10 16.5 -26.5t-3.5 -31.5q-3 -6 -11 -18q-25 -32 -77 -96q-21 -25 -42 -35l-1 -1q-2 0 -3.5 -1t-3.5 -1z" />
    <glyph glyph-name="Zcaron" unicode="&#x17d;" horiz-adv-x="770" 
d="M646 99q22 -15 22 -38.5t-21 -38.5q-7 -5 -23 -11q-16 -5 -29 -6q-60 -7 -195.5 -5t-193.5 18q-33 9 -52 21q-62 39 -41 109q7 22 24 56q158 305 169 325q29 53 85.5 145t86.5 148q6 11 12 39q-22 4 -58 4q-65 4 -131.5 3.5t-113.5 -9.5q-30 -2 -35 -2q-19 2 -32.5 15
t-16.5 31q-7 41 29 60q18 9 38 12q54 6 116.5 6.5t135 -1.5t117.5 -1q28 0 41 -2q35 -6 50 -30t5 -59q-6 -19 -19 -47q-35 -72 -102.5 -185t-94.5 -164l-147 -279q-24 -48 -35 -72q10 -15 37 -17q68 -4 223 -4q79 0 111 -7q27 -6 38 -14zM319 1070l-54 111q-13 30 -13 53
q0 5 1 9q4 22 21 30.5t37 -1.5q13 -6 25 -22l21 -33q4 -7 11 -21.5t10 -21.5q6 9 19 26.5t19 25.5q16 22 41 36l1 1l4 2t4 1q21 7 36 -4t16 -34q0 -19 -7 -33q-11 -20 -20 -33q-40 -56 -60 -83q-16 -20 -26 -28q-1 -1 -4 -3q-7 -7 -12 -9q-14 -7 -31 -3.5t-27 16.5
q-6 6 -12 18z" />
    <glyph glyph-name="zcaron" unicode="&#x17e;" horiz-adv-x="770" 
d="M646 99q22 -15 22 -38.5t-21 -38.5q-7 -5 -23 -11q-16 -5 -29 -6q-60 -7 -195.5 -5t-193.5 18q-33 9 -52 21q-62 39 -41 109q7 22 24 56q158 305 169 325q29 53 85.5 145t86.5 148q6 11 12 39q-22 4 -58 4q-65 4 -131.5 3.5t-113.5 -9.5q-30 -2 -35 -2q-19 2 -32.5 15
t-16.5 31q-7 41 29 60q18 9 38 12q54 6 116.5 6.5t135 -1.5t117.5 -1q28 0 41 -2q35 -6 50 -30t5 -59q-6 -19 -19 -47q-35 -72 -102.5 -185t-94.5 -164l-147 -279q-24 -48 -35 -72q10 -15 37 -17q68 -4 223 -4q79 0 111 -7q27 -6 38 -14zM319 1070l-54 111q-13 30 -13 53
q0 5 1 9q4 22 21 30.5t37 -1.5q13 -6 25 -22l21 -33q4 -7 11 -21.5t10 -21.5q6 9 19 26.5t19 25.5q16 22 41 36l1 1l4 2t4 1q21 7 36 -4t16 -34q0 -19 -7 -33q-11 -20 -20 -33q-40 -56 -60 -83q-16 -20 -26 -28q-1 -1 -4 -3q-7 -7 -12 -9q-14 -7 -31 -3.5t-27 16.5
q-6 6 -12 18z" />
    <glyph glyph-name="emdash" unicode="&#x2014;" horiz-adv-x="1050" 
d="M910 578q39 -12 39 -47q0 -34 -36 -51q-23 -10 -49 -10q-24 0 -72 -1t-71 -1q-125 1 -380 5l-162 6q-33 0 -53 16q-27 21 -23 53q5 33 37 44q20 7 46 5q226 -8 268 -8q67 -1 192 -1.5t164 -0.5q41 0 61 -1q17 -1 39 -8z" />
    <glyph glyph-name="quoteleft" unicode="&#x2018;" horiz-adv-x="337" 
d="M235 798q0 -37 -1 -54q0 -15 -5 -30q-12 -34 -43 -38t-50 28q-12 20 -16 58q-4 50 -17 167q-2 25 4 40q14 35 49 38q31 3 51 -27q12 -20 14 -43q9 -88 14 -139z" />
    <glyph glyph-name="quoteright" unicode="&#x2019;" horiz-adv-x="337" 
d="M235 798q0 -37 -1 -54q0 -15 -5 -30q-12 -34 -43 -38t-50 28q-12 20 -16 58q-4 50 -17 167q-2 25 4 40q14 35 49 38q31 3 51 -27q12 -20 14 -43q9 -88 14 -139z" />
    <glyph glyph-name="quotedblleft" unicode="&#x201c;" horiz-adv-x="503" 
d="M218 860h1v-97q-2 -37 -10 -54q-17 -33 -47 -33q-32 0 -47 33q-11 25 -11 50q-2 136 -2 202q0 9 4 25q6 20 22 31.5t35 10.5q18 -1 32.5 -12.5t18.5 -29.5q4 -15 4 -35v-91zM400 863v-101q0 -30 -13 -49q-16 -24 -42 -24.5t-42 24.5t-16 48q-1 39 -1.5 109.5t-0.5 93.5
q0 7 1 10q4 24 20 39t38 14q20 -1 35.5 -15.5t18.5 -36.5q2 -12 2 -36v-76z" />
    <glyph glyph-name="quotedblright" unicode="&#x201d;" horiz-adv-x="503" 
d="M218 860h1v-97q-2 -37 -10 -54q-17 -33 -47 -33q-32 0 -47 33q-11 25 -11 50q-2 136 -2 202q0 9 4 25q6 20 22 31.5t35 10.5q18 -1 32.5 -12.5t18.5 -29.5q4 -15 4 -35v-91zM400 863v-101q0 -30 -13 -49q-16 -24 -42 -24.5t-42 24.5t-16 48q-1 39 -1.5 109.5t-0.5 93.5
q0 7 1 10q4 24 20 39t38 14q20 -1 35.5 -15.5t18.5 -36.5q2 -12 2 -36v-76z" />
    <glyph glyph-name="bullet" unicode="&#x2022;" horiz-adv-x="458" 
d="M353 590q17 -60 -35 -96q-49 -34 -94 -34q-51 -1 -86 30.5t-36 78.5q0 79 76 116q65 33 127 -19q34 -28 48 -76z" />
    <glyph glyph-name="Euro" unicode="&#x20ac;" horiz-adv-x="851" 
d="M724 305q28 -15 26 -46q0 -14 -4 -25q-11 -30 -18 -42q-43 -76 -63 -104q-61 -88 -158.5 -97t-173.5 68q-30 30 -48 66q-5 9 -13 27.5t-12 27.5q-2 4 -5.5 31.5t-11.5 33.5q-6 4 -13 4.5t-17 -2t-14 -2.5q-19 -1 -40 5q-45 15 -43 56q1 20 13 35t33 19q9 2 27.5 3.5
t22.5 1.5q15 2 18 15q6 31 -3 43q-4 4 -9 4h-30q-32 0 -41 2q-19 4 -32 20t-13 35q0 20 14 36t36 20q34 6 65 9q22 3 25 26q22 162 32 189q27 74 81 133q35 36 72 55q57 28 116.5 19.5t104.5 -53.5q75 -74 90 -194q3 -23 -8 -45q-15 -34 -52 -34t-51 36q-5 15 -7 34
q-2 37 -31 91q-9 18 -30 34q-33 25 -72 10q-28 -11 -52 -40q-57 -66 -71 -165q0 -61 3 -70q1 -5 24.5 -3.5t25.5 1.5q39 -3 46 -5q29 -9 33.5 -35t-18.5 -45q-16 -13 -41 -20q-11 -3 -34 -8.5t-35 -8.5q-22 -5 -19 -30q3 -29 16 -29q5 0 14 1t16.5 1.5t14.5 0.5q31 0 46 -3
q36 -9 40 -41q4 -26 -24 -47q-17 -13 -51 -22q-12 -3 -55 -14q13 -84 48 -124q18 -19 47 -29q33 -11 55.5 -5t43.5 33q6 8 12.5 18t14.5 22.5t12 19.5q7 10 20.5 31.5t20.5 32.5q17 23 36 35q27 15 48 3z" />
    <glyph glyph-name="propellor" unicode="&#x2318;" horiz-adv-x="1103" 
d="M1001 211q7 -68 -33.5 -122.5t-107.5 -64.5q-87 -14 -133 54q-36 52 -57 119q-5 17 -14.5 51t-14.5 51q-5 19 -10 22.5t-25 3.5h-20v-1q-5 0 -15 -1t-15 -1q-39 -4 -47 -11t-17 -46q-14 -64 -29 -98q-46 -103 -138 -133q-60 -19 -106.5 2.5t-70.5 79.5q-25 58 -15 104
t56 89q71 67 156 92q5 2 14.5 5t14.5 4q17 7 17 22q0 73 -3 91t-20 19q-8 0 -25 2t-26 2q-76 6 -136 50q-53 39 -73 107q-21 73 24.5 142t138.5 70q94 0 167 -64q48 -41 56 -110q1 -10 2 -30.5t2 -30.5q1 -20 23 -19q28 2 76 8q20 1 23 23q2 15 8 45q9 41 28 76q17 33 45 55
q41 33 92 34t92.5 -29t57.5 -81q25 -82 -45 -147q-49 -45 -124 -66q-5 -1 -14.5 -3t-14.5 -4q-14 -5 -14 -19q0 -41 2 -61q6 -49 10 -54.5t47 -16.5q55 -15 99 -40q100 -58 112 -170zM770 771q-22 -23 -27 -64q-1 -3 4 -6t13 -2q42 14 66 42q9 11 0 23q-11 16 -27 18
t-29 -11zM379 673q1 0 1 11l-1 10q-3 33 -4 39q-4 16 -10 23q-39 45 -98 42q-22 -1 -35 -17t-11 -39q3 -33 34 -54q45 -30 111 -28q11 0 13 13zM371 269q1 7 -3.5 10t-12.5 0q-51 -21 -94 -66q-12 -13 -10.5 -31.5t14.5 -31.5q3 -3 12 -6q31 2 57 33q24 29 37 92zM614 453
q4 7 4.5 16.5t-1.5 24.5t-2 19q-1 29 -8 34t-36 1q-10 -1 -34 -3h-5q-15 -2 -19.5 -6.5t-4.5 -18.5v-56q1 -19 5.5 -23t24.5 -2q19 3 20 3q11 2 21 0.5t20.5 0.5t14.5 10zM883 192q2 44 -31 71q-18 15 -39 24q-3 1 -10.5 5.5t-11 6t-10.5 2.5t-10 -3q-6 -9 -6.5 -12t4 -14
t5.5 -15q13 -54 38 -94q24 -40 57 -7q14 14 14 36z" />
  </font>
</defs>
</svg>
