<svg id="Calque_1" data-name="Calque 1" xmlns="http://www.w3.org/2000/svg" viewBox="0 0 25.99 29.15"><defs><style>.cls-1{fill:#e83b5d;}</style></defs><path class="cls-1" d="M22.6,0h-.88v-1a2.18,2.18,0,0,0-2.14-2.2,2.17,2.17,0,0,0-2.13,2.2V0H15.26v-1a2.18,2.18,0,0,0-2.14-2.2A2.17,2.17,0,0,0,11-.95V0H8.8v-1a2.18,2.18,0,0,0-2.14-2.2A2.18,2.18,0,0,0,4.52-.95V0H3.4A3.4,3.4,0,0,0,0,3.41V22.6A3.4,3.4,0,0,0,3.4,26H22.6A3.4,3.4,0,0,0,26,22.6V3.41A3.4,3.4,0,0,0,22.6,0Zm-4-1a1,1,0,0,1,.93-1,1,1,0,0,1,.94,1V3a.94.94,0,1,1-1.87,0Zm-6.46,0a1,1,0,0,1,.93-1,1,1,0,0,1,.94,1V3a.94.94,0,1,1-1.87,0Zm-6.47,0a1,1,0,0,1,.94-1,1,1,0,0,1,.93,1V3A.94.94,0,1,1,5.72,3ZM24,22.6A1.4,1.4,0,0,1,22.6,24H3.4A1.4,1.4,0,0,1,2,22.6V5H24Z" transform="translate(-0.01 3.15)"/><path class="cls-1" d="M22.25,8.64H18.59v3.25h3.66Z" transform="translate(-0.01 3.15)"/><path class="cls-1" d="M22.25,13H18.59v3.25h3.66Z" transform="translate(-0.01 3.15)"/><path class="cls-1" d="M7.6,17.32H4v3.25H7.6Z" transform="translate(-0.01 3.15)"/><path class="cls-1" d="M12.48,17.32H8.83v3.25h3.65Z" transform="translate(-0.01 3.15)"/><path class="cls-1" d="M17.37,17.32H13.71v3.25h3.66Z" transform="translate(-0.01 3.15)"/><path class="cls-1" d="M22.25,17.32H18.59v3.25h3.66Z" transform="translate(-0.01 3.15)"/><path class="cls-1" d="M6.63,16.06H8.79V8.86H7.09a1.66,1.66,0,0,1-.21.75,1.56,1.56,0,0,1-.5.49,2.07,2.07,0,0,1-.67.25,2.76,2.76,0,0,1-.76.07v1.49H6.63Z" transform="translate(-0.01 3.15)"/><path class="cls-1" d="M14.58,10.81l-.27.33-.43.61a7.29,7.29,0,0,0-.82,1.52,10.93,10.93,0,0,0-.45,1.38,8.22,8.22,0,0,0-.17,1,2.29,2.29,0,0,0,0,.39H14.7a8.1,8.1,0,0,1,.09-1.36,7.56,7.56,0,0,1,.33-1.43,6.76,6.76,0,0,1,.67-1.42,5.75,5.75,0,0,1,1.08-1.31V8.86H11.32v1.76h3.44Z" transform="translate(-0.01 3.15)"/></svg>