<svg id="Calque_1" data-name="Calque 1" xmlns="http://www.w3.org/2000/svg" xmlns:xlink="http://www.w3.org/1999/xlink" viewBox="0 0 26 26"><defs><style>.cls-1{fill:none;}.cls-2{clip-path:url(#clip-path);}.cls-3{fill:#e83b5d;}</style><clipPath id="clip-path" transform="translate(-0.05 -0.01)"><rect class="cls-1" y="0.01" width="26" height="26"/></clipPath></defs><g class="cls-2"><path class="cls-3" d="M26,7.66a9.57,9.57,0,0,0-.6-3.16,6.41,6.41,0,0,0-1.5-2.3A6.5,6.5,0,0,0,21.57.7,9.57,9.57,0,0,0,18.41.1C17,0,16.58,0,13.05,0s-4,0-5.36.08A9.43,9.43,0,0,0,4.54.7,6.24,6.24,0,0,0,2.23,2.2,6.5,6.5,0,0,0,.73,4.5a9.51,9.51,0,0,0-.6,3.15C.06,9.05.05,9.49.05,13s0,4,.07,5.36a9.43,9.43,0,0,0,.61,3.15,6.45,6.45,0,0,0,1.5,2.31,6.34,6.34,0,0,0,2.3,1.49,9.49,9.49,0,0,0,3.16.61C9.07,26,9.51,26,13,26s4,0,5.36-.07a9.55,9.55,0,0,0,3.16-.61,6.65,6.65,0,0,0,3.8-3.8,9.51,9.51,0,0,0,.6-3.15C26,17,26,16.55,26,13S26,9.05,26,7.66ZM23.63,18.27a7.3,7.3,0,0,1-.44,2.42,4.35,4.35,0,0,1-2.47,2.47,7.28,7.28,0,0,1-2.41.44c-1.38.06-1.79.08-5.26.08s-3.88,0-5.25-.08a7.22,7.22,0,0,1-2.41-.44,4,4,0,0,1-1.49-1,3.88,3.88,0,0,1-1-1.5,7,7,0,0,1-.45-2.41C2.42,16.91,2.4,16.5,2.4,13s0-3.89.08-5.25a7,7,0,0,1,.45-2.42,3.85,3.85,0,0,1,1-1.49,4.09,4.09,0,0,1,1.49-1,7.22,7.22,0,0,1,2.42-.45c1.37-.06,1.78-.07,5.25-.07s3.88,0,5.25.07a7.09,7.09,0,0,1,2.41.45,4,4,0,0,1,1.5,1,4.09,4.09,0,0,1,1,1.49,7.3,7.3,0,0,1,.44,2.42c.06,1.37.08,1.78.08,5.25S23.69,16.9,23.63,18.27Z" transform="translate(-0.05 -0.01)"/><path class="cls-3" d="M13.05,6.34A6.68,6.68,0,1,0,19.73,13,6.68,6.68,0,0,0,13.05,6.34Zm0,11A4.34,4.34,0,1,1,17.38,13,4.33,4.33,0,0,1,13.05,17.35Z" transform="translate(-0.05 -0.01)"/><path class="cls-3" d="M21.55,6.07A1.56,1.56,0,1,1,20,4.52,1.56,1.56,0,0,1,21.55,6.07Z" transform="translate(-0.05 -0.01)"/></g></svg>